<?xml version="1.0" encoding="UTF-8"?>
<COLLADA xmlns="http://www.collada.org/2005/11/COLLADASchema" version="1.4.1">
    <asset>
        <contributor>
            <author>VCGLab</author>
            <authoring_tool>VCGLib | MeshLab</authoring_tool>
        </contributor>
        <created>Wed Jun 24 09:23:17 2026 GMT</created>
        <modified>Wed Jun 24 09:23:17 2026 GMT</modified>
        <up_axis>Y_UP</up_axis>
    </asset>
    <library_geometries>
        <geometry id="shape0-lib" name="shape0">
            <mesh>
                <source id="shape0-lib-positions" name="position">
                    <float_array id="shape0-lib-positions-array" count="1659">-0.00304955 -0.0156031 -0.0181607 -0.00106801 0.015624 -0.0182305 0.00246679 0.0100272 -0.0202405 0.00450047 0.00992163 -0.0198003 0.0139263 3.76558e-05 -0.014584 0.00884133 -0.0153042 -0.0134752 0.0100917 -0.0152815 -0.0118202 0.013378 -0.00829297 -0.01307 0.0121433 -0.00983628 -0.0137711 0.0121189 -0.00829094 -0.014837 0.00924321 -0.00981065 -0.0172483 0.0103051 -0.00815909 -0.0170609 0.0111276 -0.00650724 -0.0169158 0.0103595 0.00817705 -0.0170218 0.0124226 0.00392718 -0.016204 0.0124288 0.0100746 -0.0132441 0.0134333 0.00835284 -0.0131254 0.0119895 0.0125229 -0.0116324 0.0100799 0.0153724 -0.0118056 0.00880542 0.0153932 -0.0134451 0.00915483 0.00988879 -0.0173348 0.00536652 0.0153374 -0.0165927 0.00724436 0.0100718 -0.0185381 0.00686891 0.00835988 -0.0195306 -0.00113707 0.0124681 -0.019398 0.00390154 0.00826182 -0.0205685 0.00497355 0.00620614 -0.0208749 0.00165607 0.00808733 -0.0209938 0.00740882 0.00199242 -0.0207037 0.00470398 0.00303155 -0.0214689 0.00634748 2.60547e-05 -0.0211738 0.00699528 -0.00266112 -0.0207814 0.00461829 -0.00312749 -0.0214678 0.00248623 -0.00669505 -0.0212163 0.00396568 -0.00822802 -0.0205509 0.000616456 -0.00963806 -0.0204705 0.00127248 -0.01178 -0.019597 0.00399635 -0.00987033 -0.0199779 0.00245702 -0.0100249 -0.0202022 0.00725767 -0.00995176 -0.0185607 0.00771302 -0.011826 -0.0171157 0.00366569 -0.0153554 -0.017475 0.0120377 -0.0124346 -0.011675 0.012258 -0.010327 -0.0132189 0.0050451 -0.00603216 -0.0208848 0.00830223 -0.000101083 -0.0202669 0.0107904 0.004209 -0.0180114 0.008612 0.0081484 -0.0185779 0.0125353 -2.62985e-06 -0.0164978 0.0128267 -0.00292665 -0.015847 0.0104817 -0.00477906 -0.0181576 0.00834348 -0.00830744 -0.0187374 -0.0229947 0.00821315 0.00390797 -0.0191679 0.01528 0.00421792 -0.0227475 0.00988302 0.00275394 -0.019125 0.0156276 -0.0068623 -0.0221827 0.00919718 -0.00612725 -0.0224717 -0.00997194 -0.00454055 -0.019107 -0.0152439 0.004227 -0.0181989 -0.0152439 0.00597495 -0.0188422 -0.0124653 0.0077597 -0.0228529 -0.00827141 0.00424728 -0.0207732 -0.00831799 0.00840432 -0.0204902 -0.0100111 0.00745687 -0.0227529 -0.00982916 0.00275561 -0.0235758 -0.00827258 0.00159038 -0.0231229 -0.00984058 6.13627e-05 -0.0228502 -0.0103703 0.000381674 -0.0204389 -0.0152856 -0.000336086 -0.023714 -0.00829798 -0.000708989 -0.0229657 -0.00986608 -0.0025246 -0.0223584 -0.00886309 -0.00601015 -0.0233945 -0.00820626 -0.00337273 -0.0242678 -0.00410138 -0.00362463 -0.0250275 4.59397e-06 -0.00142722 -0.0251104 -8.8768e-05 0.000754064 -0.0248543 0.00327978 -0.00097908 -0.0241654 0.00457385 -0.00385074 -0.0236318 0.00761251 -0.00327277 -0.0224841 0.00999811 -0.00451414 -0.0234444 0.00835203 -0.00301564 -0.0232028 0.00988077 -0.000102755 -0.0226762 0.0107239 0.000217256 -0.0205592 0.0152831 -0.000300703 -0.0207817 0.00834806 0.00839761 -0.0188798 0.012481 0.00777385 -0.0204878 0.0100631 0.00744831 -0.0239766 0.00578986 0.0030708 -0.0223319 1.81246e-05 0.00822904 -0.0232793 -0.00499075 0.00557556 -0.0243879 -0.00538515 -0.0021358 -0.0240669 -0.00489748 0.00354316 -0.0234301 -2.67516e-06 0.00614825 -0.0231006 0.00360809 0.0063566 -0.0239767 0.00334273 0.00440255 -0.0236985 0.0083617 0.0010726 -0.0168738 0.0104277 -0.0126023 -0.0138668 0.0100637 -0.0152054 -0.00732003 0.0107544 -0.0185375 -0.00756199 0.0100691 -0.0186483 -0.010861 0.0100692 -0.0171036 -0.0177604 0.0114265 -0.0113071 -0.0191366 0.00335547 -0.0120672 -0.0165762 0.00834436 -0.0135765 -0.0147683 0.0083876 -0.0150655 -0.0196556 0.00844564 -0.0103509 -0.017848 0.00251183 -0.0133752 -0.0205699 -4.38053e-05 -0.0107957 -0.0189247 1.29631e-05 -0.0124537 -0.0172133 -0.00841697 -0.0129546 -0.0170271 -0.00418964 -0.0139785 -0.0167728 -0.00785016 -0.0135131 -0.017339 -0.0120078 -0.0114696 -0.0196672 -0.00839754 -0.0103602 -0.0168432 -0.0104674 -0.0126087 -0.0132717 -0.0160844 -0.0136683 -0.0124066 -0.0100034 -0.0162283 -0.0165436 -0.0100006 -0.013039 -0.0082568 -0.0127325 -0.0175398 -0.00736071 -0.0100633 -0.0187207 -0.0103519 -0.00839523 -0.0177887 -0.00797996 -0.0162294 -0.0165789 -0.00408056 -0.00843244 -0.0202918 -0.00614246 -0.00404494 -0.0203027 -0.00803826 -0.00833051 -0.018932 -0.0039632 -3.67437e-06 -0.021164 -0.00618617 3.89525e-05 -0.0204674 -0.00550301 0.0029117 -0.0205868 -0.00824549 0.00836316 -0.0188708 -0.00811291 0.00372138 -0.0195718 -0.00398338 0.0084504 -0.0202322 -0.00577266 0.0116561 -0.0188121 -0.00913316 -0.00574462 -0.0188571 -0.00753091 -0.00255234 -0.0198716 -0.01463 -0.00841536 -0.0151089 -0.0103773 0.00846034 -0.017802 -0.020398 0.00866795 -0.010969 -0.0168091 0.0139522 -0.0124007 -0.021174 0.000328002 -0.011499 -0.021203 0.000238002 -0.0114659 -0.021224 -4.49975e-05 -0.011441 -0.021174 -0.000273997 -0.011499 -0.0174249 -0.00808036 -0.0142725 -0.017946 -0.0086189 -0.0136258 -0.0147356 -0.0161729 -0.0123347 -0.0237892 -0.00803768 -0.00583461 -0.025966 -0.000273999 -0.00169896 -0.0179595 -0.0158773 -0.00862105 -0.025972 -0.000182999 -0.00165497 -0.025976 9.70009e-05 -0.00162297 -0.025966 0.000328001 -0.00169896 -0.0259019 0.000977001 -0.00206994 -0.025746 0.00203997 -0.00266998 -0.02533 0.00388199 -0.00367998 -0.02509 0.00469399 -0.00411199 -0.0240095 0.0076717 -0.00563833 0.00652595 0.000328004 -0.022164 0.00656797 0.000236004 -0.02215 0.00659897 -4.39958e-05 -0.02214 0.00652595 -0.000273996 -0.022164 0.00617798 -0.000898996 -0.022263 0.00554498 -0.00200599 -0.022386 0.00318924 -0.00593355 -0.0223471 0.000233462 -0.010546 -0.0211877 -0.00570095 -0.0112345 -0.0200504 -0.00798298 -0.00861851 -0.0199763 -0.00841481 -0.00799656 -0.0198874 -0.00435499 -0.000273996 -0.02208 -0.00431196 -0.000183996 -0.022092 -0.00428496 -7.59958e-05 -0.0221 -0.00428097 9.80042e-05 -0.022101 -0.00435499 0.000328004 -0.02208 -0.00637684 0.00402073 -0.0213227 -0.00858816 0.00858459 -0.0197762 -0.0058166 0.011527 -0.0199156 -0.00712467 0.0141195 -0.0184104 -0.0152609 -0.0085951 -0.015838 -0.0174232 -0.0047741 -0.0148779 -0.019524 -0.000273997 -0.013261 -0.019556 -0.000182997 -0.01323 -0.0195769 -7.49972e-05 -0.013211 -0.01958 9.70028e-05 -0.013208 -0.019524 0.000328003 -0.013261 -0.0194445 0.000596976 -0.0134107 -0.0152642 0.00865443 -0.0158331 -0.0108375 0.00866141 -0.0186507 -0.00864295 0.00410497 -0.0203709 -0.00665395 0.000328004 -0.021357 -0.00661198 0.000237004 -0.0213719 -0.006586 0.000128004 -0.021382 -0.00658194 -4.39959e-05 -0.021384 -0.00665395 -0.000273996 -0.021357 -0.00929197 -0.00532091 -0.0199821 -0.00682518 -0.000545457 -0.0213493 -0.0108392 -0.00860552 -0.0186593 0.00405942 -0.00842957 -0.0216093 0.00670204 -0.00395383 -0.0218529 0.00872399 -0.000273996 -0.0211749 0.00876297 -0.000180996 -0.021154 0.00878997 9.70041e-05 -0.021139 0.00820252 0.00135029 -0.0214441 0.006148 0.00492198 -0.021856 0.00744499 0.00270695 -0.021675 0.00434496 0.00780696 -0.0216859 0.00429575 0.00859935 -0.0214902 0.00610654 0.00866633 -0.0209415 0.00903864 0.00864791 -0.0193525 0.0122378 0.00269119 -0.0181553 0.010819 0.00559199 -0.018948 0.010469 0.006239 -0.019072 0.009573 0.00779695 -0.019274 0.0131959 0.000328003 -0.017203 0.013225 0.000234003 -0.017169 0.013245 -4.29966e-05 -0.017145 0.0131959 -0.000274997 -0.017203 0.0119628 -0.0033127 -0.0184152 0.00978201 -0.00744195 -0.0192854 0.00904658 -0.00859936 -0.0193471 0.00683995 -0.00861495 -0.020596 -0.0244184 -0.00842257 -0.00370489 -0.0245218 -0.00859209 0.00180248 -0.0249764 -0.00428624 0.00428642 -0.0243338 3.02154e-05 0.00659495 -0.0249276 0.00372672 0.00462929 -0.0247634 0.00753462 0.00247511 -0.0245112 0.00865215 0.00179723 -0.0244288 0.00865274 -0.00330206 -0.0247986 0.00748645 -0.00331083 -0.0258151 0.0036438 -0.00119073 -0.026023 0.000328001 0.000711033 -0.026018 -4.39995e-05 0.000787029 -0.02602 0.000235001 0.000755021 -0.026023 -0.000273999 0.000711033 -0.0259194 -0.0032017 -0.000977687 -0.00757019 0.0108189 -0.0195439 -0.00809032 0.0103087 -0.0194864 -0.0105067 0.0103281 -0.0184208 -0.0135077 0.0103242 -0.0167156 -0.0154217 0.013778 -0.0138231 -0.0106136 -0.0102579 -0.0183732 -0.00751754 -0.0103462 -0.0197098 -0.00898232 -0.0138605 -0.0178028 0.0132691 0.0103871 -0.0138809 0.00972551 0.0103308 -0.0179463 -0.0235102 0.0103101 -0.00470348 -0.0240858 0.0104406 0.000571104 -0.0235893 0.0104006 0.00296565 -0.0210926 0.0113245 0.0074757 -0.0216661 0.0103055 0.00747178 -0.0193252 0.0133177 0.007852 -0.0215846 0.0086724 0.0088713 -0.0207803 0.0107192 0.00861919 -0.0236553 0.00867471 0.0047865 -0.0240104 0.00804282 0.00439104 -0.0240489 0.00423376 0.00654472 -0.0232053 2.44888e-05 0.00873981 -0.0237842 -0.00228864 0.00759953 -0.0241164 -0.00782459 0.00447329 -0.0206093 -0.0109816 0.0085549 -0.0214267 -0.0102986 0.00784772 -0.0239644 -0.0102562 -0.00238527 -0.0233976 -0.0102745 -0.00474536 -0.000505502 -0.0148034 -0.0189794 0.0025662 -0.0104014 -0.0211314 0.00299199 -0.0102529 -0.0211069 0.00509699 -0.0102529 -0.020607 0.00572695 -0.0102529 -0.020385 0.00584073 -0.012941 -0.0187436 0.00772558 -0.012833 -0.0176602 0.00536287 -0.0153004 -0.0165938 0.00976738 -0.0102468 -0.0179544 0.0129722 -0.0107821 -0.0137514 0.0128778 -0.0102568 -0.0143136 0.0110177 -0.0132723 -0.0138122 0.0122567 -0.013286 -0.0120497 0.0141824 -0.00867952 -0.0136126 0.013027 -0.00861495 -0.015203 0.012874 -0.00861495 -0.015408 0.011465 -0.00861495 -0.017119 0.0111001 -0.00818571 -0.0177998 0.0133889 -0.00352096 -0.016606 0.0124289 -0.00559496 -0.017255 0.014643 -0.000274997 -0.015265 0.0147418 9.27373e-05 -0.0151832 0.0139769 0.00235116 -0.0161735 0.0126205 0.00539548 -0.0172113 0.0111173 0.00821014 -0.0177929 0.011465 0.00866795 -0.017119 0.012874 0.00866795 -0.015408 0.0141609 0.00866795 -0.0136019 -0.0253756 -0.00566173 0.00152204 -0.0258479 -0.00219196 0.00153304 -0.0259844 0.00108541 0.00130892 -0.024779 0.00864538 -0.000705109 -0.0256676 0.00442271 0.00110695 -0.0254553 0.000207279 0.00382727 -0.0247668 -0.00861443 -0.000472936 0.0135435 -0.00568179 -0.0158235 0.0153682 0.00642754 -0.0129344 0.015376 -0.00561195 -0.013204 0.0156689 -0.00280499 -0.013501 0.01381 -0.00280499 -0.016184 0.0181613 0.0086699 -0.00738602 0.0134746 0.0110345 -0.0128863 0.017309 0.011027 -0.006837 0.0192864 -0.000499791 -0.00808141 0.018941 -0.00489131 -0.00786378 0.018285 -0.00817096 -0.00745098 0.0173811 -0.0108489 -0.0068819 0.019197 0.00240696 -0.00802498 0.018765 0.00601095 -0.00775294 -0.0210195 -0.0126227 -0.00785473 -0.0215602 -0.00911016 -0.00926161 -0.0204037 -0.00861911 -0.0109767 -0.0224335 -0.00462698 -0.00953368 -0.0196338 -0.00393121 -0.0129813 -0.0203473 0.0116328 -0.00968127 -0.0218616 0.0084561 -0.00911621 -0.0254274 0.000178932 -0.00424757 -0.025329 0.00388199 -0.00367998 -0.0253257 -0.00411305 -0.00386666 -0.02204 2.70023e-05 -0.010444 -0.0172842 0.00859343 -0.0142778 -0.0233129 0.00572558 -0.00781475 -0.0245455 0.00264681 -0.00624941 -0.0226003 0.00304683 -0.00952731 -0.0237994 2.63756e-05 -0.0079103 -0.0237696 -0.00402419 -0.00751779 -0.019535 0.00415915 -0.0130451 -0.0210858 0.00579457 -0.0109931 0.00719633 -0.00673634 -0.0210634 0.011496 2.70037e-05 -0.0190779 0.0116457 0.00263998 -0.0187942 0.00803574 0.00643825 -0.0207518 0.00881808 0.00358414 -0.0209265 0.009429 2.7004e-05 -0.020745 0.00799756 -0.00331146 -0.0213683 0.00931195 -0.0031969 -0.0206251 -0.017059 0.00552716 -0.0150834 -0.0163334 0.00132764 -0.0160756 -0.0127051 0.00447018 -0.0183016 -0.0119772 9.78889e-05 -0.0189841 -0.0136878 -0.00419946 -0.0177092 -0.00196993 0.00304335 -0.0225105 -0.00264635 0.011037 -0.0208144 0.00118042 0.00914027 -0.0217125 -0.00302897 2.70043e-05 -0.022403 -0.00420478 -0.00861021 -0.0211919 -0.00306918 -0.0115951 -0.0205425 0.00497141 -0.000519678 -0.0225913 0.00181601 -0.00259276 -0.0228458 -0.00414287 -0.00423739 -0.021955 -0.00683939 -0.00484453 -0.0210306 1.29459e-05 2.70044e-05 -0.022892 -0.00169065 -0.00483364 -0.0223765 2.17583e-06 -0.00717022 -0.0221599 0.00221976 0.00150648 -0.0229377 -0.00185402 0.007194 -0.0219808 -0.0042221 0.00867193 -0.0211584 0.00502231 0.00296802 -0.0224629 0.00251266 0.00702041 -0.0222504 0.00763911 -0.0104309 -0.0194209 0.00199363 -0.0112576 -0.0209303 -0.0176063 0.0105311 -0.0135048 0.00270352 0.010343 -0.0212148 0.00770189 0.0104225 -0.0194011 -0.0235282 -0.0102714 0.00302411 -0.016809 -0.010973 0.014637 -0.017681 -0.00854999 0.0151849 -0.022115 0.00285899 0.010264 -0.0223646 0.0056778 0.00905153 -0.018382 0.005292 0.015626 -0.017784 0.00822699 0.01525 -0.01688 0.010905 0.0146811 -0.0224534 -0.00571854 0.00886702 -0.0235659 -0.00863395 0.0050987 -0.0215479 -0.00866927 0.00890116 -0.018265 -0.00595796 0.0155529 -0.0187363 -0.00187254 0.0158498 -0.0187096 0.00242883 0.015833 -0.00138134 0.0130231 -0.0200881 -0.00198582 0.013922 -0.0195538 -0.0030588 0.0157782 -0.0180454 -0.00909988 0.0141706 -0.0176543 -0.0151305 -0.0141178 -0.0138563 -0.017551 -0.0106446 -0.0132963 0.0110178 0.0133301 -0.0138185 0.00728167 0.0133951 -0.0175318 0.00364691 0.0154461 -0.017472 -0.0203838 -0.0132743 0.005947 -0.0222648 -0.0131247 0.0011311 -0.0205803 -0.0152695 -0.00220701 0.00400486 -0.0186165 0.0015364 -0.0064763 -0.0182279 0.00813339 -0.00123087 -0.018774 0.00483185 0.00877246 -0.0178635 -0.00146346 0.00698388 0.01828 -0.00033815 0.00164474 0.0188326 0.00302225 -0.00338822 0.0186844 0.00619011 -0.00694398 0.018174 0.00842697 -0.00871096 0.017788 0.00953997 -0.012827 -0.0159826 0.01213 -0.00992238 -0.0173846 0.0103023 0.010578 -0.0173139 -0.00259995 0.0125295 -0.0164377 -0.00382859 0.0160276 -0.0132446 -0.00603004 0.0104243 0.0174368 -0.00250355 -0.010078 0.017367 0.0103999 -0.0120312 0.0164898 0.0116295 0.0145428 -0.0149648 -0.00509607 0.014234 0.0152799 -0.00490098 0.0127797 0.0163526 -0.0039856 -0.0161659 -0.012235 0.014232 -0.0150338 -0.0139124 0.013519 -0.013461 0.015507 0.01253 -0.0151885 0.0137863 0.0136168 0.016666 0.012288 -0.00643198 0.0155333 0.0139672 -0.00571858 -0.0138538 0.0181279 0.00388099 -0.01318 0.0191392 -0.00204983 -0.0147961 0.016273 -0.0122701 -0.0151121 0.0172074 -0.0103713 -0.0204012 0.0154876 -0.0022495 -0.0218674 0.0125211 0.00421738 -0.0158851 0.0149341 0.0104204 -0.0135341 0.0169169 0.00873965 -0.0210726 0.0125919 -0.00782507 -0.0189561 0.0110014 -0.0117317 -0.0180713 0.0158307 -0.00859469 -0.0182972 0.0146548 -0.00992746 -0.00605103 0.019238 -0.0118999 6.74726e-05 0.0193228 -0.000127943 -0.0100434 0.0184069 0.00628295 -0.00561069 0.0192107 0.00325554 -0.00182317 0.0196732 -0.00307962 -0.0176121 0.0128223 0.0112878 -0.0181554 0.0154225 0.0058864 -0.0219296 0.0126615 -0.00588758 -0.0171229 0.0170987 -0.00732362 -0.0200611 0.01532 -0.00522967 -0.0184032 0.0169714 -0.00380797 -0.0180395 0.0171144 -0.000326929 -0.0204116 0.014936 0.00201306 -0.0222417 0.0132201 -0.00326876 -0.0219079 0.0139124 -0.00139695 -0.0122063 0.0176459 -0.0125679 -0.0104916 0.0195874 -0.00676446 -0.0042992 0.0198532 -0.00684193 -0.0175537 0.0166388 0.00347619 -0.0132749 0.0162405 -0.0136157 -0.00924222 0.0197464 -0.00388912 -0.0106637 0.019121 0.00191745 -0.00708741 0.0195881 -4.24643e-05 -0.0160164 0.0180843 1.55976e-05 -0.015383 0.0184371 -0.00531855 -0.0112175 0.0190439 -0.00976785 -0.013417 0.0184451 -0.00946337 -0.00633368 0.0185144 -0.0138502 -0.0122407 0.0151565 -0.0153505 -0.00994121 0.0181533 -0.0131316 -0.00397096 0.012548 -0.019964 -0.00407497 0.014589 -0.018842 -4.48235e-05 0.016824 -0.0168149 0.00576294 0.013084 -0.0187723 0.00575878 0.0103203 -0.0204236 0.00596922 0.0159347 -0.0153099 0.0102613 0.0120769 -0.0160955 0.00859076 0.0141419 -0.0155926 0.0112337 0.0143387 -0.0120031 0.0126294 0.0129024 -0.0120637 0.00937611 0.0165442 -0.00995568 0.0084385 0.0173897 -0.00853256 0.00685849 0.0183837 -0.00479402 0.00259492 0.019226 -0.00327436 -0.0097783 0.0165647 -0.0155967 -0.00359786 0.0176085 -0.0158769 -0.00193131 0.0185247 -0.0140588 0.00216747 0.0147747 -0.018626 -0.00581667 0.0154918 -0.0178638 0.00353927 0.0164763 -0.0160036 0.00242898 0.0176285 -0.0145692 0.0007337 0.0130258 -0.0201436 0.00591674 0.0169995 -0.0132405 -0.000344631 0.0195716 -0.00801512 0.00433165 0.0188227 -0.00793462 -0.00795983 0.0163215 -0.0165614 -0.00611347 0.0173415 -0.0159861 -0.00306437 0.0194895 -0.0108478 0.00267034 0.0185812 -0.011739 -0.0141605 -0.0182838 0.00250655 -0.0168904 -0.0137828 -0.0123701 -0.0146952 -0.0102722 -0.0158823 -0.0121744 -0.013931 -0.0160896 -0.0188419 -0.0142863 0.00692027 -0.0195039 -0.0128469 0.008149 -0.0166962 -0.0158301 0.00712079 -0.0149409 -0.0172421 0.00565835 -0.0104467 -0.0183307 0.00609538 -0.00661198 -0.019021 0.003944 -0.00297302 -0.0192051 0.00240437 -0.0117871 -0.0171593 -0.0135585 -0.0183299 -0.0119746 -0.0120307 -0.0170808 -0.0153386 -0.0107064 -0.0240306 -0.010685 0.000506711 -0.0184569 -0.0165593 0.00144924 -0.0205829 -0.0145961 0.00240841 -0.0218656 -0.0125472 0.00408101 -0.00503454 -0.0196043 -0.000853253 -0.00844352 -0.0197684 -0.00572673 -0.0118617 -0.0190908 -0.00824573 -0.0156304 -0.01792 -0.00747577 -0.0150988 -0.0171556 -0.0103843 -0.0162697 -0.0180705 -0.00524043 -0.0189954 -0.0157834 -0.00691536 -0.020993 -0.0145023 -0.00443844 -0.0181975 -0.0171501 -0.00263131 -0.0230619 -0.0120056 -0.00299151 -0.0212529 -0.0134074 -0.0062252 -0.00870196 -0.01939 0.000771052 -0.0102362 -0.0195187 -0.001792 -0.0117854 -0.0189389 0.00174728 -0.0122681 -0.0182709 -0.0111236 -0.0122337 -0.0193171 -0.0049808 -0.0144438 -0.0187298 -0.00172965 -0.0054107 -0.016953 -0.01652 0.0133807 -0.0112231 -0.0127874 0.0131028 -0.0148861 -0.00782268 0.00820071 -0.017523 -0.00823752 -0.00436626 -0.0198091 -0.00615039 -0.0112894 -0.0157155 -0.015424 0.00488366 -0.0187859 -0.00629554 0.00108751 -0.0194087 -0.00341243 0.0146387 -0.0127661 -0.00901083 -0.00118299 -0.0157599 -0.0181325 -0.0014406 -0.013062 -0.0200384 -0.00751337 -0.0150326 -0.0177369 0.0053451 -0.0170194 -0.013858 0.000723574 -0.0168183 -0.0165593 0.00293105 -0.0168033 -0.0157421 0.0104133 -0.0114885 -0.0164017 0.00991827 -0.0126214 -0.0159124 0.00853878 -0.0141045 -0.0155967 0.00430533 -0.0125595 -0.0196937 -0.000758559 -0.0194418 -0.00966857 -0.00968931 -0.0164107 -0.0157004 -0.00926259 -0.0190792 -0.0108083 -0.00477102 -0.0194169 -0.01118 -0.00345237 -0.01793 -0.0153527 5.26865e-05 -0.0185287 -0.013349 0.00975604 -0.0164009 -0.00966401 -0.00418047 -0.0146055 -0.018804 0.00172672 -0.0189401 -0.010594 -0.00772156 -0.0182762 -0.013877</float_array>
                    <technique_common>
                        <accessor count="553" source="#shape0-lib-positions-array" stride="3">
                            <param name="X" type="float"/>
                            <param name="Y" type="float"/>
                            <param name="Z" type="float"/>
                        </accessor>
                    </technique_common>
                </source>
                <source id="shape0-lib-normals" name="normal">
                    <float_array id="shape0-lib-normals-array" count="3300">0.0154853 0.346607 -0.937883 0.215658 0.344946 -0.913512 0.711152 -0.460833 -0.530939 0.713677 -0.460949 -0.527439 0.798918 -0.407517 -0.442335 0.771279 -0.387728 -0.504773 0.759161 -0.361419 -0.541341 0.703806 -0.395795 -0.589918 0.703933 -0.384877 -0.59695 0.756673 -0.170676 -0.631123 0.739066 0.237489 -0.630382 0.712397 0.395316 -0.579841 0.714885 0.376467 -0.589247 0.733059 0.460838 -0.500253 0.704146 0.459234 -0.541556 0.789132 0.43019 -0.438414 0.628898 0.312394 -0.711968 0.506011 0.451883 -0.73468 0.430072 0.443824 -0.786167 0.363421 0.406332 -0.838343 0.305152 0.307066 -0.901439 -0.0601001 0.347476 -0.935761 0.0212846 0.354156 -0.934944 0.154904 0.300688 -0.941059 0.132207 0.171432 -0.976285 0.289338 -0.0696427 -0.95469 0.442182 -0.0243144 -0.896596 0.169764 -0.169875 -0.970733 0.184704 -0.235881 -0.954067 0.0778374 -0.291095 -0.953523 0.0597553 -0.36121 -0.930568 0.0207596 -0.372092 -0.927964 -0.0141197 -0.337624 -0.941175 0.0847167 -0.326828 -0.941279 0.166347 -0.288629 -0.94288 0.360261 -0.301298 -0.882854 0.368259 -0.336317 -0.866762 0.516608 -0.440538 -0.734195 0.499919 -0.449359 -0.740377 0.42475 -0.441176 -0.790539 0.628688 -0.324022 -0.706938 0.300647 -0.145006 -0.942648 0.400396 -0.0202749 -0.916118 0.295747 0.0681675 -0.952831 0.164021 0.228589 -0.959606 0.321365 0.147713 -0.935364 0.524542 0.337993 -0.781419 0.745775 0.0709123 -0.662413 0.641544 0.250504 -0.72503 0.475424 0.408326 -0.779257 0.806422 0.0670524 -0.587527 0.730378 -0.0782341 -0.678548 0.808403 -0.0499738 -0.586504 0.639339 -0.254628 -0.725541 0.64402 -0.272836 -0.714702 0.520327 -0.423293 -0.741676 -0.78761 -0.46073 0.409144 -0.769027 -0.461869 0.441899 -0.728924 -0.423053 0.538234 -0.824928 -0.417644 0.380878 -0.83254 -0.369931 0.412344 -0.920711 -0.299097 0.250662 -0.912877 -0.388322 0.125939 -0.880847 -0.452459 0.139247 -0.892262 -0.447014 0.0636111 -0.941778 -0.330793 0.0602456 -0.943623 -0.307027 -0.123737 -0.923489 -0.380031 -0.0523867 -0.813891 -0.333263 -0.475939 -0.860423 -0.372671 -0.347546 -0.913668 -0.287463 -0.287361 -0.916562 -0.342382 -0.206613 -0.931659 -0.234598 -0.277444 -0.997708 0.0576176 -0.0354703 -0.976866 0.078861 -0.198782 -0.913546 0.224899 -0.338903 -0.821186 0.337915 -0.459854 -0.8623 0.37058 -0.345122 -0.903712 0.325605 -0.278004 -0.917194 0.261061 -0.301001 -0.904758 0.403401 -0.136673 -0.961775 0.267096 -0.0604087 -0.862693 0.486781 0.137132 -0.895602 0.429165 0.117109 -0.907876 0.418182 -0.0297315 -0.920377 0.305192 0.244466 -0.737651 0.419319 0.52919 -0.828123 0.396453 0.39628 -0.845174 0.362328 0.392938 -0.778837 0.460642 0.425703 -0.773466 0.466086 0.429552 -0.892753 0.227359 0.388973 -0.903154 0.205257 0.37707 -0.883338 0.0537348 0.465645 -0.929225 -0.187624 -0.318337 -0.992773 -0.112211 -0.0425516 -0.982266 -0.0953337 -0.161444 -0.911413 -0.390322 0.130287 -0.926115 -0.280616 0.252124 -0.905492 -0.255027 0.339182 -0.931269 -0.0692174 0.357698 -0.88122 -0.0801235 0.465866 -0.91385 0.0602166 0.401562 -0.925095 0.290252 0.244854 -0.902687 0.405641 0.143571 -0.969713 0.197607 -0.143556 -0.524882 -0.143472 -0.838996 -0.51957 0.210325 -0.828137 -0.425401 0.258929 -0.867174 -0.312624 0.258131 -0.91413 -0.297098 0.239574 -0.924303 -0.409815 0.256711 -0.875301 -0.523203 0.202049 -0.82791 -0.728589 0.201965 -0.654499 -0.613612 0.260844 -0.745279 -0.678019 0.27963 -0.679777 -0.635278 0.266989 -0.724665 -0.634311 0.0933777 -0.767418 -0.700572 0.228554 -0.67599 -0.661242 0.134247 -0.738062 -0.699406 0.0381879 -0.713704 -0.710003 0.0363085 -0.703262 -0.707302 -0.0639347 -0.704014 -0.744853 -0.134831 -0.653463 -0.710073 -0.256406 -0.655783 -0.706191 -0.239832 -0.666165 -0.655724 -0.239151 -0.716124 -0.643343 -0.251977 -0.722923 -0.665279 -0.293521 -0.686476 -0.585436 -0.284546 -0.759143 -0.420464 -0.270004 -0.866203 -0.315788 -0.274567 -0.908235 -0.417029 -0.271371 -0.867436 -0.282505 -0.307215 -0.908741 -0.32112 -0.237329 -0.916819 -0.3705 -0.130253 -0.919654 -0.433875 -0.158032 -0.887005 -0.299478 -0.0416538 -0.953193 -0.298317 0.0313111 -0.953953 -0.350101 0.0443855 -0.93566 -0.323351 0.132275 -0.936988 -0.299751 0.241542 -0.922934 -0.325012 0.282965 -0.902385 -0.42703 -0.28657 -0.857627 -0.388202 -0.0964336 -0.916515 -0.336705 -0.041548 -0.940693 -0.61499 -0.141357 -0.775761 -0.636884 -0.230135 -0.73581 -0.619589 -0.231427 -0.750034 -0.616057 0.269567 -0.74014 -0.4404 0.121761 -0.889507 -0.419887 0.28078 -0.863051 0.449724 -0.519102 -0.72683 0.443467 -0.514028 -0.734242 0.441309 -0.49133 -0.750894 0.612699 -0.496868 -0.614591 0.173868 0.974525 0.141671 0.190856 0.969817 0.151753 0.583662 -0.494424 -0.644115 0.533922 -0.466974 -0.704884 0.521528 -0.482989 -0.703371 0.570278 -0.505333 -0.647628 0.554258 -0.438069 -0.707738 0.69777 -0.114271 -0.707149 0.66587 0.3165 -0.675607 0.567242 0.503151 -0.651978 0.563612 0.503773 -0.65464 0.573914 0.503872 -0.645551 0.490993 -0.821916 -0.288755 0.598418 -0.747971 -0.287116 0.141089 -0.979935 0.14079 0.165041 -0.974342 0.153035 0.456246 0.510831 -0.728622 0.436856 0.509512 -0.74132 0.548533 0.484414 -0.681509 0.441353 0.492218 -0.750286 -0.173237 -0.482845 0.858399 -0.183383 -0.498114 0.847498 -0.188165 -0.498109 0.846452 -0.0998244 -0.501796 0.859206 -0.189235 -0.490314 0.850754 -0.344462 -0.509527 0.788497 -0.127439 -0.438477 0.889661 -0.211433 -0.113981 0.970724 -0.16234 0.314704 0.935204 -0.0771973 0.50051 0.862282 -0.0795871 0.498852 0.863025 -0.128185 0.483468 0.865926 -0.17504 0.503457 0.846104 -0.174118 0.502145 0.847073 -0.175091 0.498677 0.84892 -0.189268 0.497897 0.846331 -0.176642 0.485874 0.855993 -0.345493 0.507697 0.789226 0.854332 0.433788 0.286259 0.963306 0.115302 0.242378 0.912078 -0.316738 0.260367 0.813154 -0.499945 0.298052 0.814402 -0.498672 0.296777 0.837551 -0.483056 0.255276 0.834828 -0.498411 0.233773 0.847881 -0.49296 0.195163 0.849253 -0.489245 0.198518 0.848211 -0.498707 0.17841 0.854329 -0.492203 0.166909 0.858831 -0.510244 0.0453865 -0.83027 0.51938 0.202228 -0.864745 0.501803 0.0202238 -0.846724 0.504255 0.169663 0.0617342 -0.980766 0.18517 0.0675289 -0.960891 0.268566 -0.807948 -0.577617 0.116527 -0.747187 0.478171 0.461589 -0.829824 0.502652 0.242349 -0.840478 0.498491 0.212376 -0.82918 0.505498 0.238606 -0.8635 0.444592 0.238129 -0.920933 0.252226 0.297092 -0.945979 0.023585 0.323368 -0.908051 -0.317221 0.273523 -0.832832 -0.503259 0.230482 -0.852584 -0.487555 0.188123 -0.833781 -0.495865 0.242751 -0.851919 -0.482084 0.204522 0.0501113 0.974365 0.21932 0.0501805 0.974192 0.22007 -0.850759 -0.516775 0.0956687 -0.85093 -0.516739 0.0943337 -0.866537 -0.49058 0.0918948 -0.84198 -0.496527 0.211025 0.113016 -0.978404 0.173071 0.0980981 -0.982655 0.15737 -0.588328 -0.503083 0.63307 -0.621771 -0.502757 0.60053 -0.601983 -0.49821 0.624021 -0.619403 -0.505101 0.60101 -0.639246 -0.43971 0.630888 -0.718252 -0.253235 0.648063 -0.75602 -0.0249213 0.654074 -0.698299 0.316609 0.641979 -0.617632 0.503761 0.60395 -0.627118 0.511984 0.587023 -0.596681 0.491116 0.634647 -0.630204 0.500959 0.593197 -0.634617 0.504541 0.585405 0.136914 0.959753 0.245212 0.108595 0.978911 0.173035 0.802896 0.505802 -0.315472 0.812741 0.500029 -0.299038 0.82398 0.497216 -0.271724 0.811176 0.504424 -0.29589 0.845878 0.439692 -0.30193 0.896374 0.24748 -0.367787 0.916882 0.0263124 -0.398289 0.880818 -0.317027 -0.351645 0.830086 -0.491382 -0.263631 0.81097 -0.503993 -0.297185 0.798688 -0.512747 -0.314941 0.801327 -0.500516 -0.327658 0.808905 -0.503383 -0.303772 0.809381 -0.502727 -0.303592 -0.895416 0.41605 -0.158532 -0.798139 0.449402 -0.401262 -0.804624 0.476358 -0.354491 -0.759118 0.476653 -0.443329 -0.775633 0.497705 -0.388178 -0.784933 0.429685 -0.446375 -0.877914 0.110441 -0.465908 -0.745363 -0.425216 -0.513444 -0.77502 -0.466957 -0.425787 -0.780847 -0.488994 -0.388796 -0.771762 -0.498183 -0.395218 -0.883589 -0.4349 -0.173588 -0.808551 -0.485747 -0.332108 -0.808721 -0.481143 -0.338338 -0.923628 0.0368808 -0.381512 -0.124138 0.947726 0.293947 -0.128046 0.952564 0.276089 -0.149131 0.946504 0.286166 -0.153987 0.866851 0.474192 0.55145 0.459909 0.695979 0.585216 0.446345 0.676978 0.622539 0.437554 0.648838 0.626473 0.443398 0.641038 0.625789 0.451639 0.635933 0.522274 0.471713 0.710434 0.583803 0.495789 0.642937 0.550241 0.428784 0.716505 0.673059 0.112093 0.731045 0.630678 -0.311078 0.710968 0.532903 -0.491264 0.688966 0.587788 -0.479229 0.651802 0.560646 -0.44347 0.699293 0.488004 -0.421336 0.764413 0.63392 -0.436851 0.638205 -0.151398 -0.948176 0.279359 -0.124852 -0.957652 0.259452 -0.128682 -0.976211 0.174509 0.217275 -0.975501 -0.0344863 0.288175 -0.957576 0.00158904 0.286479 -0.958064 -0.00663124 0.314954 -0.948788 -0.0246048 0.334398 -0.435052 0.836007 0.378416 -0.432233 0.818521 0.374621 -0.480015 0.79325 0.342379 -0.475748 0.81021 0.382349 0.480969 0.788972 0.403928 0.474214 0.782281 0.373616 0.444466 0.814163 0.32867 0.434507 0.838558 0.367348 0.444572 0.816952 0.685558 0.399002 0.60894 0.308081 0.950696 -0.0355431 0.206408 0.977987 0.0306082 0.287959 0.957515 0.0156324 0.032922 -0.00291873 -0.999454 0.336443 0.232087 -0.912656 0.0807174 -0.484037 -0.871317 0.00894329 -0.484874 -0.874538 -0.160215 -0.441934 -0.882624 0.00252996 -0.49764 -0.86738 -0.0416834 -0.114168 -0.992587 -0.152772 -0.42655 -0.891468 -0.0189859 0.314046 -0.949218 -0.0600963 0.497148 -0.865582 0.0236107 0.481318 -0.876228 0.188397 0.449248 -0.873317 -0.0172585 0.45903 -0.888253 0.925299 -0.28659 -0.24837 0.561064 -0.632204 -0.534346 -0.100387 -0.971579 -0.214374 -0.104278 -0.970191 -0.218759 -0.125925 -0.966455 -0.223848 -0.122581 -0.972727 -0.196918 -0.217146 -0.95198 -0.215828 -0.128289 -0.991691 -0.00952964 -0.647246 0.492519 0.581805 -0.622739 0.491677 0.608646 -0.142198 0.972341 -0.18529 -0.14872 0.959762 -0.238201 -0.115198 0.959715 -0.256273 -0.0351129 0.988565 -0.146653 0.939527 -0.338483 -0.0521432 0.840403 -0.483327 -0.245188 0.834473 -0.469366 -0.288704 0.360243 -0.882699 -0.301773 0.242415 -0.95843 -0.150489 0.182776 -0.94081 -0.285429 0.0164922 -0.952329 -0.304626 0.0950266 -0.914555 -0.39314 0.179713 -0.952371 -0.246358 0.215379 -0.482623 -0.848933 0.0231103 -0.462001 -0.886578 -0.278215 -0.957905 -0.0708074 -0.556756 -0.829701 -0.0402341 0.303978 -0.498101 0.812092 0.140657 0.419993 0.896561 0.0437873 0.44282 0.895541 -0.410192 -0.317412 -0.854981 -0.197195 -0.971411 0.132192 -0.480023 -0.857139 0.186788 0.0171369 -0.0134876 0.999762 0.630808 0.286846 0.720972 -0.657983 -0.285184 -0.696943 -0.333849 -0.0900818 -0.938312 -0.479277 0.0887722 -0.873163 -0.460195 0.0718367 -0.884907 0.293862 0.944252 -0.148437 0.361786 0.909295 -0.205652 -0.415199 0.638717 -0.647805 -0.325106 -0.43814 -0.838057 -0.443871 -0.437639 -0.781953 -0.44346 -0.487307 -0.752247 -0.464757 -0.480859 -0.743489 -0.439328 0.483245 -0.757275 -0.44088 0.483868 -0.755974 -0.537562 0.438868 -0.720015 -0.359551 -0.711279 -0.603991 -0.0347153 0.371182 -0.927911 0.292359 -0.943362 -0.156827 0.311844 -0.934031 -0.17418 -0.512239 -0.0798611 -0.855122 -0.46977 -0.0821114 -0.878962 -0.457269 -0.0782175 -0.885882 -0.434399 0.879532 0.194221 -0.232709 0.961033 0.149204 -0.284322 0.951237 -0.119619 -0.373801 0.922431 -0.0969182 -0.367441 0.929513 -0.0315009 -0.65213 0.751929 0.0965849 -0.865202 0.477584 -0.152771 -0.836968 0.465882 -0.28712 -0.830368 0.495447 -0.254992 -0.850218 0.441373 -0.286914 -0.0562626 0.959741 -0.275195 -0.28337 0.876767 -0.388563 0.0933534 0.914766 -0.393049 0.123163 0.928826 -0.349446 0.144548 0.949622 -0.278071 0.271039 0.886995 -0.373868 0.744192 -0.386111 0.545066 0.745689 -0.386671 0.542616 -0.595424 0.406494 -0.692988 -0.584815 0.380172 -0.716562 -0.663504 0.349445 -0.661551 0.324798 0.908133 -0.264199 0.346228 0.891115 -0.293328 0.690673 0.582621 0.428397 0.663228 0.622541 0.415417 0.459483 -0.357303 0.813148 0.411015 -0.343219 0.844552 -0.365233 0.294714 -0.883034 -0.699243 0.129573 -0.703043 -0.584363 -0.0828025 -0.807257 -0.597709 -0.0707079 -0.798589 -0.316602 -0.928859 0.192313 -0.262781 -0.946727 0.186154 -0.259513 -0.946111 0.193718 -0.277219 -0.945641 0.170038 -0.339091 -0.898356 0.279236 -0.35744 -0.864455 -0.353488 -0.625279 0.371624 -0.686237 -0.504319 0.457867 -0.732134 -0.513215 0.463582 -0.722289 -0.489449 0.412593 -0.768249 -0.479534 0.488472 -0.729 -0.47533 0.486486 -0.733071 -0.574632 0.321717 -0.752527 -0.496626 -0.484083 -0.720435 -0.481641 -0.489067 -0.727211 -0.453388 -0.461882 -0.762302 -0.634168 -0.431354 -0.64169 -0.525386 -0.432073 -0.732996 -0.404741 0.839865 -0.361679 -0.373684 0.891943 0.254555 -0.228007 0.955384 0.18776 -0.277572 0.940122 0.1978 -0.5706 0.0816461 -0.81716 -0.590403 0.0830139 -0.802828 -0.598359 0.0802938 -0.797195 -0.933931 -0.247422 0.257982 -0.969029 -0.217284 -0.117351 -0.988775 -0.0272568 0.146908 -0.990556 -0.0321278 0.133289 -0.99797 0.000256963 0.0636833 -0.997848 -0.000968683 0.0655573 -0.998301 0.057624 -0.00863952 -0.945279 0.300692 -0.126617 -0.95545 0.277149 0.101504 -0.956144 0.174375 0.235336 -0.926427 -0.0607882 0.371533 -0.924344 0.0524779 0.377935 -0.969518 -0.132646 0.206011 -0.965983 -0.077767 0.246634 -0.980148 -0.027381 0.196366 -0.996205 -0.0671742 0.0553517 -0.987467 -0.134697 0.0822587 -0.978199 -0.207491 0.00860514 -0.957369 -0.268821 0.105735 -0.994862 0.0963186 0.0311973 -0.965023 0.106107 0.239735 -0.970297 0.0947711 0.22258 -0.966274 0.241594 0.0891392 -0.979075 0.20341 -0.00612003 -0.97388 0.2101 -0.0861104 0.773142 -0.166335 -0.612033 0.784608 0.254312 -0.565434 0.7888 0.248665 -0.562103 0.754198 -0.260034 -0.602966 0.776544 -0.258312 -0.574678 0.774108 -0.258553 -0.577847 0.728119 -0.332158 -0.599595 0.728716 0.329954 -0.600086 0.748213 0.274821 -0.603863 0.810044 0.169551 -0.561321 0.798966 -0.23725 -0.552599 0.812602 -0.144551 -0.564609 0.813178 -0.145935 -0.563423 0.7534 -0.25767 -0.604975 0.813048 -0.145946 -0.563607 0.656917 0.0568049 -0.75182 0.820312 -0.063629 -0.568366 0.839699 -0.0454729 -0.541145 0.803593 -0.0848639 -0.589098 0.77612 0.395113 -0.491451 0.845898 -0.0925691 -0.52525 0.831923 -0.143541 -0.536003 0.820414 -0.250757 -0.513851 0.818713 -0.229978 -0.526136 0.78696 -0.370476 -0.493397 0.76929 -0.403249 -0.495563 0.843115 0.0363501 -0.536504 0.840895 0.04843 -0.539027 0.833274 0.140251 -0.534774 0.833143 0.140653 -0.534874 0.817609 0.256757 -0.515356 0.807196 0.280149 -0.519568 0.778671 0.377399 -0.501241 -0.752317 -0.1507 -0.641333 -0.761141 0.25689 -0.595543 -0.975405 0.0191861 -0.219583 -0.959577 0.0673954 -0.273258 -0.943276 0.0746638 -0.323506 -0.978382 -0.0251361 -0.205273 -0.978829 0.0153987 -0.204101 -0.990253 0.00181012 -0.139269 -0.83858 -0.308833 -0.448783 -0.756173 -0.281829 -0.590572 -0.774141 -0.00877827 -0.632952 -0.714783 0.176788 -0.676632 -0.850762 0.226076 -0.474441 -0.937638 0.0986546 -0.33332 -0.917688 0.142972 -0.370685 -0.896597 0.146467 -0.417925 -0.861254 0.0905692 -0.500038 -0.978427 -0.0209649 -0.205526 -0.913838 -0.00282815 -0.40607 -0.861566 0.0730843 -0.502357 -0.848956 -0.195185 -0.491098 -0.842972 -0.204559 -0.497548 -0.701129 -0.156814 -0.695577 -0.788216 -0.189089 -0.585628 -0.906791 -0.159284 -0.390331 -0.840071 -0.0584353 -0.539319 -0.918623 -0.0447941 -0.392587 -0.913174 -0.0574629 -0.403499 -0.975987 -0.0421096 -0.213721 -0.714009 0.173904 -0.678195 -0.840206 0.301077 -0.451006 -0.822146 0.306581 -0.479672 -0.767422 0.286787 -0.573426 -0.780678 0.191872 -0.59475 -0.76385 0.0793454 -0.640498 -0.762592 0.0665511 -0.643448 -0.778479 0.0455738 -0.626014 -0.775325 0.017946 -0.631308 -0.773801 0.00164193 -0.633426 -0.722671 -0.168023 -0.670459 -0.809831 0.161656 -0.563952 -0.811704 0.145672 -0.565612 -0.82121 0.0207174 -0.57025 -0.820652 -0.0420746 -0.569877 -0.779518 -0.0561115 -0.623861 -0.768136 -0.0653132 -0.636947 0.311423 -0.284685 -0.906626 0.484802 -0.296707 -0.822759 0.477185 -0.258384 -0.839959 0.626537 -0.170634 -0.760484 0.741659 0.0108663 -0.670689 0.738028 -0.0305978 -0.674076 0.757828 -0.00180641 -0.652452 0.741365 -0.00689293 -0.671066 0.738324 0.027773 -0.673874 0.731748 0.0320108 -0.680823 0.716656 0.165404 -0.677529 0.537319 0.263484 -0.801164 0.566152 0.222689 -0.793651 0.567423 0.204353 -0.797666 0.281173 0.230636 -0.93153 0.272696 0.246643 -0.929948 0.35025 0.2259 -0.909007 0.396598 0.163988 -0.903227 0.432416 0.0887762 -0.897293 0.537578 0.0469627 -0.841905 0.527975 0.0474075 -0.847936 0.524409 -0.00492951 -0.851452 0.362113 -0.0273076 -0.931734 0.279313 -0.215849 -0.935624 0.393757 0.156538 -0.905788 0.452761 0.321235 -0.831755 0.494847 -0.0502121 -0.867528 0.542793 -0.0765876 -0.836367 0.530067 -0.0310382 -0.847387 0.51587 -0.205361 -0.831688 0.495646 -0.191353 -0.847183 0.420871 -0.177632 -0.889558 0.63742 -0.0632838 -0.767913 0.626942 -0.0516561 -0.777351 0.627042 0.048508 -0.777474 0.614647 0.0654492 -0.786082 0.624923 0.134951 -0.768934 0.598629 0.173943 -0.781913 -0.441696 0.122797 -0.888721 -0.530896 -0.163948 -0.831427 -0.472613 -0.0724388 -0.878288 -0.254685 0.0413958 -0.966138 -0.229996 0.0344821 -0.97258 -0.157326 0.00794841 -0.987515 0.264564 -0.193728 -0.944709 -0.448361 0.0645227 -0.891521 -0.657806 0.0636634 -0.750492 -0.688208 -0.0615136 -0.722901 -0.755986 -0.0433412 -0.653151 -0.769721 -0.0376982 -0.637267 -0.826142 -0.00464282 -0.563442 -0.967523 0.198819 -0.156111 -0.645474 -0.0344769 -0.763004 -0.568397 0.131517 -0.812175 -0.577359 0.0919281 -0.811299 -0.547123 0.0394341 -0.836123 -0.559618 -0.0230162 -0.828431 -0.598382 -0.0500798 -0.799645 -0.586012 -0.130713 -0.79969 -0.480446 -0.12338 -0.868303 -0.421157 -0.041832 -0.906023 -0.413976 0.0295824 -0.909807 -0.349241 0.0602066 -0.935097 -0.529631 0.166733 -0.83168 -0.31449 -0.0467333 -0.94811 -0.220896 0.28292 -0.93336 0.248676 0.0320157 -0.968058 -0.234518 -0.000258371 -0.972112 -0.233763 0.0134451 -0.972201 -0.213727 -0.284654 -0.934501 0.251726 -0.0364666 -0.967111 0.128527 -0.0868805 -0.987893 0.138765 -0.090175 -0.986211 0.26248 0.0174165 -0.96478 0.269741 -0.00922101 -0.962889 0.318783 0.00137738 -0.947827 -0.0899175 0.272219 -0.958025 -0.246608 0.063293 -0.967046 -0.226783 0.0449505 -0.972907 -0.158685 0.0205347 -0.987116 -0.158412 -0.0621448 -0.985416 0.0495952 -0.27325 -0.960664 -0.0970699 -0.281559 -0.954621 -0.227257 -0.042846 -0.972892 -0.232735 -0.0181541 -0.972371 -0.233465 -0.0135675 -0.97227 0.264244 0.00566485 -0.964439 0.101381 -0.0322775 -0.994324 -0.00606316 -0.0218165 -0.999744 -0.0845602 -0.0757331 -0.993536 -0.179048 -0.0414949 -0.982965 -0.283123 -0.177521 -0.942511 -0.386129 -0.13781 -0.912092 -0.153749 -0.201089 -0.967432 -0.131749 -0.258365 -0.957021 -0.000701527 -0.147919 -0.988999 -0.0504846 -0.128407 -0.990436 -0.205994 -0.165382 -0.964477 -0.302045 -0.159719 -0.939818 -0.0546349 0.126364 -0.990478 -0.0560481 0.127938 -0.990197 0.106017 0.117447 -0.987404 -0.0516665 0.214957 -0.975256 -0.172454 0.253338 -0.951882 -0.30043 0.172319 -0.938109 -0.241998 0.145996 -0.95923 -0.231168 0.129518 -0.964254 -0.072802 0.0779006 -0.994299 0.149558 0.0342026 -0.988161 0.701009 -0.385529 -0.599962 0.696244 -0.462524 -0.548922 0.363434 -0.465784 -0.806822 0.298794 -0.438212 -0.847757 0.228906 -0.425266 -0.875643 0.214505 -0.37193 -0.903137 0.168624 -0.330796 -0.928515 -0.383868 0.292502 -0.875836 -0.897183 -0.433439 -0.0848091 -0.896486 -0.388906 -0.212286 -0.825416 -0.437184 0.357155 -0.78023 -0.391177 0.488079 -0.880955 0.239617 0.408048 -0.838083 0.151247 0.524158 -0.844073 0.134123 0.519183 -0.822764 0.245164 0.512791 -0.82795 0.233986 0.509656 -0.786525 0.369971 0.494469 -0.786258 0.370456 0.494531 -0.851138 -0.0448378 0.523024 -0.862464 -0.244011 0.443412 -0.854617 -0.257041 0.451176 -0.823237 -0.246715 0.511285 -0.823026 -0.257327 0.50637 -0.885825 -0.18672 0.424793 -0.842 -0.13354 0.522689 -0.842137 -0.13509 0.522069 -0.863577 0.249907 0.437928 -0.864202 0.251328 0.435877 -0.872773 0.0765015 0.482095 -0.857033 0.137683 0.496525 -0.780892 -0.39002 0.487947 -0.845737 0.00733693 0.53355 -0.850678 0.045629 0.523702 -0.813327 0.456299 0.360959 -0.816967 0.451937 0.358215 0.850377 0.51403 0.112395 0.857569 0.491321 0.152247 0.853519 0.495533 0.161097 0.845269 0.516243 0.137887 0.841448 0.484865 0.238475 0.841966 0.483852 0.238706 0.814388 0.497645 0.298533 0.853499 0.509803 0.107891 0.863854 0.503714 -0.00538315 0.852412 0.490756 -0.18042 0.804562 0.50144 -0.318178 -0.54766 -0.477804 0.686856 -0.612921 -0.522694 0.592553 -0.564317 0.725448 0.394045 -0.434843 0.824789 -0.361435 0.47969 0.34988 0.804663 0.458547 0.343363 0.819657 -0.700396 -0.407117 -0.58626 -0.553416 -0.33842 -0.761054 0.731039 0.402375 0.551068 0.765368 0.41468 0.492191 -0.859121 -0.491985 -0.140932 -0.816594 -0.460719 -0.347725 -0.579967 0.340948 -0.73986 -0.612934 0.330685 -0.717607 0.520858 -0.344427 0.781075 0.45153 -0.362518 0.815292 -0.236249 0.401251 -0.884977 -0.472311 0.332451 -0.816333 0.198045 -0.384627 0.901577 -0.0420098 0.50103 0.86441 0.275639 0.500298 -0.820808 0.0486247 0.453622 -0.889867 -0.45926 -0.357215 -0.813313 -0.382019 -0.334874 -0.861348 0.532671 4.07008e-05 0.846322 0.532683 1.11595e-05 0.846315 0.532677 5.27225e-05 0.846318 0.532663 -1.76133e-05 0.846327 0.532673 -2.21755e-07 0.846321 0.532684 1.14115e-05 0.846314 0.532682 9.56843e-06 0.846316 0.532687 1.67866e-05 0.846312 0.532661 -8.18403e-06 0.846329 0.532644 -0.000105874 0.846339 0.532682 0.000233197 0.846316 0.53258 -0.000143929 0.846379 0.532671 -4.64054e-06 0.846322 0.532667 -8.1424e-06 0.846325 0.53251 -0.000275258 0.846424 0.532894 0.000478864 0.846182 0.532521 -0.000120558 0.846417 0.53269 6.35866e-05 0.84631 0.532736 0.000158265 0.846282 0.532661 -1.03409e-05 0.846329 0.532637 -4.47259e-05 0.846344 0.532526 -0.000104615 0.846414 0.532543 -0.000272622 0.846403 0.532707 0.000103233 0.8463 0.532643 -8.4906e-05 0.84634 0.532658 -4.07779e-05 0.846331 0.532711 0.000100795 0.846297 0.532606 -0.000178322 0.846363 0.532486 -0.000118535 0.846439 0.532711 2.76566e-06 0.846297 0.53024 -0.000903744 0.847847 0.53362 0.000465501 0.845724 0.532438 -8.67676e-05 0.846469 0.533022 0.000115736 0.846101 0.532777 0.000283449 0.846256 0.53262 -0.000164941 0.846355 0.576412 0.0181398 0.816958 0.533619 0.00046479 0.845725 0.532489 -6.25648e-05 0.846437 0.53313 0.000166679 0.846033 -0.214457 0.966581 0.14046 -0.685761 0.670918 0.282137 -0.213906 0.939908 0.266115 0.00221368 0.999203 0.0398679 -0.720556 0.57598 -0.386064 -0.608315 0.643477 -0.46464 -0.622379 0.570021 -0.536396 -0.575776 0.313361 -0.755174 -0.525362 0.356059 -0.772798 0.0515724 0.990395 0.128285 -0.0764314 0.973347 0.216227 -0.0388252 0.985826 0.163218 -0.0379357 0.978198 0.204181 0.0594061 0.989405 0.13247 0.0367264 0.994839 0.0945886 -0.249655 0.930683 0.267397 -0.517096 0.76351 0.386865 -0.633367 0.674076 0.38009 -0.675945 0.569559 0.467655 -0.725176 0.520628 0.450629 -0.657442 0.643188 0.392529 -0.890683 0.441582 -0.108115 -0.856914 0.473728 -0.203176 -0.609798 0.765464 -0.205453 -0.739445 0.59678 -0.311567 -0.609388 0.740326 -0.283836 -0.200424 0.967375 0.154971 -0.72325 0.534211 0.437638 -0.618876 0.672688 0.405565 -0.610486 0.694632 0.380518 -0.575219 0.792987 0.200735 -0.547136 0.794259 0.264185 -0.568026 0.804582 0.17319 -0.582108 0.812648 0.0274352 -0.587249 0.80855 0.0372175 -0.579555 0.799679 0.156938 -0.786022 0.602031 0.140456 -0.804571 0.581126 0.122306 -0.747192 0.655571 -0.109229 -0.856062 0.515474 -0.0380004 -0.308788 0.790072 -0.529563 -0.285637 0.895291 -0.341856 -0.290762 0.891873 -0.34644 -0.10035 0.983015 -0.153662 -0.0433103 0.998399 -0.0363685 -0.43326 0.901231 0.00824487 -0.449085 0.877717 0.167141 -0.458828 0.834055 0.306316 -0.465335 0.824553 0.321832 -0.443259 0.824242 0.352346 -0.430461 0.864375 0.259923 -0.581137 0.687729 -0.435096 -0.771888 0.596744 -0.219284 -0.743154 0.657943 -0.121795 -0.649056 0.751793 -0.116334 -0.604841 0.772785 -0.192279 -0.490595 0.858803 -0.147559 -0.43683 0.87575 -0.205527 -0.443101 0.670843 -0.594669 -0.314504 0.709396 -0.630749 -0.72721 0.45119 -0.517295 -0.707217 0.379282 -0.596648 -0.710451 0.437025 -0.551605 -0.556819 0.75769 -0.34038 -0.465387 0.840615 -0.277094 -0.147986 0.988942 0.00963799 -0.116142 0.990148 0.0782118 -0.082098 0.992834 0.0868355 -0.333952 0.942317 0.0226808 -0.27713 0.952048 -0.12963 -0.258406 0.956728 0.133786 -0.24141 0.969356 -0.0454962 -0.258531 0.959583 -0.11119 -0.226265 0.941555 0.249555 -0.186899 0.964919 0.184392 -0.0624175 0.983509 0.169744 -0.0539324 0.989056 0.13733 0.0394035 0.994585 0.0961705 0.00827975 0.999069 0.0423501 -0.542524 0.528017 -0.65335 -0.445682 0.727641 -0.521446 -0.457705 0.765228 -0.452694 -0.408132 0.832983 -0.373588 -0.433406 0.901162 0.00814826 -0.384662 0.899991 0.205063 -0.384938 0.889285 0.24697 0.29871 0.935276 -0.189818 0.0475031 0.934233 -0.353487 -0.155212 0.938824 -0.307439 0.647243 0.646031 -0.404624 -0.384494 0.313939 -0.868105 -0.118006 0.406495 -0.906 -0.0377879 0.364358 -0.930492 -0.0793082 0.600628 -0.795585 0.222737 0.49815 -0.837995 0.391074 0.471639 -0.790328 0.220594 0.500042 -0.837434 0.434728 0.720819 -0.539844 0.43517 0.701791 -0.564017 0.54726 0.587822 -0.595796 0.546677 0.524292 -0.652888 0.675579 0.527698 -0.514906 0.591086 0.607426 -0.530708 0.564104 0.687649 -0.457084 0.723703 0.51616 -0.458076 0.717476 0.525827 -0.456875 0.587842 0.724793 -0.359328 0.561507 0.759843 -0.327642 0.523908 0.795471 -0.304544 0.472549 0.847369 -0.242205 0.442441 0.868277 -0.224369 0.350277 0.928585 -0.122619 0.322494 0.939735 -0.113555 0.24727 0.968821 0.0155803 0.19968 0.979711 0.0171729 0.15117 0.984295 0.091162 0.150941 0.985479 0.0777671 -0.167676 0.931959 -0.32146 -0.0439488 0.99363 -0.103772 -0.0458592 0.993175 -0.107236 -0.465982 0.334041 -0.819315 -0.478952 0.352671 -0.803883 0.0613043 0.867636 -0.493406 -0.00165778 0.76399 -0.645226 -0.000974834 0.763167 -0.6462 -0.0713762 0.871167 -0.485771 0.127618 0.880732 -0.456097 0.105111 0.719833 -0.686143 0.0678094 0.621616 -0.780381 -0.161485 0.690171 -0.705398 -0.208928 0.334146 -0.919073 -0.24094 0.393527 -0.887178 -0.1694 0.499775 -0.849428 -0.260313 0.561073 -0.78577 -0.124009 0.444086 -0.887361 -0.146109 0.470842 -0.870035 -0.243003 0.457761 -0.855222 -0.115442 0.618974 -0.776881 -0.118988 0.697874 -0.706268 -0.0520299 0.756746 -0.651635 -0.0559687 0.911302 -0.407916 0.0184631 0.959312 -0.281743 0.31987 0.786501 -0.528299 0.0722928 0.818987 -0.569239 0.211801 0.765535 -0.607533 0.197724 0.833259 -0.516319 0.327677 0.910836 -0.251008 0.378217 0.883669 -0.275828 0.437269 0.830354 -0.345409 0.457345 0.819582 -0.345139 0.101129 0.994825 0.00981704 0.158523 0.987004 -0.0263409 0.0712703 0.997457 0.000817999 0.158969 0.978482 -0.131539 0.312569 0.843927 -0.435991 0.324588 0.789915 -0.520266 0.287105 0.900174 -0.327501 0.31572 0.846936 -0.42781 0.421899 0.810478 -0.406357 0.458923 0.746938 -0.481117 0.679286 0.425417 -0.597989 0.113658 0.961835 -0.248909 0.153374 0.932503 -0.326979 0.666192 0.623307 -0.409482 0.31163 0.94273 -0.118942 0.188781 0.98191 -0.0146238 0.10284 0.993335 0.052062 -0.38252 0.537497 -0.751516 -0.177274 0.821883 -0.541371 -0.256237 0.783298 -0.566381 -0.182593 0.853726 -0.487659 0.04853 0.995966 -0.0754769 0.131126 0.979285 -0.154295 0.216977 0.532241 -0.818316 0.271258 0.639138 -0.719668 -0.628785 -0.763691 -0.146306 -0.329581 -0.919241 -0.215342 -0.645015 -0.645616 0.408823 -0.606415 -0.76413 0.219922 -0.512859 -0.816086 0.266418 -0.72618 -0.515856 0.454483 -0.722293 -0.525806 0.449244 -0.565435 -0.738077 0.368137 -0.504017 -0.782542 0.365507 -0.42911 -0.849987 0.305593 -0.275717 -0.922649 0.269629 -0.250589 -0.937353 0.242023 -0.092673 -0.968902 0.229436 -0.0710027 -0.979645 0.18776 0.0285721 -0.982315 0.185041 0.00522251 -0.985213 0.171257 -0.553559 -0.338269 -0.761017 -0.615072 -0.311891 -0.724162 -0.766931 -0.336832 -0.546224 -0.703495 -0.55771 -0.440516 -0.848651 -0.448562 -0.280327 -0.630545 -0.759932 0.157848 -0.70899 -0.691856 0.136629 -0.732698 -0.642311 0.22492 -0.833398 -0.510117 0.212668 -0.756205 -0.519293 0.398107 -0.673531 -0.672348 0.307088 -0.679581 -0.6803 0.274519 -0.00605651 -0.999264 0.037886 -0.11008 -0.987115 -0.116135 -0.283474 -0.947969 -0.144903 -0.546992 -0.785689 -0.288951 -0.416664 -0.857592 -0.30154 -0.538831 -0.785311 -0.304872 -0.609699 -0.788165 -0.0840474 -0.548757 -0.808809 -0.211407 -0.735787 -0.619835 -0.272804 -0.574024 -0.701114 -0.423008 -0.561162 -0.692473 -0.453406 -0.712803 -0.469724 -0.520838 -0.59958 -0.549168 -0.582167 -0.706845 -0.470434 -0.528262 -0.31396 -0.944028 -0.101191 -0.614676 -0.78778 0.0396993 -0.809669 -0.545493 -0.216502 -0.40625 -0.892817 0.19452 -0.468669 -0.845993 0.254256 -0.519396 -0.812191 0.265658 -0.566121 -0.739555 0.364095 -0.0285246 -0.997334 0.0671671 -0.108257 -0.987519 0.1144 -0.0257352 -0.998335 0.0516198 -0.182539 -0.979887 0.0806351 -0.588389 -0.804698 0.0791128 -0.229083 -0.966345 0.117037 -0.409814 -0.9039 0.122549 -0.392984 -0.913268 0.107258 -0.461563 -0.693866 -0.55273 -0.444417 -0.778504 -0.443199 -0.427096 -0.773045 -0.469032 -0.293427 -0.955605 -0.0268383 -0.394313 -0.918397 0.032619 -0.657233 -0.623537 0.423375 -0.250756 -0.935937 0.247272 -0.201849 -0.959532 0.196353 -0.0850941 -0.982839 0.163668 -0.0888659 -0.980971 0.17262 -0.00109323 -0.993222 0.11623 -0.00322893 -0.992324 0.12362 -0.498205 -0.508883 -0.702019 -0.500597 -0.538019 -0.678187 -0.428698 -0.655524 -0.621696 -0.229086 -0.944203 -0.236644 -0.134046 -0.987434 -0.0836998 -0.11628 -0.993166 0.0100402 -0.183282 -0.981645 0.0527407 -0.612212 -0.769743 -0.180811 -0.786665 -0.613885 -0.0656002 -0.796873 -0.604102 0.0073939 0.216516 -0.792396 -0.570289 -0.0587844 -0.382163 -0.922223 0.316569 -0.945658 -0.0742587 -0.384115 -0.311525 -0.869142 -0.496817 -0.296071 -0.815791 -0.440468 -0.331528 -0.834312 0.0967205 -0.989611 0.106372 0.181349 -0.982538 0.0416043 0.193398 -0.980182 0.0429053 0.0961968 -0.990143 0.101801 0.0654081 -0.994609 0.0804642 0.34749 -0.930969 -0.112013 0.647203 -0.671315 -0.361198 0.58386 -0.71387 -0.386649 0.716302 -0.555062 -0.422867 0.719695 -0.525068 -0.454248 0.473547 -0.809683 -0.34665 0.564215 -0.681602 -0.465919 0.577453 -0.643957 -0.501864 -0.0545316 -0.764991 -0.641728 -0.0434765 -0.575774 -0.816452 -0.15667 -0.645338 -0.747658 0.250098 -0.965712 -0.0696564 0.702167 -0.546021 -0.456971 0.633681 -0.67294 -0.381576 0.603054 -0.698562 -0.385146 0.53211 -0.782474 -0.323408 0.443606 -0.827346 -0.344547 0.426505 -0.759899 -0.490558 0.320294 -0.803056 -0.502507 0.436896 -0.762917 -0.476529 0.440125 -0.676575 -0.590369 0.526919 -0.614998 -0.586629 0.561699 -0.522518 -0.641459 0.561188 -0.516638 -0.646648 0.679447 -0.520344 -0.517294 0.679431 -0.520633 -0.517025 0.371951 -0.480759 -0.794055 0.286311 -0.634931 -0.717557 0.302107 -0.79065 -0.532545 -0.262311 -0.801678 -0.537127 -0.269565 -0.854784 -0.443485 -0.209864 -0.91492 -0.344787 -0.0843529 -0.989117 -0.120553 -0.0178982 -0.996924 -0.0763026 0.105929 -0.886614 -0.450217 0.167457 -0.884195 -0.436071 0.218976 -0.89721 -0.38349 0.509158 -0.824413 -0.247187 0.455136 -0.8501 -0.264919 -0.16648 -0.651388 -0.740256 0.133045 -0.548098 -0.825765 0.185753 -0.636523 -0.748554 0.148383 -0.72165 -0.676168 0.16246 -0.71617 -0.678755 0.0427553 -0.804155 -0.592879 -0.39926 -0.670438 -0.625384 -0.138941 -0.456275 -0.878925 -0.222405 -0.42757 -0.876196 -0.226684 -0.422965 -0.877334 -0.14775 -0.648835 -0.746447 -0.0035104 -0.769742 -0.638346 0.0827765 -0.996384 -0.0191539 0.166009 -0.982308 -0.0866725 0.135951 -0.990101 -0.034878 0.287014 -0.930113 -0.229158 0.237723 -0.929126 -0.28322 0.0263166 -0.944251 -0.328174 -0.0442353 -0.936552 -0.347727 0.266902 -0.950022 -0.161931 0.115644 -0.96972 -0.215103 0.0782727 -0.971492 -0.22378 0.0506747 -0.997702 0.0449827 -0.0960072 -0.950096 -0.296815 0.0238172 -0.99654 -0.0796297 -0.404165 -0.488776 -0.773142 -0.362867 -0.530817 -0.765873 -0.212904 -0.78852 -0.576982 -0.20897 -0.789019 -0.577737 -0.111505 -0.846163 -0.521129 0.384374 -0.881495 -0.274267 0.435853 -0.874532 -0.212662</float_array>
                    <technique_common>
                        <accessor count="1100" source="#shape0-lib-normals-array" stride="3">
                            <param name="X" type="float"/>
                            <param name="Y" type="float"/>
                            <param name="Z" type="float"/>
                        </accessor>
                    </technique_common>
                </source>
                <vertices id="shape0-lib-vertices">
                    <input semantic="POSITION" source="#shape0-lib-positions"/>
                </vertices>
                <triangles count="1100">
                    <input offset="0" semantic="VERTEX" source="#shape0-lib-vertices"/>
                    <input offset="1" semantic="NORMAL" source="#shape0-lib-normals"/>
                    <p>24 0 1 0 2 0 2 1 3 1 25 1 6 2 5 2 43 2 6 3 43 3 42 3 42 4 43 4 7 4 43 5 8 5 7 5 7 6 8 6 9 6 9 7 8 7 10 7 9 8 10 8 11 8 12 9 50 9 49 9 46 10 13 10 14 10 16 11 13 11 20 11 16 12 20 12 15 12 17 13 15 13 18 13 18 14 15 14 19 14 16 15 15 15 17 15 47 16 20 16 13 16 20 17 22 17 21 17 21 18 22 18 388 18 22 19 23 19 3 19 3 20 23 20 25 20 382 21 1 21 24 21 27 22 24 22 2 22 2 23 25 23 27 23 27 24 26 24 29 24 30 25 31 25 32 25 31 26 30 26 28 26 44 27 33 27 32 27 34 28 33 28 44 28 38 29 35 29 33 29 35 30 38 30 36 30 35 31 36 31 0 31 0 32 36 32 533 32 33 33 34 33 37 33 37 34 38 34 33 34 51 35 37 35 34 35 51 36 39 36 37 36 40 37 39 37 10 37 40 38 269 38 39 38 39 39 269 39 41 39 11 40 10 40 51 40 32 41 31 41 44 41 28 42 45 42 31 42 29 43 28 43 30 43 27 44 25 44 26 44 29 45 26 45 28 45 23 46 22 46 20 46 48 47 46 47 14 47 46 48 47 48 13 48 20 49 47 49 23 49 14 50 4 50 48 50 50 51 48 51 49 51 49 52 48 52 4 52 11 53 51 53 12 53 12 54 51 54 50 54 39 55 51 55 10 55 58 56 59 56 63 56 63 57 59 57 60 57 63 58 60 58 62 58 61 59 64 59 63 59 61 60 63 60 62 60 61 61 65 61 64 61 67 62 64 62 65 62 64 63 67 63 68 63 68 64 67 64 391 64 66 65 65 65 69 65 72 66 70 66 69 66 69 67 70 67 66 67 147 68 513 68 71 68 71 69 513 69 57 69 72 70 71 70 57 70 72 71 57 71 70 71 90 72 73 72 71 72 74 73 75 73 76 73 76 74 77 74 74 74 78 75 56 75 77 75 428 76 56 76 55 76 56 77 79 77 55 77 78 78 80 78 56 78 56 79 80 79 79 79 79 80 80 80 81 80 81 81 80 81 95 81 54 82 82 82 81 82 54 83 83 83 82 83 82 84 83 84 422 84 52 85 54 85 95 85 84 86 85 86 86 86 54 87 52 87 84 87 54 88 84 88 86 88 86 89 85 89 53 89 53 90 85 90 436 90 52 91 87 91 93 91 93 92 87 92 94 92 88 93 93 93 92 93 71 94 72 94 90 94 75 95 74 95 90 95 90 96 74 96 73 96 65 97 66 97 67 97 65 98 61 98 91 98 91 99 61 99 89 99 91 100 89 100 92 100 88 101 92 101 89 101 93 102 94 102 92 102 52 103 95 103 87 103 81 104 95 104 54 104 77 105 76 105 78 105 120 106 116 106 134 106 104 107 97 107 135 107 474 108 485 108 98 108 98 109 131 109 99 109 99 110 131 110 128 110 135 111 100 111 99 111 135 112 97 112 100 112 101 113 96 113 103 113 97 114 103 114 96 114 96 115 101 115 420 115 96 116 420 116 449 116 102 117 103 117 104 117 101 118 103 118 105 118 104 119 106 119 102 119 102 120 106 120 108 120 108 121 107 121 102 121 108 122 110 122 107 122 107 123 110 123 111 123 114 124 112 124 113 124 114 125 113 125 109 125 114 126 109 126 117 126 112 127 115 127 144 127 112 128 114 128 115 128 134 129 116 129 117 129 124 130 119 130 120 130 122 131 121 131 118 131 118 132 121 132 544 132 118 133 119 133 122 133 122 134 119 134 124 134 123 135 124 135 132 135 132 136 124 136 120 136 123 137 126 137 125 137 127 138 125 138 126 138 126 139 129 139 127 139 127 140 129 140 128 140 131 141 130 141 128 141 131 142 98 142 485 142 120 143 119 143 116 143 123 144 132 144 133 144 123 145 133 145 126 145 134 146 111 146 110 146 117 147 109 147 111 147 117 148 111 148 134 148 104 149 103 149 97 149 128 150 129 150 135 150 99 151 128 151 135 151 105 152 136 152 101 152 101 153 136 153 427 153 101 154 427 154 137 154 101 155 137 155 420 155 136 156 105 156 322 156 105 157 103 157 322 157 102 158 328 158 103 158 103 159 328 159 322 159 107 160 138 160 102 160 102 161 138 161 328 161 138 162 107 162 139 162 139 163 107 163 140 163 140 164 107 164 141 164 141 165 107 165 315 165 315 166 107 166 142 166 111 167 142 167 107 167 109 168 143 168 142 168 109 169 142 169 111 169 143 170 109 170 113 170 143 171 113 171 313 171 313 172 113 172 501 172 501 173 113 173 112 173 112 174 144 174 490 174 112 175 490 175 501 175 311 176 71 176 145 176 71 177 73 177 145 177 145 178 73 178 320 178 74 179 146 179 320 179 74 180 320 180 73 180 71 181 311 181 147 181 146 182 74 182 148 182 148 183 74 183 149 183 149 184 74 184 150 184 150 185 74 185 151 185 151 186 74 186 152 186 74 187 77 187 152 187 152 188 77 188 153 188 153 189 77 189 154 189 154 190 77 190 155 190 155 191 77 191 56 191 155 192 56 192 426 192 426 193 56 193 428 193 156 194 30 194 157 194 157 195 30 195 158 195 158 196 30 196 159 196 159 197 30 197 160 197 160 198 30 198 161 198 30 199 32 199 161 199 161 200 32 200 162 200 32 201 33 201 162 201 33 202 35 202 162 202 162 203 35 203 163 203 163 204 35 204 534 204 35 205 0 205 534 205 164 206 535 206 121 206 122 207 347 207 164 207 122 208 164 208 121 208 347 209 122 209 165 209 165 210 122 210 124 210 165 211 124 211 166 211 124 212 123 212 166 212 166 213 123 213 352 213 125 214 167 214 123 214 123 215 167 215 352 215 167 216 125 216 168 216 168 217 125 217 169 217 169 218 125 218 170 218 170 219 125 219 171 219 127 220 172 220 171 220 127 221 171 221 125 221 172 222 127 222 128 222 128 223 173 223 172 223 173 224 128 224 130 224 173 225 130 225 358 225 358 226 130 226 174 226 174 227 130 227 131 227 174 228 131 228 175 228 485 229 175 229 131 229 194 230 120 230 134 230 194 231 134 231 176 231 134 232 110 232 176 232 176 233 110 233 177 233 108 234 178 234 110 234 110 235 178 235 177 235 178 236 108 236 179 236 179 237 108 237 180 237 180 238 108 238 181 238 181 239 108 239 182 239 338 240 183 240 106 240 106 241 183 241 182 241 106 242 182 242 108 242 338 243 106 243 104 243 104 244 184 244 338 244 184 245 104 245 135 245 184 246 135 246 185 246 185 247 135 247 186 247 186 248 135 248 129 248 126 249 187 249 129 249 129 250 187 250 186 250 187 251 126 251 188 251 188 252 126 252 189 252 189 253 126 253 190 253 190 254 126 254 191 254 191 255 126 255 133 255 133 256 192 256 193 256 133 257 193 257 191 257 120 258 194 258 132 258 132 259 194 259 192 259 132 260 192 260 133 260 195 261 34 261 44 261 44 262 196 262 195 262 196 263 44 263 31 263 45 264 197 264 31 264 31 265 197 265 196 265 197 266 45 266 198 266 198 267 45 267 199 267 199 268 45 268 28 268 199 269 28 269 200 269 28 270 201 270 202 270 28 271 202 271 200 271 25 272 203 272 26 272 26 273 203 273 201 273 26 274 201 274 28 274 25 275 204 275 203 275 204 276 25 276 205 276 25 277 23 277 205 277 205 278 23 278 206 278 47 279 206 279 23 279 207 280 208 280 46 280 46 281 208 281 209 281 46 282 209 282 47 282 47 283 209 283 210 283 47 284 210 284 206 284 48 285 211 285 46 285 46 286 211 286 207 286 211 287 48 287 212 287 212 288 48 288 213 288 213 289 48 289 214 289 214 290 48 290 215 290 215 291 48 291 50 291 215 292 50 292 216 292 51 293 217 293 50 293 50 294 217 294 216 294 217 295 51 295 218 295 218 296 51 296 34 296 218 297 34 297 195 297 219 298 72 298 296 298 72 299 69 299 296 299 296 300 69 300 65 300 296 301 65 301 220 301 220 302 65 302 91 302 91 303 221 303 220 303 92 304 222 304 221 304 92 305 221 305 91 305 223 306 222 306 94 306 94 307 222 307 92 307 223 308 94 308 224 308 87 309 225 309 224 309 87 310 224 310 94 310 225 311 87 311 95 311 293 312 225 312 95 312 293 313 95 313 226 313 226 314 95 314 80 314 227 315 226 315 78 315 78 316 226 316 80 316 76 317 227 317 78 317 228 318 227 318 76 318 75 319 229 319 76 319 76 320 229 320 228 320 75 321 230 321 231 321 75 322 231 322 229 322 230 323 75 323 232 323 232 324 75 324 233 324 90 325 233 325 75 325 72 326 219 326 90 326 90 327 219 327 233 327 98 328 99 328 234 328 234 329 99 329 235 329 99 330 100 330 235 330 235 331 100 331 236 331 236 332 100 332 237 332 237 333 100 333 97 333 237 334 97 334 363 334 96 335 363 335 97 335 96 336 238 336 363 336 449 337 238 337 96 337 491 338 117 338 116 338 491 339 116 339 239 339 116 340 119 340 240 340 239 341 116 341 240 341 240 342 119 342 118 342 118 343 241 343 240 343 544 344 241 344 118 344 243 345 242 345 20 345 20 346 242 346 15 346 365 347 22 347 3 347 2 348 364 348 3 348 3 349 364 349 464 349 3 350 464 350 365 350 55 351 79 351 437 351 79 352 244 352 437 352 81 353 244 353 79 353 81 354 245 354 244 354 245 355 81 355 82 355 245 356 82 356 444 356 422 357 444 357 82 357 54 358 246 358 83 358 86 359 248 359 54 359 54 360 248 360 246 360 86 361 247 361 248 361 53 362 247 362 86 362 85 363 249 363 436 363 85 364 251 364 249 364 85 365 84 365 250 365 250 366 251 366 85 366 250 367 84 367 252 367 252 368 84 368 52 368 52 369 253 369 252 369 93 370 253 370 52 370 93 371 254 371 253 371 88 372 255 372 93 372 93 373 255 373 254 373 255 374 88 374 256 374 256 375 88 375 89 375 89 376 257 376 256 376 61 377 375 377 257 377 61 378 257 378 89 378 375 379 61 379 62 379 375 380 62 380 376 380 376 381 62 381 258 381 60 382 494 382 62 382 62 383 494 383 258 383 366 384 259 384 64 384 64 385 259 385 63 385 57 386 261 386 70 386 70 387 261 387 260 387 70 388 260 388 66 388 66 389 260 389 503 389 36 390 262 390 533 390 38 391 263 391 36 391 36 392 263 392 362 392 36 393 362 393 262 393 38 394 37 394 264 394 264 395 263 395 38 395 264 396 37 396 265 396 265 397 37 397 266 397 266 398 37 398 39 398 266 399 39 399 361 399 361 400 39 400 267 400 39 401 41 401 267 401 10 402 270 402 40 402 40 403 270 403 268 403 40 404 268 404 269 404 8 405 272 405 10 405 10 406 272 406 270 406 43 407 271 407 272 407 43 408 272 408 8 408 5 409 273 409 43 409 43 410 273 410 271 410 42 411 274 411 6 411 42 412 525 412 274 412 42 413 7 413 275 413 42 414 275 414 525 414 275 415 7 415 276 415 276 416 7 416 9 416 276 417 9 417 277 417 277 418 9 418 11 418 277 419 11 419 278 419 11 420 279 420 278 420 12 421 279 421 11 421 49 422 280 422 12 422 12 423 280 423 281 423 12 424 281 424 279 424 4 425 282 425 49 425 49 426 282 426 280 426 282 427 4 427 283 427 283 428 4 428 284 428 284 429 4 429 14 429 14 430 285 430 284 430 13 431 286 431 14 431 14 432 286 432 285 432 286 433 13 433 287 433 287 434 13 434 16 434 287 435 16 435 288 435 288 436 16 436 289 436 289 437 16 437 303 437 17 438 469 438 16 438 16 439 469 439 303 439 290 440 220 440 221 440 219 441 296 441 233 441 232 442 291 442 230 442 230 443 291 443 292 443 230 444 292 444 231 444 231 445 292 445 229 445 229 446 292 446 228 446 226 447 227 447 293 447 293 448 224 448 225 448 294 449 223 449 224 449 295 450 221 450 222 450 295 451 222 451 223 451 290 452 221 452 291 452 291 453 221 453 295 453 291 454 295 454 292 454 232 455 233 455 291 455 291 456 233 456 290 456 290 457 233 457 296 457 290 458 296 458 220 458 228 459 292 459 294 459 294 460 292 460 295 460 294 461 295 461 223 461 294 462 224 462 293 462 294 463 293 463 228 463 228 464 293 464 227 464 281 465 280 465 297 465 298 466 285 466 289 466 289 467 285 467 288 467 281 468 297 468 279 468 275 469 276 469 297 469 297 470 276 470 277 470 278 471 279 471 277 471 287 472 288 472 286 472 286 473 288 473 285 473 284 474 285 474 298 474 275 475 297 475 299 475 299 476 297 476 300 476 300 477 297 477 301 477 277 478 279 478 297 478 297 479 280 479 301 479 301 480 280 480 282 480 301 481 282 481 300 481 283 482 305 482 300 482 283 483 300 483 282 483 302 484 303 484 304 484 300 485 305 485 306 485 300 486 306 486 299 486 299 487 306 487 275 487 275 488 306 488 307 488 275 489 307 489 308 489 525 490 275 490 308 490 305 491 283 491 309 491 309 492 283 492 284 492 309 493 284 493 310 493 310 494 284 494 298 494 310 495 298 495 302 495 302 496 298 496 289 496 302 497 289 497 303 497 314 498 315 498 313 498 316 499 427 499 317 499 151 500 152 500 318 500 318 501 152 501 319 501 318 502 319 502 324 502 150 503 318 503 149 503 149 504 318 504 146 504 149 505 146 505 148 505 312 506 311 506 145 506 313 507 501 507 312 507 321 508 140 508 141 508 322 509 329 509 136 509 317 510 323 510 155 510 319 511 154 511 324 511 324 512 154 512 155 512 324 513 155 513 323 513 324 514 323 514 325 514 150 515 151 515 318 515 318 516 324 516 326 516 326 517 324 517 325 517 314 518 312 518 145 518 314 519 145 519 327 519 315 520 142 520 143 520 313 521 312 521 314 521 320 522 327 522 145 522 314 523 327 523 326 523 326 524 327 524 320 524 326 525 320 525 318 525 318 526 320 526 146 526 328 527 329 527 322 527 155 528 426 528 317 528 317 529 426 529 316 529 427 530 136 530 317 530 317 531 136 531 329 531 329 532 328 532 325 532 325 533 328 533 138 533 325 534 138 534 321 534 321 535 138 535 139 535 321 536 139 536 140 536 315 537 143 537 313 537 323 538 317 538 329 538 323 539 329 539 325 539 326 540 325 540 321 540 326 541 321 541 314 541 314 542 321 542 141 542 314 543 141 543 315 543 330 544 218 544 195 544 218 545 330 545 216 545 218 546 216 546 217 546 337 547 215 547 216 547 213 548 214 548 331 548 331 549 214 549 215 549 212 550 213 550 211 550 211 551 213 551 331 551 211 552 331 552 207 552 207 553 331 553 332 553 207 554 332 554 208 554 206 555 210 555 333 555 333 556 210 556 209 556 333 557 209 557 334 557 201 558 203 558 205 558 205 559 203 559 204 559 205 560 333 560 201 560 201 561 333 561 334 561 334 562 200 562 202 562 200 563 334 563 199 563 199 564 334 564 335 564 199 565 335 565 198 565 197 566 336 566 196 566 330 567 195 567 196 567 334 568 202 568 201 568 333 569 205 569 206 569 337 570 336 570 335 570 335 571 336 571 197 571 335 572 197 572 198 572 337 573 216 573 330 573 337 574 330 574 336 574 336 575 330 575 196 575 215 576 337 576 331 576 331 577 337 577 335 577 331 578 335 578 332 578 332 579 335 579 334 579 332 580 334 580 208 580 208 581 334 581 209 581 186 582 340 582 185 582 194 583 176 583 342 583 192 584 342 584 341 584 193 585 187 585 188 585 188 586 189 586 193 586 193 587 189 587 190 587 193 588 190 588 191 588 340 589 186 589 341 589 338 590 339 590 183 590 177 591 178 591 183 591 183 592 178 592 179 592 179 593 180 593 183 593 183 594 180 594 181 594 183 595 181 595 182 595 183 596 339 596 177 596 338 597 184 597 340 597 338 598 340 598 339 598 339 599 340 599 341 599 339 600 341 600 342 600 339 601 342 601 177 601 177 602 342 602 176 602 194 603 342 603 192 603 192 604 341 604 193 604 193 605 341 605 186 605 193 606 186 606 187 606 184 607 185 607 340 607 167 608 351 608 352 608 344 609 358 609 174 609 349 610 359 610 156 610 169 611 170 611 346 611 346 612 170 612 171 612 164 613 347 613 348 613 160 614 161 614 349 614 349 615 161 615 162 615 349 616 162 616 350 616 159 617 349 617 158 617 158 618 349 618 156 618 158 619 156 619 157 619 357 620 344 620 345 620 171 621 172 621 343 621 171 622 343 622 346 622 346 623 343 623 353 623 346 624 353 624 351 624 162 625 163 625 355 625 355 626 163 626 348 626 351 627 167 627 346 627 346 628 167 628 168 628 346 629 168 629 169 629 159 630 160 630 349 630 356 631 349 631 350 631 356 632 350 632 353 632 353 633 350 633 354 633 353 634 354 634 351 634 352 635 351 635 165 635 352 636 165 636 166 636 354 637 355 637 347 637 347 638 355 638 348 638 350 639 162 639 355 639 350 640 355 640 354 640 354 641 347 641 351 641 351 642 347 642 165 642 360 643 356 643 343 643 360 644 343 644 357 644 359 645 356 645 360 645 345 646 360 646 357 646 344 647 357 647 358 647 173 648 358 648 172 648 172 649 358 649 357 649 172 650 357 650 343 650 353 651 343 651 356 651 356 652 359 652 349 652 539 653 270 653 272 653 539 654 272 654 271 654 542 655 266 655 361 655 266 656 542 656 265 656 265 657 542 657 362 657 265 658 362 658 264 658 362 659 263 659 264 659 236 660 234 660 235 660 516 661 503 661 260 661 516 662 260 662 261 662 366 663 506 663 259 663 258 664 367 664 368 664 252 665 253 665 254 665 369 666 379 666 370 666 370 667 379 667 371 667 370 668 371 668 250 668 250 669 371 669 372 669 250 670 372 670 251 670 251 671 372 671 373 671 378 672 255 672 256 672 374 673 257 673 375 673 374 674 375 674 376 674 374 675 376 675 368 675 374 676 368 676 377 676 257 677 374 677 256 677 256 678 374 678 377 678 256 679 377 679 378 679 250 680 252 680 254 680 250 681 254 681 370 681 254 682 255 682 369 682 254 683 369 683 370 683 368 684 376 684 258 684 255 685 378 685 379 685 255 686 379 686 369 686 248 687 247 687 423 687 248 688 423 688 246 688 380 689 24 689 345 689 345 690 24 690 27 690 345 691 27 691 360 691 360 692 27 692 359 692 359 693 27 693 29 693 359 694 29 694 30 694 359 695 30 695 156 695 380 696 381 696 24 696 24 697 381 697 382 697 98 698 234 698 383 698 98 699 383 699 474 699 114 700 385 700 115 700 115 701 385 701 384 701 117 702 385 702 114 702 385 703 117 703 491 703 386 704 15 704 242 704 15 705 386 705 19 705 20 706 21 706 387 706 20 707 387 707 243 707 22 708 365 708 463 708 22 709 463 709 388 709 2 710 1 710 481 710 2 711 481 711 364 711 59 712 493 712 60 712 60 713 493 713 494 713 389 714 58 714 63 714 63 715 259 715 389 715 68 716 390 716 64 716 64 717 390 717 366 717 67 718 503 718 391 718 66 719 503 719 67 719 57 720 513 720 517 720 57 721 517 721 261 721 18 722 468 722 17 722 17 723 468 723 469 723 306 724 305 724 379 724 379 725 394 725 392 725 308 726 307 726 379 726 379 727 307 727 306 727 402 728 393 728 378 728 378 729 393 729 379 729 379 730 393 730 394 730 305 731 397 731 398 731 373 732 372 732 305 732 305 733 372 733 371 733 305 734 371 734 379 734 379 735 392 735 395 735 406 736 396 736 305 736 305 737 396 737 397 737 305 738 398 738 399 738 305 739 399 739 400 739 378 740 401 740 402 740 395 741 403 741 379 741 379 742 403 742 404 742 379 743 405 743 308 743 309 744 411 744 305 744 305 745 411 745 406 745 400 746 407 746 305 746 305 747 407 747 408 747 305 748 415 748 373 748 413 749 401 749 378 749 404 750 409 750 379 750 379 751 409 751 405 751 417 752 410 752 309 752 309 753 410 753 411 753 368 754 367 754 377 754 377 755 367 755 412 755 377 756 412 756 378 756 378 757 412 757 413 757 408 758 414 758 305 758 305 759 414 759 415 759 302 760 304 760 310 760 310 761 304 761 416 761 310 762 416 762 309 762 309 763 416 763 417 763 418 764 451 764 419 764 53 765 442 765 423 765 400 766 432 766 425 766 447 767 450 767 452 767 429 768 426 768 428 768 428 769 420 769 429 769 429 770 420 770 137 770 237 771 363 771 238 771 237 772 238 772 458 772 398 773 397 773 431 773 432 774 400 774 399 774 432 775 399 775 398 775 432 776 398 776 433 776 433 777 398 777 431 777 433 778 431 778 434 778 425 779 408 779 407 779 414 780 424 780 415 780 415 781 424 781 435 781 415 782 435 782 373 782 373 783 435 783 251 783 53 784 423 784 247 784 244 785 245 785 443 785 244 786 443 786 437 786 438 787 55 787 439 787 439 788 55 788 437 788 438 789 428 789 55 789 425 790 407 790 400 790 251 791 435 791 249 791 249 792 435 792 424 792 249 793 424 793 436 793 442 794 53 794 448 794 448 795 53 795 436 795 442 796 448 796 441 796 440 797 422 797 441 797 441 798 422 798 83 798 441 799 83 799 442 799 442 800 83 800 423 800 423 801 83 801 246 801 443 802 444 802 422 802 245 803 444 803 443 803 474 804 445 804 459 804 459 805 445 805 456 805 459 806 456 806 455 806 430 807 455 807 446 807 446 808 450 808 447 808 454 809 440 809 441 809 453 810 441 810 448 810 448 811 436 811 425 811 425 812 436 812 424 812 425 813 424 813 408 813 408 814 424 814 414 814 421 815 420 815 428 815 437 816 443 816 439 816 439 817 443 817 422 817 439 818 422 818 440 818 439 819 440 819 438 819 438 820 440 820 454 820 438 821 454 821 456 821 445 822 474 822 458 822 445 823 458 823 449 823 429 824 316 824 426 824 137 825 427 825 316 825 137 826 316 826 429 826 428 827 438 827 421 827 421 828 438 828 456 828 450 829 446 829 419 829 419 830 451 830 450 830 450 831 451 831 452 831 453 832 419 832 454 832 454 833 455 833 456 833 453 834 418 834 419 834 454 835 419 835 446 835 454 836 446 836 455 836 418 837 425 837 432 837 418 838 432 838 451 838 451 839 432 839 433 839 451 840 433 840 452 840 452 841 433 841 434 841 452 842 434 842 447 842 458 843 238 843 449 843 445 844 449 844 420 844 445 845 420 845 421 845 445 846 421 846 456 846 453 847 454 847 441 847 418 848 453 848 448 848 418 849 448 849 425 849 488 850 484 850 471 850 475 851 457 851 430 851 455 852 457 852 459 852 417 853 469 853 468 853 236 854 383 854 234 854 380 855 344 855 460 855 345 856 344 856 380 856 382 857 381 857 461 857 463 858 364 858 481 858 464 859 463 859 365 859 464 860 364 860 463 860 21 861 465 861 467 861 21 862 467 862 387 862 387 863 467 863 466 863 387 864 466 864 243 864 242 865 466 865 386 865 386 866 466 866 467 866 19 867 386 867 467 867 304 868 303 868 416 868 416 869 303 869 469 869 417 870 468 870 18 870 417 871 18 871 410 871 410 872 18 872 470 872 410 873 470 873 411 873 411 874 470 874 471 874 411 875 471 875 406 875 406 876 471 876 472 876 406 877 472 877 396 877 396 878 472 878 473 878 396 879 473 879 431 879 396 880 431 880 397 880 457 881 455 881 430 881 447 882 487 882 446 882 446 883 487 883 430 883 383 884 236 884 237 884 383 885 237 885 458 885 475 886 476 886 462 886 475 887 462 887 382 887 382 888 462 888 1 888 486 889 457 889 475 889 476 890 480 890 462 890 1 891 462 891 477 891 1 892 477 892 481 892 486 893 478 893 485 893 344 894 174 894 460 894 460 895 174 895 175 895 460 896 175 896 478 896 478 897 175 897 485 897 381 898 380 898 460 898 381 899 460 899 461 899 461 900 460 900 478 900 461 901 478 901 382 901 382 902 478 902 486 902 382 903 486 903 475 903 476 904 475 904 430 904 476 905 430 905 487 905 21 906 388 906 479 906 479 907 388 907 477 907 479 908 477 908 462 908 479 909 462 909 480 909 482 910 488 910 471 910 482 911 471 911 470 911 482 912 470 912 19 912 19 913 470 913 18 913 434 914 473 914 483 914 483 915 473 915 484 915 447 916 434 916 483 916 483 917 484 917 488 917 479 918 480 918 465 918 479 919 465 919 21 919 480 920 488 920 482 920 480 921 482 921 465 921 465 922 482 922 19 922 465 923 19 923 467 923 466 924 242 924 243 924 476 925 487 925 488 925 476 926 488 926 480 926 417 927 416 927 469 927 472 928 471 928 484 928 472 929 484 929 473 929 431 930 473 930 434 930 383 931 458 931 474 931 485 932 474 932 459 932 485 933 459 933 486 933 486 934 459 934 457 934 487 935 447 935 483 935 487 936 483 936 488 936 481 937 477 937 463 937 463 938 477 938 388 938 515 939 391 939 514 939 510 940 521 940 509 940 413 941 494 941 493 941 58 942 505 942 504 942 58 943 504 943 59 943 367 944 258 944 412 944 412 945 258 945 494 945 413 946 493 946 495 946 413 947 495 947 401 947 401 948 495 948 496 948 401 949 496 949 402 949 402 950 496 950 497 950 402 951 497 951 393 951 393 952 497 952 498 952 393 953 498 953 499 953 393 954 499 954 394 954 492 955 384 955 491 955 491 956 384 956 385 956 501 957 311 957 312 957 147 958 311 958 502 958 516 959 261 959 517 959 68 960 504 960 505 960 68 961 505 961 390 961 390 962 505 962 506 962 390 963 506 963 366 963 259 964 506 964 389 964 505 965 58 965 506 965 506 966 58 966 389 966 507 967 508 967 528 967 508 968 509 968 545 968 522 969 512 969 510 969 510 970 513 970 147 970 511 971 521 971 510 971 511 972 510 972 147 972 513 973 512 973 514 973 510 974 512 974 513 974 513 975 514 975 517 975 147 976 502 976 511 976 511 977 502 977 144 977 501 978 490 978 502 978 502 979 490 979 144 979 311 980 501 980 502 980 510 981 509 981 522 981 68 982 391 982 515 982 514 983 516 983 517 983 504 984 489 984 496 984 504 985 496 985 495 985 504 986 495 986 59 986 59 987 495 987 493 987 507 988 518 988 519 988 519 989 518 989 520 989 508 990 507 990 519 990 519 991 520 991 523 991 515 992 504 992 68 992 520 993 489 993 523 993 523 994 489 994 515 994 515 995 489 995 504 995 115 996 500 996 144 996 144 997 500 997 521 997 144 998 521 998 511 998 512 999 522 999 523 999 512 1000 523 1000 515 1000 413 1001 412 1001 494 1001 497 1002 496 1002 489 1002 497 1003 489 1003 520 1003 497 1004 520 1004 498 1004 498 1005 520 1005 518 1005 498 1006 518 1006 499 1006 499 1007 518 1007 507 1007 384 1008 492 1008 529 1008 384 1009 529 1009 115 1009 115 1010 529 1010 500 1010 521 1011 545 1011 509 1011 509 1012 508 1012 522 1012 522 1013 508 1013 519 1013 522 1014 519 1014 523 1014 512 1015 515 1015 514 1015 516 1016 514 1016 391 1016 516 1017 391 1017 503 1017 537 1018 41 1018 538 1018 348 1019 163 1019 534 1019 395 1020 530 1020 527 1020 239 1021 240 1021 241 1021 492 1022 491 1022 239 1022 239 1023 241 1023 492 1023 392 1024 394 1024 499 1024 530 1025 395 1025 392 1025 530 1026 392 1026 531 1026 531 1027 392 1027 499 1027 531 1028 499 1028 507 1028 527 1029 404 1029 403 1029 409 1030 526 1030 532 1030 409 1031 532 1031 405 1031 405 1032 532 1032 308 1032 308 1033 532 1033 525 1033 6 1034 549 1034 5 1034 5 1035 541 1035 273 1035 273 1036 541 1036 540 1036 547 1037 0 1037 533 1037 0 1038 550 1038 534 1038 524 1039 535 1039 550 1039 527 1040 403 1040 395 1040 525 1041 532 1041 274 1041 274 1042 532 1042 526 1042 274 1043 526 1043 6 1043 6 1044 526 1044 549 1044 5 1045 549 1045 536 1045 541 1046 5 1046 536 1046 536 1047 538 1047 269 1047 536 1048 269 1048 541 1048 541 1049 269 1049 268 1049 541 1050 268 1050 540 1050 540 1051 268 1051 539 1051 539 1052 268 1052 270 1052 540 1053 539 1053 271 1053 540 1054 271 1054 273 1054 361 1055 267 1055 542 1055 542 1056 267 1056 41 1056 538 1057 41 1057 269 1057 500 1058 544 1058 552 1058 500 1059 552 1059 521 1059 521 1060 552 1060 545 1060 545 1061 546 1061 508 1061 508 1062 546 1062 528 1062 547 1063 537 1063 548 1063 548 1064 537 1064 538 1064 548 1065 538 1065 536 1065 549 1066 526 1066 404 1066 404 1067 526 1067 409 1067 121 1068 535 1068 524 1068 262 1069 362 1069 542 1069 262 1070 542 1070 41 1070 262 1071 41 1071 537 1071 262 1072 537 1072 533 1072 533 1073 537 1073 547 1073 529 1074 544 1074 500 1074 550 1075 348 1075 534 1075 164 1076 348 1076 535 1076 535 1077 348 1077 550 1077 550 1078 0 1078 524 1078 524 1079 0 1079 547 1079 531 1080 528 1080 543 1080 551 1081 530 1081 543 1081 543 1082 530 1082 531 1082 536 1083 527 1083 551 1083 536 1084 551 1084 548 1084 547 1085 548 1085 546 1085 547 1086 546 1086 552 1086 527 1087 530 1087 551 1087 548 1088 551 1088 543 1088 548 1089 543 1089 546 1089 531 1090 507 1090 528 1090 552 1091 546 1091 545 1091 546 1092 543 1092 528 1092 492 1093 241 1093 529 1093 529 1094 241 1094 544 1094 544 1095 121 1095 552 1095 552 1096 121 1096 524 1096 552 1097 524 1097 547 1097 527 1098 536 1098 549 1098 527 1099 549 1099 404 1099</p>
                </triangles>
            </mesh>
        </geometry>
    </library_geometries>
    <library_visual_scenes>
        <visual_scene id="VisualSceneNode" name="VisualScene">
            <node id="node" name="node">
                <instance_geometry url="#shape0-lib"/>
            </node>
        </visual_scene>
    </library_visual_scenes>
    <scene>
        <instance_visual_scene url="#VisualSceneNode"/>
    </scene>
</COLLADA>
