# WaveFront *.obj file (generated by Autodesk ATF)


g 본체1 (1)

v 0.000000 0.066500 0.155000
v 0.000000 0.066500 0.000000
v -0.233000 0.066500 0.000000
v -0.233000 0.066500 0.155000
v 0.000000 -0.063500 0.155000
v 0.000000 -0.063289 0.160230
v 0.000000 -0.062658 0.165427
v 0.000000 -0.061611 0.170556
v 0.000000 -0.060155 0.175583
v 0.000000 -0.058299 0.180478
v 0.000000 -0.056055 0.185207
v 0.000000 -0.053437 0.189740
v 0.000000 -0.050464 0.194048
v 0.000000 -0.047153 0.198103
v 0.000000 -0.043527 0.201878
v 0.000000 -0.039609 0.205349
v 0.000000 -0.035424 0.208494
v 0.000000 -0.031000 0.211292
v 0.000000 -0.026365 0.213724
v 0.000000 -0.021549 0.215776
v 0.000000 -0.016584 0.217434
v 0.000000 -0.011502 0.218686
v 0.000000 -0.006335 0.219526
v 0.000000 -0.001117 0.219947
v 0.000000 0.004117 0.219947
v 0.000000 0.009335 0.219526
v 0.000000 0.014502 0.218686
v 0.000000 0.019584 0.217434
v 0.000000 0.024549 0.215776
v 0.000000 0.029365 0.213724
v 0.000000 0.034000 0.211292
v 0.000000 0.038424 0.208494
v 0.000000 0.042609 0.205349
v 0.000000 0.046527 0.201878
v 0.000000 0.050153 0.198103
v 0.000000 0.053464 0.194048
v 0.000000 0.056437 0.189740
v 0.000000 0.059055 0.185207
v 0.000000 0.061299 0.180478
v 0.000000 0.063155 0.175583
v 0.000000 0.064611 0.170556
v 0.000000 0.065658 0.165427
v 0.000000 0.066289 0.160230
v -0.233000 0.066289 0.160230
v -0.233000 0.065658 0.165427
v -0.233000 0.064611 0.170556
v -0.233000 0.063155 0.175583
v -0.233000 0.061299 0.180478
v -0.233000 0.059055 0.185207
v -0.233000 0.056437 0.189740
v -0.233000 0.053464 0.194048
v -0.233000 0.050153 0.198103
v -0.233000 0.046527 0.201878
v -0.233000 0.042609 0.205349
v -0.233000 0.038424 0.208494
v -0.233000 0.034000 0.211292
v -0.233000 0.029365 0.213724
v -0.233000 0.024549 0.215776
v -0.233000 0.019584 0.217434
v -0.233000 0.014502 0.218686
v -0.233000 0.009335 0.219526
v -0.233000 0.004117 0.219947
v -0.233000 -0.001117 0.219947
v -0.233000 -0.006335 0.219526
v -0.233000 -0.011502 0.218686
v -0.233000 -0.016584 0.217434
v -0.233000 -0.021549 0.215776
v -0.233000 -0.026365 0.213724
v -0.233000 -0.031000 0.211292
v -0.233000 -0.035424 0.208494
v -0.233000 -0.039609 0.205349
v -0.233000 -0.043527 0.201878
v -0.233000 -0.047153 0.198103
v -0.233000 -0.050464 0.194048
v -0.233000 -0.053437 0.189740
v -0.233000 -0.056055 0.185207
v -0.233000 -0.058299 0.180478
v -0.233000 -0.060155 0.175583
v -0.233000 -0.061611 0.170556
v -0.233000 -0.062658 0.165427
v -0.233000 -0.063289 0.160230
v -0.233000 -0.063500 0.155000
v -0.116500 -0.063289 0.160230
v -0.116500 -0.062658 0.165427
v -0.116500 -0.061611 0.170556
v -0.116500 -0.060155 0.175583
v -0.116500 -0.058299 0.180478
v -0.116500 -0.056055 0.185207
v -0.116500 -0.053437 0.189740
v -0.116500 -0.050464 0.194048
v -0.116500 -0.047153 0.198103
v -0.116500 -0.043527 0.201878
v -0.116500 -0.039609 0.205349
v -0.116500 -0.035424 0.208494
v -0.116500 -0.031000 0.211292
v -0.116500 -0.026365 0.213724
v -0.116500 -0.021549 0.215776
v -0.116500 -0.016584 0.217434
v -0.116500 -0.011502 0.218686
v -0.116500 -0.006335 0.219526
v -0.116500 -0.001117 0.219947
v -0.116500 0.004117 0.219947
v -0.116500 0.009335 0.219526
v -0.116500 0.014502 0.218686
v -0.116500 0.019584 0.217434
v -0.116500 0.024549 0.215776
v -0.116500 0.029365 0.213724
v -0.116500 0.034000 0.211292
v -0.116500 0.038424 0.208494
v -0.116500 0.042609 0.205349
v -0.116500 0.046527 0.201878
v -0.116500 0.050153 0.198103
v -0.116500 0.053464 0.194048
v -0.116500 0.056437 0.189740
v -0.116500 0.059055 0.185207
v -0.116500 0.061299 0.180478
v -0.116500 0.063155 0.175583
v -0.116500 0.064611 0.170556
v -0.116500 0.065658 0.165427
v -0.116500 0.066289 0.160230
v 0.000000 -0.063500 0.000000
v -0.233000 -0.063500 0.000000
v 0.000000 -0.051500 0.000000
v -0.233000 -0.051500 0.000000
v 0.000000 -0.051500 0.020000
v -0.233000 -0.051500 0.020000
v 0.000000 -0.031500 0.020000
v -0.233000 -0.031500 0.020000
v 0.000000 -0.031500 0.010000
v -0.233000 -0.031500 0.010000
v 0.000000 -0.021500 0.010000
v -0.233000 -0.021500 0.010000
v 0.000000 -0.021500 0.000000
v -0.233000 -0.021500 0.000000
v 0.000000 0.021500 0.000000
v -0.233000 0.021500 0.000000
v 0.000000 0.021500 0.015000
v -0.233000 0.021500 0.015000
v 0.000000 0.041500 0.015000
v -0.233000 0.041500 0.015000
v 0.000000 0.041500 0.000000
v -0.233000 0.041500 0.000000
vt -0.000000 0.000000 0.000000
vt 15.500000 0.000000 0.000000
vt 0.000000 23.300000 0.000000
vt 15.500000 23.300000 0.000000
vt -23.300000 -20.420352 0.000000
vt -0.000000 -20.420352 0.000000
vt -11.650000 -19.896753 0.000000
vt -0.000000 -19.896753 0.000000
vt -11.650000 -19.373155 0.000000
vt -0.000000 -19.373155 0.000000
vt -11.650000 -18.849556 0.000000
vt -0.000000 -18.849556 0.000000
vt -11.650000 -18.325957 0.000000
vt -0.000000 -18.325957 0.000000
vt -11.650000 -17.802358 0.000000
vt -0.000000 -17.802358 0.000000
vt -11.650000 -17.278760 0.000000
vt -0.000000 -17.278760 0.000000
vt -11.650000 -16.755161 0.000000
vt -0.000000 -16.755161 0.000000
vt -11.650000 -16.231562 0.000000
vt -0.000000 -16.231562 0.000000
vt -11.650000 -15.707963 0.000000
vt -0.000000 -15.707963 0.000000
vt -11.650000 -15.184364 0.000000
vt -0.000000 -15.184364 0.000000
vt -11.650000 -14.660766 0.000000
vt -0.000000 -14.660766 0.000000
vt -11.650000 -14.137167 0.000000
vt -0.000000 -14.137167 0.000000
vt -11.650000 -13.613568 0.000000
vt -0.000000 -13.613568 0.000000
vt -11.650000 -13.089969 0.000000
vt -0.000000 -13.089969 0.000000
vt -11.650000 -12.566371 0.000000
vt -0.000000 -12.566371 0.000000
vt -11.650000 -12.042772 0.000000
vt -0.000000 -12.042772 0.000000
vt -11.650000 -11.519173 0.000000
vt -0.000000 -11.519173 0.000000
vt -11.650000 -10.995574 0.000000
vt -0.000000 -10.995574 0.000000
vt -11.650000 -10.471976 0.000000
vt -0.000000 -10.471976 0.000000
vt -11.650000 -9.948377 0.000000
vt -0.000000 -9.948377 0.000000
vt -11.650000 -9.424778 0.000000
vt -0.000000 -9.424778 0.000000
vt -11.650000 -8.901179 0.000000
vt -0.000000 -8.901179 0.000000
vt -11.650000 -8.377580 0.000000
vt -0.000000 -8.377580 0.000000
vt -11.650000 -7.853982 0.000000
vt -0.000000 -7.853982 0.000000
vt -11.650000 -7.330383 0.000000
vt -0.000000 -7.330383 0.000000
vt -11.650000 -6.806784 0.000000
vt -0.000000 -6.806784 0.000000
vt -11.650000 -6.283185 0.000000
vt -0.000000 -6.283185 0.000000
vt -11.650000 -5.759587 0.000000
vt -0.000000 -5.759587 0.000000
vt -11.650000 -5.235988 0.000000
vt -0.000000 -5.235988 0.000000
vt -11.650000 -4.712389 0.000000
vt -0.000000 -4.712389 0.000000
vt -11.650000 -4.188790 0.000000
vt -0.000000 -4.188790 0.000000
vt -11.650000 -3.665191 0.000000
vt -0.000000 -3.665191 0.000000
vt -11.650000 -3.141593 0.000000
vt -0.000000 -3.141593 0.000000
vt -11.650000 -2.617994 0.000000
vt -0.000000 -2.617994 0.000000
vt -11.650000 -2.094395 0.000000
vt -0.000000 -2.094395 0.000000
vt -11.650000 -1.570796 0.000000
vt -0.000000 -1.570796 0.000000
vt -11.650000 -1.047198 0.000000
vt -0.000000 -1.047198 0.000000
vt -11.650000 -0.523599 0.000000
vt -0.000000 -0.523599 0.000000
vt -0.000000 0.000000 0.000000
vt -23.300000 0.000000 0.000000
vt -23.300000 -0.523599 0.000000
vt -23.300000 -1.047198 0.000000
vt -23.300000 -1.570796 0.000000
vt -23.300000 -2.094395 0.000000
vt -23.300000 -2.617994 0.000000
vt -23.300000 -3.141593 0.000000
vt -23.300000 -3.665191 0.000000
vt -23.300000 -4.188790 0.000000
vt -23.300000 -4.712389 0.000000
vt -23.300000 -5.235988 0.000000
vt -23.300000 -5.759587 0.000000
vt -23.300000 -6.283185 0.000000
vt -23.300000 -6.806784 0.000000
vt -23.300000 -7.330383 0.000000
vt -23.300000 -7.853982 0.000000
vt -23.300000 -8.377580 0.000000
vt -23.300000 -8.901179 0.000000
vt -23.300000 -9.424778 0.000000
vt -23.300000 -9.948377 0.000000
vt -23.300000 -10.471976 0.000000
vt -23.300000 -10.995574 0.000000
vt -23.300000 -11.519173 0.000000
vt -23.300000 -12.042772 0.000000
vt -23.300000 -12.566371 0.000000
vt -23.300000 -13.089969 0.000000
vt -23.300000 -13.613568 0.000000
vt -23.300000 -14.137167 0.000000
vt -23.300000 -14.660766 0.000000
vt -23.300000 -15.184364 0.000000
vt -23.300000 -15.707963 0.000000
vt -23.300000 -16.231562 0.000000
vt -23.300000 -16.755161 0.000000
vt -23.300000 -17.278760 0.000000
vt -23.300000 -17.802358 0.000000
vt -23.300000 -18.325957 0.000000
vt -23.300000 -18.849556 0.000000
vt -23.300000 -19.373155 0.000000
vt -23.300000 -19.896753 0.000000
vt 0.000000 0.000000 0.000000
vt 15.500000 0.000000 0.000000
vt 0.000000 23.300000 0.000000
vt 15.500000 23.300000 0.000000
vt 0.000000 0.000000 0.000000
vt 1.200000 0.000000 0.000000
vt 0.000000 23.300000 0.000000
vt 1.200000 23.300000 0.000000
vt -0.000000 0.000000 0.000000
vt 2.000000 0.000000 0.000000
vt 0.000000 23.300000 0.000000
vt 2.000000 23.300000 0.000000
vt -0.000000 0.000000 0.000000
vt 2.000000 0.000000 0.000000
vt 0.000000 23.300000 0.000000
vt 2.000000 23.300000 0.000000
vt 0.000000 0.000000 0.000000
vt 1.000000 0.000000 0.000000
vt 0.000000 23.300000 0.000000
vt 1.000000 23.300000 0.000000
vt -0.000000 0.000000 0.000000
vt 1.000000 0.000000 0.000000
vt 0.000000 23.300000 0.000000
vt 1.000000 23.300000 0.000000
vt 0.000000 0.000000 0.000000
vt 1.000000 0.000000 0.000000
vt 0.000000 23.300000 0.000000
vt 1.000000 23.300000 0.000000
vt 0.000000 0.000000 0.000000
vt 4.300000 0.000000 0.000000
vt 0.000000 23.300000 0.000000
vt 4.300000 23.300000 0.000000
vt -0.000000 0.000000 0.000000
vt 1.500000 0.000000 0.000000
vt 0.000000 23.300000 0.000000
vt 1.500000 23.300000 0.000000
vt 0.000000 0.000000 0.000000
vt 2.000000 0.000000 0.000000
vt 0.000000 23.300000 0.000000
vt 2.000000 23.300000 0.000000
vt 0.000000 0.000000 0.000000
vt 1.500000 0.000000 0.000000
vt 0.000000 23.300000 0.000000
vt 1.500000 23.300000 0.000000
vt -0.000000 0.000000 0.000000
vt 2.500000 0.000000 0.000000
vt 0.000000 23.300000 0.000000
vt 2.500000 23.300000 0.000000
vt 4.000000 -11.000000 0.000000
vt 6.500000 -11.000000 0.000000
vt 4.000000 -9.500000 0.000000
vt -6.500000 4.500000 0.000000
vt -3.300000 -9.000000 0.000000
vt -5.300000 -9.000000 0.000000
vt -6.500000 -11.000000 0.000000
vt -5.300000 -11.000000 0.000000
vt 6.500000 4.500000 0.000000
vt -6.478923 5.023033 0.000000
vt 6.478923 5.023033 0.000000
vt -6.415827 5.542673 0.000000
vt 6.415827 5.542673 0.000000
vt -6.311122 6.055552 0.000000
vt 6.311122 6.055552 0.000000
vt -6.165487 6.558342 0.000000
vt 6.165487 6.558342 0.000000
vt -5.979866 7.047783 0.000000
vt 5.979866 7.047783 0.000000
vt -0.261729 10.994728 0.000000
vt 0.261729 10.994728 0.000000
vt 0.783488 10.952608 0.000000
vt 1.300167 10.868639 0.000000
vt 1.808414 10.743368 0.000000
vt 2.304932 10.577606 0.000000
vt 2.786502 10.372428 0.000000
vt 3.250000 10.129165 0.000000
vt 3.692421 9.849395 0.000000
vt 4.110895 9.534932 0.000000
vt 4.502708 9.187816 0.000000
vt 4.865320 8.810297 0.000000
vt 5.196378 8.404825 0.000000
vt 5.493736 7.974028 0.000000
vt 5.755464 7.520701 0.000000
vt -0.783488 10.952608 0.000000
vt -1.300167 10.868639 0.000000
vt -1.808414 10.743368 0.000000
vt -2.304932 10.577606 0.000000
vt -2.786502 10.372428 0.000000
vt -3.250000 10.129165 0.000000
vt -5.755464 7.520701 0.000000
vt -3.692421 9.849395 0.000000
vt -4.110895 9.534932 0.000000
vt -4.502708 9.187816 0.000000
vt -4.865320 8.810297 0.000000
vt -5.196378 8.404825 0.000000
vt -5.493736 7.974028 0.000000
vt -3.300000 -10.000000 0.000000
vt -2.300000 -10.000000 0.000000
vt 2.000000 -9.500000 0.000000
vt -2.300000 -11.000000 0.000000
vt 2.000000 -11.000000 0.000000
vt -4.000000 -11.000000 0.000000
vt -4.000000 -9.500000 0.000000
vt -6.500000 -11.000000 0.000000
vt -6.500000 4.500000 0.000000
vt 3.300000 -9.000000 0.000000
vt 5.300000 -9.000000 0.000000
vt -2.000000 -9.500000 0.000000
vt 2.300000 -10.000000 0.000000
vt 3.300000 -10.000000 0.000000
vt -2.000000 -11.000000 0.000000
vt 2.300000 -11.000000 0.000000
vt 5.300000 -11.000000 0.000000
vt 6.500000 -11.000000 0.000000
vt 6.500000 4.500000 0.000000
vt -6.478923 5.023033 0.000000
vt 6.478923 5.023033 0.000000
vt -6.415827 5.542673 0.000000
vt 6.415827 5.542673 0.000000
vt -6.311122 6.055552 0.000000
vt 6.311122 6.055552 0.000000
vt -6.165487 6.558342 0.000000
vt 6.165487 6.558342 0.000000
vt -5.979866 7.047783 0.000000
vt 5.979866 7.047783 0.000000
vt -0.261729 10.994728 0.000000
vt 0.261729 10.994728 0.000000
vt 0.783488 10.952608 0.000000
vt 1.300167 10.868639 0.000000
vt 1.808414 10.743368 0.000000
vt 2.304932 10.577606 0.000000
vt 2.786502 10.372428 0.000000
vt 3.250000 10.129165 0.000000
vt 3.692421 9.849395 0.000000
vt 4.110895 9.534932 0.000000
vt 4.502708 9.187816 0.000000
vt 4.865320 8.810297 0.000000
vt 5.196378 8.404825 0.000000
vt 5.493736 7.974028 0.000000
vt 5.755464 7.520701 0.000000
vt -0.783488 10.952608 0.000000
vt -1.300167 10.868639 0.000000
vt -1.808414 10.743368 0.000000
vt -2.304932 10.577606 0.000000
vt -2.786502 10.372428 0.000000
vt -3.250000 10.129165 0.000000
vt -3.692421 9.849395 0.000000
vt -4.110895 9.534932 0.000000
vt -4.502708 9.187816 0.000000
vt -4.865320 8.810297 0.000000
vt -5.196378 8.404825 0.000000
vt -5.755464 7.520701 0.000000
vt -5.493736 7.974028 0.000000
vn 0.000000 100.000000 0.000000
vn 0.000000 100.000000 0.000000
vn 0.000000 100.000000 0.000000
vn 0.000000 100.000000 0.000000
vn 0.000000 -100.000000 0.000000
vn 0.000000 -100.000000 0.000000
vn 0.000000 -99.675731 8.046657
vn 0.000000 -99.675731 8.046657
vn 0.000000 -98.705026 16.041128
vn 0.000000 -98.705026 16.041128
vn 0.000000 -97.094182 23.931566
vn 0.000000 -97.094182 23.931566
vn 0.000000 -94.853644 31.666799
vn 0.000000 -94.853644 31.666799
vn 0.000000 -91.997944 39.196661
vn 0.000000 -91.997944 39.196661
vn 0.000000 -88.545603 46.472317
vn 0.000000 -88.545603 46.472317
vn 0.000000 -84.519009 53.446583
vn 0.000000 -84.519009 53.446583
vn 0.000000 -79.944276 60.074226
vn 0.000000 -79.944276 60.074226
vn 0.000000 -74.851075 66.312266
vn 0.000000 -74.851075 66.312266
vn 0.000000 -69.272435 72.120245
vn 0.000000 -69.272435 72.120245
vn 0.000000 -63.244538 77.460496
vn 0.000000 -63.244538 77.460496
vn 0.000000 -56.806475 82.298387
vn 0.000000 -56.806475 82.298387
vn 0.000000 -50.000000 86.602540
vn 0.000000 -50.000000 86.602540
vn 0.000000 -42.869256 90.345043
vn 0.000000 -42.869256 90.345043
vn 0.000000 -35.460489 93.501624
vn 0.000000 -35.460489 93.501624
vn 0.000000 -27.821746 96.051811
vn 0.000000 -27.821746 96.051811
vn 0.000000 -20.002569 97.979065
vn 0.000000 -20.002569 97.979065
vn 0.000000 -12.053668 99.270887
vn 0.000000 -12.053668 99.270887
vn 0.000000 -4.026594 99.918900
vn 0.000000 -4.026594 99.918900
vn 0.000000 4.026594 99.918900
vn 0.000000 4.026594 99.918900
vn 0.000000 12.053668 99.270887
vn 0.000000 12.053668 99.270887
vn 0.000000 20.002569 97.979065
vn 0.000000 20.002569 97.979065
vn 0.000000 27.821746 96.051811
vn 0.000000 27.821746 96.051811
vn 0.000000 35.460489 93.501624
vn 0.000000 35.460489 93.501624
vn 0.000000 42.869256 90.345043
vn 0.000000 42.869256 90.345043
vn 0.000000 50.000000 86.602540
vn 0.000000 50.000000 86.602540
vn 0.000000 56.806475 82.298387
vn 0.000000 56.806475 82.298387
vn 0.000000 63.244538 77.460496
vn 0.000000 63.244538 77.460496
vn 0.000000 69.272435 72.120245
vn 0.000000 69.272435 72.120245
vn 0.000000 74.851075 66.312266
vn 0.000000 74.851075 66.312266
vn 0.000000 79.944276 60.074226
vn 0.000000 79.944276 60.074226
vn 0.000000 84.519009 53.446583
vn 0.000000 84.519009 53.446583
vn 0.000000 88.545603 46.472317
vn 0.000000 88.545603 46.472317
vn 0.000000 91.997944 39.196661
vn 0.000000 91.997944 39.196661
vn 0.000000 94.853644 31.666799
vn 0.000000 94.853644 31.666799
vn 0.000000 97.094182 23.931566
vn 0.000000 97.094182 23.931566
vn 0.000000 98.705026 16.041128
vn 0.000000 98.705026 16.041128
vn 0.000000 99.675731 8.046657
vn 0.000000 99.675731 8.046657
vn 0.000000 99.675731 8.046657
vn 0.000000 98.705026 16.041128
vn 0.000000 97.094182 23.931566
vn 0.000000 94.853644 31.666799
vn 0.000000 91.997944 39.196661
vn 0.000000 88.545603 46.472317
vn 0.000000 84.519009 53.446583
vn 0.000000 79.944276 60.074226
vn 0.000000 74.851075 66.312266
vn 0.000000 69.272435 72.120245
vn 0.000000 63.244538 77.460496
vn 0.000000 56.806475 82.298387
vn 0.000000 50.000000 86.602540
vn 0.000000 42.869256 90.345043
vn 0.000000 35.460489 93.501624
vn 0.000000 27.821746 96.051811
vn 0.000000 20.002569 97.979065
vn 0.000000 12.053668 99.270887
vn 0.000000 4.026594 99.918900
vn 0.000000 -4.026594 99.918900
vn 0.000000 -12.053668 99.270887
vn 0.000000 -20.002569 97.979065
vn 0.000000 -27.821746 96.051811
vn 0.000000 -35.460489 93.501624
vn 0.000000 -42.869256 90.345043
vn 0.000000 -50.000000 86.602540
vn 0.000000 -56.806475 82.298387
vn 0.000000 -63.244538 77.460496
vn 0.000000 -69.272435 72.120245
vn 0.000000 -74.851075 66.312266
vn 0.000000 -79.944276 60.074226
vn 0.000000 -84.519009 53.446583
vn 0.000000 -88.545603 46.472317
vn 0.000000 -91.997944 39.196661
vn 0.000000 -94.853644 31.666799
vn 0.000000 -97.094182 23.931566
vn 0.000000 -98.705026 16.041128
vn 0.000000 -99.675731 8.046657
vn 0.000000 -100.000000 0.000000
vn 0.000000 -100.000000 0.000000
vn 0.000000 0.000000 -100.000000
vn 0.000000 0.000000 -100.000000
vn 0.000000 0.000000 -100.000000
vn 0.000000 0.000000 -100.000000
vn 0.000000 100.000000 0.000000
vn 0.000000 100.000000 0.000000
vn 0.000000 100.000000 0.000000
vn 0.000000 100.000000 0.000000
vn 0.000000 0.000000 -100.000000
vn 0.000000 0.000000 -100.000000
vn 0.000000 0.000000 -100.000000
vn 0.000000 0.000000 -100.000000
vn 0.000000 -100.000000 0.000000
vn 0.000000 -100.000000 0.000000
vn 0.000000 -100.000000 0.000000
vn 0.000000 -100.000000 0.000000
vn 0.000000 0.000000 -100.000000
vn 0.000000 0.000000 -100.000000
vn 0.000000 0.000000 -100.000000
vn 0.000000 0.000000 -100.000000
vn 0.000000 -100.000000 0.000000
vn 0.000000 -100.000000 0.000000
vn 0.000000 -100.000000 0.000000
vn 0.000000 -100.000000 0.000000
vn 0.000000 0.000000 -100.000000
vn 0.000000 0.000000 -100.000000
vn 0.000000 0.000000 -100.000000
vn 0.000000 0.000000 -100.000000
vn 0.000000 100.000000 0.000000
vn 0.000000 100.000000 0.000000
vn 0.000000 100.000000 0.000000
vn 0.000000 100.000000 0.000000
vn 0.000000 0.000000 -100.000000
vn 0.000000 0.000000 -100.000000
vn 0.000000 0.000000 -100.000000
vn 0.000000 0.000000 -100.000000
vn 0.000000 -100.000000 0.000000
vn 0.000000 -100.000000 0.000000
vn 0.000000 -100.000000 0.000000
vn 0.000000 -100.000000 0.000000
vn 0.000000 0.000000 -100.000000
vn 0.000000 0.000000 -100.000000
vn 0.000000 0.000000 -100.000000
vn 0.000000 0.000000 -100.000000
vn 100.000000 0.000000 0.000000
vn 100.000000 0.000000 0.000000
vn 100.000000 0.000000 0.000000
vn 100.000000 0.000000 0.000000
vn 100.000000 0.000000 0.000000
vn 100.000000 0.000000 0.000000
vn 100.000000 0.000000 0.000000
vn 100.000000 0.000000 0.000000
vn 100.000000 0.000000 0.000000
vn 100.000000 0.000000 0.000000
vn 100.000000 0.000000 0.000000
vn 100.000000 0.000000 0.000000
vn 100.000000 0.000000 0.000000
vn 100.000000 0.000000 0.000000
vn 100.000000 0.000000 0.000000
vn 100.000000 0.000000 0.000000
vn 100.000000 0.000000 0.000000
vn 100.000000 0.000000 0.000000
vn 100.000000 0.000000 0.000000
vn 100.000000 0.000000 0.000000
vn 100.000000 0.000000 0.000000
vn 100.000000 0.000000 0.000000
vn 100.000000 0.000000 0.000000
vn 100.000000 0.000000 0.000000
vn 100.000000 0.000000 0.000000
vn 100.000000 0.000000 0.000000
vn 100.000000 0.000000 0.000000
vn 100.000000 0.000000 0.000000
vn 100.000000 0.000000 0.000000
vn 100.000000 0.000000 0.000000
vn 100.000000 0.000000 0.000000
vn 100.000000 0.000000 0.000000
vn 100.000000 0.000000 0.000000
vn 100.000000 0.000000 0.000000
vn 100.000000 0.000000 0.000000
vn 100.000000 0.000000 0.000000
vn 100.000000 0.000000 0.000000
vn 100.000000 0.000000 0.000000
vn 100.000000 0.000000 0.000000
vn 100.000000 0.000000 0.000000
vn 100.000000 0.000000 0.000000
vn 100.000000 0.000000 0.000000
vn 100.000000 0.000000 0.000000
vn 100.000000 0.000000 0.000000
vn 100.000000 0.000000 0.000000
vn 100.000000 0.000000 0.000000
vn 100.000000 0.000000 0.000000
vn 100.000000 0.000000 0.000000
vn 100.000000 0.000000 0.000000
vn 100.000000 0.000000 0.000000
vn 100.000000 0.000000 0.000000
vn 100.000000 0.000000 0.000000
vn -100.000000 0.000000 0.000000
vn -100.000000 0.000000 0.000000
vn -100.000000 0.000000 0.000000
vn -100.000000 0.000000 0.000000
vn -100.000000 0.000000 0.000000
vn -100.000000 0.000000 0.000000
vn -100.000000 0.000000 0.000000
vn -100.000000 0.000000 0.000000
vn -100.000000 0.000000 0.000000
vn -100.000000 0.000000 0.000000
vn -100.000000 0.000000 0.000000
vn -100.000000 0.000000 0.000000
vn -100.000000 0.000000 0.000000
vn -100.000000 0.000000 0.000000
vn -100.000000 0.000000 0.000000
vn -100.000000 0.000000 0.000000
vn -100.000000 0.000000 0.000000
vn -100.000000 0.000000 0.000000
vn -100.000000 0.000000 0.000000
vn -100.000000 0.000000 0.000000
vn -100.000000 0.000000 0.000000
vn -100.000000 0.000000 0.000000
vn -100.000000 0.000000 0.000000
vn -100.000000 0.000000 0.000000
vn -100.000000 0.000000 0.000000
vn -100.000000 0.000000 0.000000
vn -100.000000 0.000000 0.000000
vn -100.000000 0.000000 0.000000
vn -100.000000 0.000000 0.000000
vn -100.000000 0.000000 0.000000
vn -100.000000 0.000000 0.000000
vn -100.000000 0.000000 0.000000
vn -100.000000 0.000000 0.000000
vn -100.000000 0.000000 0.000000
vn -100.000000 0.000000 0.000000
vn -100.000000 0.000000 0.000000
vn -100.000000 0.000000 0.000000
vn -100.000000 0.000000 0.000000
vn -100.000000 0.000000 0.000000
vn -100.000000 0.000000 0.000000
vn -100.000000 0.000000 0.000000
vn -100.000000 0.000000 0.000000
vn -100.000000 0.000000 0.000000
vn -100.000000 0.000000 0.000000
vn -100.000000 0.000000 0.000000
vn -100.000000 0.000000 0.000000
vn -100.000000 0.000000 0.000000
vn -100.000000 0.000000 0.000000
vn -100.000000 0.000000 0.000000
vn -100.000000 0.000000 0.000000
vn -100.000000 0.000000 0.000000
vn -100.000000 0.000000 0.000000
f 1/1/1 2/2/2 4/3/3
f 4/3/3 2/2/2 3/4/4
f 82/5/5 5/6/6 83/7/7
f 83/7/7 5/6/6 6/8/8
f 83/7/7 6/8/8 84/9/9
f 84/9/9 6/8/8 7/10/10
f 84/9/9 7/10/10 85/11/11
f 85/11/11 7/10/10 8/12/12
f 85/11/11 8/12/12 86/13/13
f 86/13/13 8/12/12 9/14/14
f 86/13/13 9/14/14 87/15/15
f 87/15/15 9/14/14 10/16/16
f 87/15/15 10/16/16 88/17/17
f 88/17/17 10/16/16 11/18/18
f 88/17/17 11/18/18 89/19/19
f 89/19/19 11/18/18 12/20/20
f 89/19/19 12/20/20 90/21/21
f 90/21/21 12/20/20 13/22/22
f 90/21/21 13/22/22 91/23/23
f 91/23/23 13/22/22 14/24/24
f 91/23/23 14/24/24 92/25/25
f 92/25/25 14/24/24 15/26/26
f 92/25/25 15/26/26 93/27/27
f 93/27/27 15/26/26 16/28/28
f 93/27/27 16/28/28 94/29/29
f 94/29/29 16/28/28 17/30/30
f 94/29/29 17/30/30 95/31/31
f 95/31/31 17/30/30 18/32/32
f 95/31/31 18/32/32 96/33/33
f 96/33/33 18/32/32 19/34/34
f 96/33/33 19/34/34 97/35/35
f 97/35/35 19/34/34 20/36/36
f 97/35/35 20/36/36 98/37/37
f 98/37/37 20/36/36 21/38/38
f 98/37/37 21/38/38 99/39/39
f 99/39/39 21/38/38 22/40/40
f 99/39/39 22/40/40 100/41/41
f 100/41/41 22/40/40 23/42/42
f 100/41/41 23/42/42 101/43/43
f 101/43/43 23/42/42 24/44/44
f 101/43/43 24/44/44 102/45/45
f 102/45/45 24/44/44 25/46/46
f 102/45/45 25/46/46 103/47/47
f 103/47/47 25/46/46 26/48/48
f 103/47/47 26/48/48 104/49/49
f 104/49/49 26/48/48 27/50/50
f 104/49/49 27/50/50 105/51/51
f 105/51/51 27/50/50 28/52/52
f 105/51/51 28/52/52 106/53/53
f 106/53/53 28/52/52 29/54/54
f 106/53/53 29/54/54 107/55/55
f 107/55/55 29/54/54 30/56/56
f 107/55/55 30/56/56 108/57/57
f 108/57/57 30/56/56 31/58/58
f 108/57/57 31/58/58 109/59/59
f 109/59/59 31/58/58 32/60/60
f 109/59/59 32/60/60 110/61/61
f 110/61/61 32/60/60 33/62/62
f 110/61/61 33/62/62 111/63/63
f 111/63/63 33/62/62 34/64/64
f 111/63/63 34/64/64 112/65/65
f 112/65/65 34/64/64 35/66/66
f 112/65/65 35/66/66 113/67/67
f 113/67/67 35/66/66 36/68/68
f 113/67/67 36/68/68 114/69/69
f 114/69/69 36/68/68 37/70/70
f 114/69/69 37/70/70 115/71/71
f 115/71/71 37/70/70 38/72/72
f 115/71/71 38/72/72 116/73/73
f 116/73/73 38/72/72 39/74/74
f 116/73/73 39/74/74 117/75/75
f 117/75/75 39/74/74 40/76/76
f 117/75/75 40/76/76 118/77/77
f 118/77/77 40/76/76 41/78/78
f 118/77/77 41/78/78 119/79/79
f 119/79/79 41/78/78 42/80/80
f 119/79/79 42/80/80 120/81/81
f 120/81/81 42/80/80 43/82/82
f 120/81/81 43/82/82 1/83/1
f 1/83/1 4/84/3 120/81/81
f 120/81/81 4/84/3 44/85/83
f 120/81/81 44/85/83 119/79/79
f 119/79/79 44/85/83 45/86/84
f 119/79/79 45/86/84 118/77/77
f 118/77/77 45/86/84 46/87/85
f 118/77/77 46/87/85 117/75/75
f 117/75/75 46/87/85 47/88/86
f 117/75/75 47/88/86 116/73/73
f 116/73/73 47/88/86 48/89/87
f 116/73/73 48/89/87 115/71/71
f 115/71/71 48/89/87 49/90/88
f 115/71/71 49/90/88 114/69/69
f 114/69/69 49/90/88 50/91/89
f 114/69/69 50/91/89 113/67/67
f 113/67/67 50/91/89 51/92/90
f 113/67/67 51/92/90 112/65/65
f 112/65/65 51/92/90 52/93/91
f 112/65/65 52/93/91 111/63/63
f 111/63/63 52/93/91 53/94/92
f 111/63/63 53/94/92 110/61/61
f 110/61/61 53/94/92 54/95/93
f 110/61/61 54/95/93 109/59/59
f 109/59/59 54/95/93 55/96/94
f 109/59/59 55/96/94 108/57/57
f 108/57/57 55/96/94 56/97/95
f 108/57/57 56/97/95 107/55/55
f 107/55/55 56/97/95 57/98/96
f 107/55/55 57/98/96 106/53/53
f 106/53/53 57/98/96 58/99/97
f 106/53/53 58/99/97 105/51/51
f 105/51/51 58/99/97 59/100/98
f 105/51/51 59/100/98 104/49/49
f 104/49/49 59/100/98 60/101/99
f 104/49/49 60/101/99 103/47/47
f 103/47/47 60/101/99 61/102/100
f 103/47/47 61/102/100 102/45/45
f 102/45/45 61/102/100 62/103/101
f 102/45/45 62/103/101 101/43/43
f 101/43/43 62/103/101 63/104/102
f 101/43/43 63/104/102 100/41/41
f 100/41/41 63/104/102 64/105/103
f 100/41/41 64/105/103 99/39/39
f 99/39/39 64/105/103 65/106/104
f 99/39/39 65/106/104 98/37/37
f 98/37/37 65/106/104 66/107/105
f 98/37/37 66/107/105 97/35/35
f 97/35/35 66/107/105 67/108/106
f 97/35/35 67/108/106 96/33/33
f 96/33/33 67/108/106 68/109/107
f 96/33/33 68/109/107 95/31/31
f 95/31/31 68/109/107 69/110/108
f 95/31/31 69/110/108 94/29/29
f 94/29/29 69/110/108 70/111/109
f 94/29/29 70/111/109 93/27/27
f 93/27/27 70/111/109 71/112/110
f 93/27/27 71/112/110 92/25/25
f 92/25/25 71/112/110 72/113/111
f 92/25/25 72/113/111 91/23/23
f 91/23/23 72/113/111 73/114/112
f 91/23/23 73/114/112 90/21/21
f 90/21/21 73/114/112 74/115/113
f 90/21/21 74/115/113 89/19/19
f 89/19/19 74/115/113 75/116/114
f 89/19/19 75/116/114 88/17/17
f 88/17/17 75/116/114 76/117/115
f 88/17/17 76/117/115 87/15/15
f 87/15/15 76/117/115 77/118/116
f 87/15/15 77/118/116 86/13/13
f 86/13/13 77/118/116 78/119/117
f 86/13/13 78/119/117 85/11/11
f 85/11/11 78/119/117 79/120/118
f 85/11/11 79/120/118 84/9/9
f 84/9/9 79/120/118 80/121/119
f 84/9/9 80/121/119 83/7/7
f 83/7/7 80/121/119 81/122/120
f 83/7/7 81/122/120 82/5/5
f 121/123/121 5/124/6 122/125/122
f 122/125/122 5/124/6 82/126/5
f 123/127/123 121/128/124 124/129/125
f 124/129/125 121/128/124 122/130/126
f 125/131/127 123/132/128 126/133/129
f 126/133/129 123/132/128 124/134/130
f 127/135/131 125/136/132 128/137/133
f 128/137/133 125/136/132 126/138/134
f 129/139/135 127/140/136 130/141/137
f 130/141/137 127/140/136 128/142/138
f 131/143/139 129/144/140 132/145/141
f 132/145/141 129/144/140 130/146/142
f 133/147/143 131/148/144 134/149/145
f 134/149/145 131/148/144 132/150/146
f 135/151/147 133/152/148 136/153/149
f 136/153/149 133/152/148 134/154/150
f 137/155/151 135/156/152 138/157/153
f 138/157/153 135/156/152 136/158/154
f 139/159/155 137/160/156 140/161/157
f 140/161/157 137/160/156 138/162/158
f 141/163/159 139/164/160 142/165/161
f 142/165/161 139/164/160 140/166/162
f 2/167/163 141/168/164 3/169/165
f 3/169/165 141/168/164 142/170/166
f 141/171/167 2/172/168 139/173/169
f 139/173/169 2/172/168 5/174/170
f 139/173/169 5/174/170 127/175/171
f 127/175/171 5/174/170 125/176/172
f 125/176/172 5/174/170 121/177/173
f 125/176/172 121/177/173 123/178/174
f 2/172/168 1/179/175 5/174/170
f 5/174/170 1/179/175 6/180/176
f 6/180/176 1/179/175 43/181/177
f 6/180/176 43/181/177 7/182/178
f 7/182/178 43/181/177 42/183/179
f 7/182/178 42/183/179 8/184/180
f 8/184/180 42/183/179 41/185/181
f 8/184/180 41/185/181 9/186/182
f 9/186/182 41/185/181 40/187/183
f 9/186/182 40/187/183 10/188/184
f 10/188/184 40/187/183 39/189/185
f 10/188/184 39/189/185 24/190/186
f 24/190/186 39/189/185 25/191/187
f 25/191/187 39/189/185 26/192/188
f 26/192/188 39/189/185 27/193/189
f 27/193/189 39/189/185 28/194/190
f 28/194/190 39/189/185 29/195/191
f 29/195/191 39/189/185 30/196/192
f 30/196/192 39/189/185 31/197/193
f 31/197/193 39/189/185 32/198/194
f 32/198/194 39/189/185 33/199/195
f 33/199/195 39/189/185 34/200/196
f 34/200/196 39/189/185 35/201/197
f 35/201/197 39/189/185 36/202/198
f 36/202/198 39/189/185 37/203/199
f 37/203/199 39/189/185 38/204/200
f 24/190/186 23/205/201 10/188/184
f 10/188/184 23/205/201 22/206/202
f 10/188/184 22/206/202 21/207/203
f 21/207/203 20/208/204 10/188/184
f 10/188/184 20/208/204 19/209/205
f 10/188/184 19/209/205 18/210/206
f 10/188/184 18/210/206 11/211/207
f 11/211/207 18/210/206 17/212/208
f 11/211/207 17/212/208 16/213/209
f 16/213/209 15/214/210 11/211/207
f 11/211/207 15/214/210 14/215/211
f 11/211/207 14/215/211 13/216/212
f 13/216/212 12/217/213 11/211/207
f 129/218/214 131/219/215 127/175/171
f 127/175/171 131/219/215 137/220/216
f 127/175/171 137/220/216 139/173/169
f 133/221/217 135/222/218 131/219/215
f 131/219/215 135/222/218 137/220/216
f 142/223/219 140/224/220 3/225/221
f 3/225/221 140/224/220 4/226/222
f 4/226/222 140/224/220 128/227/223
f 4/226/222 128/227/223 126/228/224
f 140/224/220 138/229/225 128/227/223
f 128/227/223 138/229/225 132/230/226
f 128/227/223 132/230/226 130/231/227
f 138/229/225 136/232/228 132/230/226
f 132/230/226 136/232/228 134/233/229
f 124/234/230 122/235/231 126/228/224
f 126/228/224 122/235/231 82/236/232
f 126/228/224 82/236/232 4/226/222
f 4/226/222 82/236/232 44/237/233
f 44/237/233 82/236/232 81/238/234
f 44/237/233 81/238/234 45/239/235
f 45/239/235 81/238/234 80/240/236
f 45/239/235 80/240/236 46/241/237
f 46/241/237 80/240/236 79/242/238
f 46/241/237 79/242/238 47/243/239
f 47/243/239 79/242/238 78/244/240
f 47/243/239 78/244/240 48/245/241
f 48/245/241 78/244/240 77/246/242
f 48/245/241 77/246/242 62/247/243
f 62/247/243 77/246/242 63/248/244
f 63/248/244 77/246/242 64/249/245
f 64/249/245 77/246/242 65/250/246
f 65/250/246 77/246/242 66/251/247
f 66/251/247 77/246/242 67/252/248
f 67/252/248 77/246/242 68/253/249
f 68/253/249 77/246/242 69/254/250
f 69/254/250 77/246/242 70/255/251
f 70/255/251 77/246/242 71/256/252
f 71/256/252 77/246/242 72/257/253
f 72/257/253 77/246/242 73/258/254
f 73/258/254 77/246/242 74/259/255
f 74/259/255 77/246/242 75/260/256
f 75/260/256 77/246/242 76/261/257
f 62/247/243 61/262/258 48/245/241
f 48/245/241 61/262/258 60/263/259
f 48/245/241 60/263/259 59/264/260
f 59/264/260 58/265/261 48/245/241
f 48/245/241 58/265/261 57/266/262
f 48/245/241 57/266/262 56/267/263
f 56/267/263 55/268/264 48/245/241
f 48/245/241 55/268/264 54/269/265
f 48/245/241 54/269/265 53/270/266
f 53/270/266 52/271/267 48/245/241
f 48/245/241 52/271/267 51/272/268
f 48/245/241 51/272/268 49/273/269
f 49/273/269 51/272/268 50/274/270
# 142 vertices
# 274 texture params
# 270 normals
# 280 facets

# 1 groups
