# ZED Mini visual mesh, converted from ZEDM.stl (metres, lossless to 1 nm)
# local frame: +Y = optical axis (lens front face at y=0.03025),
#              +X = stereo baseline (lens axes at x=-0.025 / +0.038), +Z = camera up

g zed_mini

v -0.064849995 0.0003 -0.0083
v -0.064849995 0.0003 0.008324237
v -0.064849995 0.00445 -0.0029
v -0.064849995 0.00445 0.003
v -0.064849995 0.004477081 0.003409898
v -0.064849995 0.004569194 0.00377945
v -0.064849995 0.004632504 -0.003896959
v -0.064849995 0.004760973 0.004168362
v -0.064849995 0.004783503 -0.004238101
v -0.064849995 0.004920228 -0.004430783
v -0.064849995 0.005040304 0.004502629
v -0.064849995 0.00510834 -0.0046031
v -0.064849995 0.005297941 -0.00471593
v -0.064849995 0.005320815 0.004713281
v -0.064849995 0.005564502 -0.004819412
v -0.064849995 0.005619261 0.004840682
v -0.064849995 0.005981598 -0.004913772
v -0.064849995 0.006298519 0.004943576
v -0.064849995 0.006471753 -0.004951794
v -0.064849995 0.006834689 0.004937039
v -0.064849995 0.007122873 -0.004896376
v -0.064849995 0.007239355 0.004871737
v -0.064849995 0.007463282 -0.004813322
v -0.064849995 0.007586081 0.004767091
v -0.064849995 0.007720489 -0.004688724
v -0.064849995 0.007796851 0.004664413
v -0.064849995 0.00800319 -0.00446244
v -0.064849995 0.008014646 0.004498323
v -0.064849995 0.008200737 0.004265388
v -0.064849995 0.008263063 -0.004130292
v -0.064849995 0.008355987 0.00394092
v -0.064849995 0.00845064 -0.003710011
v -0.064849995 0.008531131 -0.003327868
v -0.064849995 0.008549999 -0.0029
v -0.064849995 0.008549999 0.003
v -0.064849995 0.01301 -0.0083
v -0.064849995 0.01301 0.008324237
v -0.064842477 0.000233244 -0.0083
v -0.064842477 0.000233244 0.008324237
v -0.06482029 0.000169835 -0.0083
v -0.06482029 0.000169835 0.008324237
v -0.064784549 0.000112953 -0.0083
v -0.064784549 0.000112953 0.008324237
v -0.064753927 0.0003 -0.009275451
v -0.064753927 0.0003 0.009299688
v -0.064753927 0.01301 -0.009275451
v -0.064753927 0.01301 0.009299688
v -0.064746551 0.000233244 0.00929822
v -0.064737044 6.5451e-05 -0.0083
v -0.064737044 6.5451e-05 0.008324237
v -0.064724788 0.000169835 0.009293891
v -0.064717308 0.000233244 -0.009410931
v -0.064695671 0.000169835 -0.009405994
v -0.064689733 0.000112953 0.009286919
v -0.064680167 2.9709e-05 -0.0083
v -0.064680167 2.9709e-05 0.008324237
v -0.064660825 0.000112953 -0.00939804
v -0.064643145 6.5451e-05 0.009277652
v -0.064616755 7.522e-06 -0.0083
v -0.064616755 7.522e-06 0.008324237
v -0.064614519 6.5451e-05 -0.00938747
v -0.064587355 2.9709e-05 0.009266554
v -0.064559065 2.9709e-05 -0.009374812
v -0.064549997 0 -0.0083
v -0.064549997 0 0.008324237
v -0.064525165 7.522e-06 0.009254185
v -0.06449724 7.522e-06 -0.009360703
v -0.064469397 0.0003 -0.010213417
v -0.064469397 0.0003 0.010237654
v -0.064469397 0.01301 -0.010213417
v -0.064469397 0.01301 0.010237654
v -0.064462446 0.000233244 0.010234775
v -0.064441949 0.000169835 0.010226284
v -0.064432159 0 -0.009345848
v -0.064432159 0 0.009370085
v -0.064408928 0.000112953 0.010212607
v -0.064365044 6.5451e-05 0.010194428
v -0.064348064 0.000233244 -0.010466155
v -0.064348064 0.000233244 0.010490391
v -0.064328074 0.000169835 -0.010456528
v -0.064328074 0.000169835 0.010480764
v -0.064295873 0.000112953 -0.01044102
v -0.064295873 0.000112953 0.010465257
v -0.064253077 6.5451e-05 -0.01042041
v -0.064253077 6.5451e-05 0.010444647
v -0.064201824 2.9709e-05 -0.01039573
v -0.064201824 2.9709e-05 0.010419967
v -0.064144701 7.522e-06 -0.010368218
v -0.064144701 7.522e-06 0.010392454
v -0.064084552 0 -0.010339254
v -0.064084552 0 0.010363489
v -0.064007349 0.0003 -0.011077851
v -0.064007349 0.0003 0.011102088
v -0.064007349 0.01301 -0.011077851
v -0.064007349 0.01301 0.011102088
v -0.064001091 0.000233244 -0.011073672
v -0.064001091 0.000233244 0.011097909
v -0.063982643 0.000169835 -0.011061345
v -0.063982643 0.000169835 0.011085582
v -0.063952923 0.000112953 -0.011041488
v -0.063952923 0.000112953 0.011065725
v -0.063913427 6.5451e-05 -0.011015098
v -0.063913427 6.5451e-05 0.011039334
v -0.063850805 0.01373 -0.009372012
v -0.063850805 0.01373 0.009396248
v -0.063753277 0.000233244 -0.011412759
v -0.063753277 0.000233244 0.011436995
v -0.063735925 0.000169835 -0.011398925
v -0.063735925 0.000169835 0.011423161
v -0.063707985 0.000112953 -0.011376641
v -0.063707985 0.000112953 0.011400877
v -0.063670844 6.5451e-05 -0.011347024
v -0.063670844 6.5451e-05 0.011371261
v -0.063626371 2.9709e-05 -0.011311558
v -0.063626371 2.9709e-05 0.011335795
v -0.063576795 7.522e-06 -0.011272023
v -0.063576795 7.522e-06 0.01129626
v -0.063524604 0 -0.011230402
v -0.063524604 0 0.011254638
v -0.063437022 0.01373 -0.010370969
v -0.063437022 0.01373 0.010395205
v -0.063385531 0.0003 -0.011835533
v -0.063385531 0.0003 0.01185977
v -0.063385531 0.01301 -0.011835533
v -0.063385531 0.01301 0.01185977
v -0.063380212 0.000233244 -0.011830215
v -0.063380212 0.000233244 0.011854451
v -0.063364528 0.000169835 -0.011814526
v -0.063364528 0.000169835 0.011838762
v -0.063349999 0 -0.0083
v -0.063349999 0 0.008324237
v -0.063349999 0.0005 -0.0083
v -0.063349999 0.0005 0.008324237
v -0.063339248 0.000112953 -0.011789253
v -0.063339248 0.000112953 0.01181349
v -0.063262247 0 -0.009078823
v -0.063262247 0 0.00910306
v -0.063262247 0.0005 -0.009078823
v -0.063262247 0.0005 0.00910306
v -0.063133873 0.01445 -0.0083
v -0.063133873 0.01445 0.008324237
v -0.063051537 0.01445 -0.00903073
v -0.063051537 0.01445 0.009054967
v -0.063003391 0 -0.009818593
v -0.063003391 0 0.009842829
v -0.063003391 0.0005 -0.009818593
v -0.063003391 0.0005 0.009842829
v -0.062962756 0.000233244 -0.012203276
v -0.062962756 0.000233244 0.012227513
v -0.062948927 0.000169835 -0.012185929
v -0.062948927 0.000169835 0.012210166
v -0.062926643 0.000112953 -0.012157986
v -0.062926643 0.000112953 0.012182223
v -0.062897019 6.5451e-05 -0.012120847
v -0.062897019 6.5451e-05 0.012145083
v -0.062861554 2.9709e-05 -0.012076375
v -0.062861554 2.9709e-05 0.012100611
v -0.062849998 0.00445 -0.0029
v -0.062849998 0.00445 0.003
v -0.062849998 0.004477081 0.003409898
v -0.062849998 0.004569194 0.00377945
v -0.062849998 0.004632504 -0.003896959
v -0.062849998 0.004760973 0.004168362
v -0.062849998 0.004783503 -0.004238101
v -0.062849998 0.004920228 -0.004430783
v -0.062849998 0.005040304 0.004502629
v -0.062849998 0.00510834 -0.0046031
v -0.062849998 0.005297941 -0.00471593
v -0.062849998 0.005320815 0.004713281
v -0.062849998 0.005564502 -0.004819412
v -0.062849998 0.005619261 0.004840682
v -0.062849998 0.005981598 -0.004913772
v -0.062849998 0.006298519 0.004943576
v -0.062849998 0.006471753 -0.004951794
v -0.062849998 0.006834689 0.004937039
v -0.062849998 0.007122873 -0.004896376
v -0.062849998 0.007239355 0.004871737
v -0.062849998 0.007463282 -0.004813322
v -0.062849998 0.007586081 0.004767091
v -0.062849998 0.007720489 -0.004688724
v -0.062849998 0.007796851 0.004664413
v -0.062849998 0.00800319 -0.00446244
v -0.062849998 0.008014646 0.004498323
v -0.062849998 0.008200737 0.004265388
v -0.062849998 0.008263063 -0.004130292
v -0.062849998 0.008355987 0.00394092
v -0.062849998 0.00845064 -0.003710011
v -0.062849998 0.008531131 -0.003327868
v -0.062849998 0.008549999 -0.0029
v -0.062849998 0.008549999 0.003
v -0.062822022 7.522e-06 -0.0120268
v -0.062822022 7.522e-06 0.012051037
v -0.06280867 0.01445 -0.00972482
v -0.06280867 0.01445 0.009749056
v -0.062780403 0 -0.011974608
v -0.062780403 0 0.011998844
v -0.062778793 0.01373 -0.011228791
v -0.062778793 0.01373 0.011253028
v -0.062627852 0.0003 -0.012457347
v -0.062627852 0.0003 0.012481584
v -0.062627852 0.01301 -0.012457347
v -0.062627852 0.01301 0.012481584
v -0.062623672 0.000233244 -0.012451094
v -0.062623672 0.000233244 0.01247533
v -0.062611341 0.000169835 -0.012432645
v -0.062611341 0.000169835 0.012456882
v -0.062591486 0.000112953 -0.012402928
v -0.062591486 0.000112953 0.012427164
v -0.062586412 0 -0.010482214
v -0.062586412 0 0.01050645
v -0.062586412 0.0005 -0.010482214
v -0.062586412 0.0005 0.01050645
v -0.062565096 6.5451e-05 -0.012363431
v -0.062565096 6.5451e-05 0.012387667
v -0.062550001 0 -0.0083
v -0.062550001 0 0.008324237
v -0.062550001 0.0005 -0.0083
v -0.062550001 0.0005 0.008324237
v -0.062482305 0 -0.008900806
v -0.062482305 0 0.008925043
v -0.062482305 0.0005 -0.008900806
v -0.062482305 0.0005 0.008925043
v -0.062417436 0.01445 -0.010347462
v -0.062417436 0.01445 0.010371699
v -0.062282614 0 -0.009471485
v -0.062282614 0 0.009495722
v -0.062282614 0.0005 -0.009471485
v -0.062282614 0.0005 0.009495722
v -0.062032212 0 -0.01103641
v -0.062032212 0 0.011060647
v -0.062032212 0.0005 -0.01103641
v -0.062032212 0.0005 0.011060647
v -0.062016156 0.000233244 -0.012798067
v -0.062016156 0.000233244 0.012822304
v -0.062006526 0.000169835 -0.012778077
v -0.062006526 0.000169835 0.012802313
v -0.061991021 0.000112953 -0.012745875
v -0.061991021 0.000112953 0.012770112
v -0.061970409 6.5451e-05 -0.012703077
v -0.061970409 6.5451e-05 0.012727314
v -0.061960943 0 -0.009983422
v -0.061960943 0 0.010007659
v -0.061960943 0.0005 -0.009983422
v -0.061960943 0.0005 0.010007659
v -0.061945729 2.9709e-05 -0.012651828
v -0.061945729 2.9709e-05 0.012676065
v -0.061920967 0.01373 -0.011887022
v -0.061920967 0.01373 0.011911259
v -0.061918218 7.522e-06 -0.012594699
v -0.061918218 7.522e-06 0.012618935
v -0.06189746 0.01445 -0.010867436
v -0.06189746 0.01445 0.010891673
v -0.061889254 0 -0.012534553
v -0.061889254 0 0.01255879
v -0.061763417 0.0003 -0.012919397
v -0.061763417 0.0003 0.012943634
v -0.061763417 0.01301 -0.012919397
v -0.061763417 0.01301 0.012943634
v -0.061760537 0.000233244 -0.012912448
v -0.061752047 0.000169835 -0.012891949
v -0.061738368 0.000112953 -0.012858929
v -0.061720189 6.5451e-05 -0.012815042
v -0.061533421 0 -0.010410945
v -0.061533421 0 0.010435181
v -0.061533421 0.0005 -0.010410945
v -0.061533421 0.0005 0.010435181
v -0.061368592 0 -0.011453391
v -0.061368592 0 0.011477627
v -0.061368592 0.0005 -0.011453391
v -0.061368592 0.0005 0.011477627
v -0.061274819 0.01445 -0.011258668
v -0.061274819 0.01445 0.011282905
v -0.061021484 0 -0.010732615
v -0.061021484 0 0.010756852
v -0.061021484 0.0005 -0.010732615
v -0.061021484 0.0005 0.010756852
v -0.06096093 0.000233244 0.013191543
v -0.060955994 0.000169835 0.013169912
v -0.06094804 0.000112953 0.013135066
v -0.060937468 6.5451e-05 0.013088754
v -0.060924813 2.9709e-05 0.013033299
v -0.060922012 0.01373 -0.012300804
v -0.060922012 0.01373 0.01232504
v -0.060910702 7.522e-06 0.01297148
v -0.060895845 0 -0.012882161
v -0.060895845 0 0.012906398
v -0.060825448 0.0003 -0.013203926
v -0.060825448 0.0003 0.013228162
v -0.060825448 0.01301 -0.013203926
v -0.060825448 0.01301 0.013228162
v -0.060823984 0.000233244 -0.013196549
v -0.060819656 0.000169835 -0.013174787
v -0.060812682 0.000112953 -0.013139733
v -0.060803413 6.5451e-05 -0.013093144
v -0.060792316 2.9709e-05 -0.013037355
v -0.060779948 7.522e-06 -0.012975164
v -0.06062882 0 -0.011712248
v -0.06062882 0 0.011736484
v -0.06062882 0.0005 -0.011712248
v -0.06062882 0.0005 0.011736484
v -0.06058073 0.01445 -0.011501541
v -0.06058073 0.01445 0.011525777
v -0.060450803 0 -0.010932305
v -0.060450803 0 0.010956542
v -0.060450803 0.0005 -0.010932305
v -0.060450803 0.0005 0.010956542
v -0.05985 0 -0.012999999
v -0.05985 0 -0.0118
v -0.05985 0 -0.011
v -0.05985 0 0.011024236
v -0.05985 0 0.011824236
v -0.05985 0 0.013024236
v -0.05985 7.522e-06 -0.013066756
v -0.05985 7.522e-06 0.013090992
v -0.05985 2.9709e-05 -0.013130165
v -0.05985 2.9709e-05 0.013154401
v -0.05985 6.5451e-05 -0.013187047
v -0.05985 6.5451e-05 0.013211283
v -0.05985 0.000112953 -0.013234549
v -0.05985 0.000112953 0.013258786
v -0.05985 0.000169835 -0.013270291
v -0.05985 0.000169835 0.013294526
v -0.05985 0.000233244 -0.013292478
v -0.05985 0.000233244 0.013316714
v -0.05985 0.0003 -0.0133
v -0.05985 0.0003 0.013324236
v -0.05985 0.0005 -0.0118
v -0.05985 0.0005 -0.011
v -0.05985 0.0005 0.011024236
v -0.05985 0.0005 0.011824236
v -0.05985 0.01301 -0.0133
v -0.05985 0.01301 0.013324236
v -0.05985 0.01445 -0.011583875
v -0.05985 0.01445 0.011608111
v -0.034499999 0.01445 0
v -0.034499999 0.03025 0
v -0.03438304 0.01445 -0.001486127
v -0.03438304 0.01445 0.001486127
v -0.03438304 0.03025 -0.001486127
v -0.03438304 0.03025 0.001486127
v -0.034035038 0.01445 -0.002935661
v -0.034035038 0.01445 0.002935661
v -0.034035038 0.03025 -0.002935661
v -0.034035038 0.03025 0.002935661
v -0.033464562 0.01445 -0.00431291
v -0.033464562 0.01445 0.00431291
v -0.033464562 0.03025 -0.00431291
v -0.033464562 0.03025 0.00431291
v -0.032685664 0.01445 -0.00558396
v -0.032685664 0.01445 0.00558396
v -0.032685664 0.03025 -0.00558396
v -0.032685664 0.03025 0.00558396
v -0.031740915 0.006321276 -0.0133
v -0.031740915 0.006321276 -0.0116
v -0.0317332 0.006265233 0.011624237
v -0.0317332 0.006265233 0.013324236
v -0.0317332 0.00668613 0.011624237
v -0.0317332 0.00668613 0.013324236
v -0.031726357 0.006751439 -0.0133
v -0.031726357 0.006751439 -0.0116
v -0.031717516 0.01445 -0.006717514
v -0.031717516 0.01445 0.006717514
v -0.031717516 0.03025 -0.006717514
v -0.031717516 0.03025 0.006717514
v -0.031649917 0.005900597 -0.0133
v -0.031649917 0.005900597 -0.0116
v -0.031632472 0.005856567 0.011624237
v -0.031632472 0.005856567 0.013324236
v -0.031632472 0.007094796 0.011624237
v -0.031632472 0.007094796 0.013324236
v -0.031607121 0.007165002 -0.0133
v -0.031607121 0.007165002 -0.0116
v -0.031458877 0.005514908 -0.0133
v -0.031458877 0.005514908 -0.0116
v -0.031436872 0.005483882 0.011624237
v -0.031436872 0.005483882 0.013324236
v -0.031436872 0.007467481 0.011624237
v -0.031436872 0.007467481 0.013324236
v -0.03139044 0.007536891 -0.0133
v -0.03139044 0.007536891 -0.0116
v -0.031179378 0.005187597 -0.0133
v -0.031179378 0.005187597 -0.0116
v -0.031157764 0.005168836 0.011624237
v -0.031157764 0.005168836 0.013324236
v -0.031157764 0.007782527 0.011624237
v -0.031157764 0.007782527 0.013324236
v -0.031089453 0.007844555 -0.0133
v -0.031089453 0.007844555 -0.0116
v -0.031029472 0.006499397 -0.0116
v -0.031029472 0.006499397 -0.0096
v -0.031029472 0.006499397 0.009624236
v -0.031029472 0.006499397 0.011624237
v -0.031005891 0.006305192 -0.0116
v -0.031005891 0.006305192 -0.0096
v -0.031005891 0.006305192 0.009624236
v -0.031005891 0.006305192 0.011624237
v -0.031005891 0.006693602 -0.0116
v -0.031005891 0.006693602 -0.0096
v -0.031005891 0.006693602 0.009624236
v -0.031005891 0.006693602 0.011624237
v -0.030936521 0.006122274 -0.0116
v -0.030936521 0.006122274 -0.0096
v -0.030936521 0.006122274 0.009624236
v -0.030936521 0.006122274 0.011624237
v -0.030936521 0.00687652 -0.0116
v -0.030936521 0.00687652 -0.0096
v -0.030936521 0.00687652 0.009624236
v -0.030936521 0.00687652 0.011624237
v -0.03082837 0.004938508 -0.0133
v -0.03082837 0.004938508 -0.0116
v -0.03082539 0.005961273 -0.0116
v -0.03082539 0.005961273 -0.0096
v -0.03082539 0.005961273 0.009624236
v -0.03082539 0.005961273 0.011624237
v -0.03082539 0.007037521 -0.0116
v -0.03082539 0.007037521 -0.0096
v -0.03082539 0.007037521 0.009624236
v -0.03082539 0.007037521 0.011624237
v -0.030811373 0.004929739 0.011624237
v -0.030811373 0.004929739 0.013324236
v -0.030811373 0.008021623 0.011624237
v -0.030811373 0.008021623 0.013324236
v -0.030722406 0.008069341 -0.0133
v -0.030722406 0.008069341 -0.0116
v -0.030678956 0.005831545 -0.0116
v -0.030678956 0.005831545 -0.0096
v -0.030678956 0.005831545 0.009624236
v -0.030678956 0.005831545 0.011624237
v -0.030678956 0.007167248 -0.0116
v -0.030678956 0.007167248 -0.0096
v -0.030678956 0.007167248 0.009624236
v -0.030678956 0.007167248 0.011624237
v -0.030583961 0.01445 -0.007685661
v -0.030583961 0.01445 0.007685661
v -0.030583961 0.03025 -0.007685661
v -0.030583961 0.03025 0.007685661
v -0.030505734 0.005740631 -0.0116
v -0.030505734 0.005740631 -0.0096
v -0.030505734 0.005740631 0.009624236
v -0.030505734 0.005740631 0.011624237
v -0.030505734 0.007258162 -0.0116
v -0.030505734 0.007258162 -0.0096
v -0.030505734 0.007258162 0.009624236
v -0.030505734 0.007258162 0.011624237
v -0.030427136 0.004782746 -0.0133
v -0.030427136 0.004782746 -0.0116
v -0.030417828 0.004780487 0.011624237
v -0.030417828 0.004780487 0.013324236
v -0.030417828 0.008170875 0.011624237
v -0.030417828 0.008170875 0.013324236
v -0.030315788 0.005693813 -0.0116
v -0.030315788 0.005693813 -0.0096
v -0.030315788 0.005693813 0.009624236
v -0.030315788 0.005693813 0.011624237
v -0.030315788 0.00730498 -0.0116
v -0.030315788 0.00730498 -0.0096
v -0.030315788 0.00730498 0.009624236
v -0.030315788 0.00730498 0.011624237
v -0.030311557 0.008197619 -0.0133
v -0.030311557 0.008197619 -0.0116
v -0.030120157 0.005693813 -0.0116
v -0.030120157 0.005693813 -0.0096
v -0.030120157 0.005693813 0.009624236
v -0.030120157 0.005693813 0.011624237
v -0.030120157 0.00730498 -0.0116
v -0.030120157 0.00730498 -0.0096
v -0.030120157 0.00730498 0.009624236
v -0.030120157 0.00730498 0.011624237
v -0.030000001 0.004729754 -0.0133
v -0.030000001 0.004729754 -0.0116
v -0.030000001 0.004729754 0.011624237
v -0.030000001 0.004729754 0.013324236
v -0.030000001 0.008221609 0.011624237
v -0.030000001 0.008221609 0.013324236
v -0.02993021 0.005740631 -0.0116
v -0.02993021 0.005740631 -0.0096
v -0.02993021 0.005740631 0.009624236
v -0.02993021 0.005740631 0.011624237
v -0.02993021 0.007258162 -0.0116
v -0.02993021 0.007258162 -0.0096
v -0.02993021 0.007258162 0.009624236
v -0.02993021 0.007258162 0.011624237
v -0.029881816 0.008221609 -0.0133
v -0.029881816 0.008221609 -0.0116
v -0.029756987 0.005831545 -0.0116
v -0.029756987 0.005831545 -0.0096
v -0.029756987 0.005831545 0.009624236
v -0.029756987 0.005831545 0.011624237
v -0.029756987 0.007167248 -0.0116
v -0.029756987 0.007167248 -0.0096
v -0.029756987 0.007167248 0.009624236
v -0.029756987 0.007167248 0.011624237
v -0.029610556 0.005961273 -0.0116
v -0.029610556 0.005961273 -0.0096
v -0.029610556 0.005961273 0.009624236
v -0.029610556 0.005961273 0.011624237
v -0.029610556 0.007037521 -0.0116
v -0.029610556 0.007037521 -0.0096
v -0.029610556 0.007037521 0.009624236
v -0.029610556 0.007037521 0.011624237
v -0.029499425 0.006122274 -0.0116
v -0.029499425 0.006122274 -0.0096
v -0.029499425 0.006122274 0.009624236
v -0.029499425 0.006122274 0.011624237
v -0.029499425 0.00687652 -0.0116
v -0.029499425 0.00687652 -0.0096
v -0.029499425 0.00687652 0.009624236
v -0.029499425 0.00687652 0.011624237
v -0.029430052 0.006305192 -0.0116
v -0.029430052 0.006305192 -0.0096
v -0.029430052 0.006305192 0.009624236
v -0.029430052 0.006305192 0.011624237
v -0.029430052 0.006693602 -0.0116
v -0.029430052 0.006693602 -0.0096
v -0.029430052 0.006693602 0.009624236
v -0.029430052 0.006693602 0.011624237
v -0.029406473 0.006499397 -0.0116
v -0.029406473 0.006499397 -0.0096
v -0.029406473 0.006499397 0.009624236
v -0.029406473 0.006499397 0.011624237
v -0.029312911 0.01445 -0.008464562
v -0.029312911 0.01445 0.008464562
v -0.029312911 0.03025 -0.008464562
v -0.029312911 0.03025 0.008464562
v -0.027935661 0.01445 -0.009035037
v -0.027935661 0.01445 0.009035037
v -0.027935661 0.03025 -0.009035037
v -0.027935661 0.03025 0.009035037
v -0.026486129 0.01445 -0.00938304
v -0.026486129 0.01445 0.00938304
v -0.026486129 0.03025 -0.00938304
v -0.026486129 0.03025 0.00938304
v -0.025 0.01445 -0.0095
v -0.025 0.01445 0.0095
v -0.025 0.03025 -0.0095
v -0.025 0.03025 0.0095
v -0.023513872 0.01445 -0.00938304
v -0.023513872 0.01445 0.00938304
v -0.023513872 0.03025 -0.00938304
v -0.023513872 0.03025 0.00938304
v -0.022064339 0.01445 -0.009035037
v -0.022064339 0.01445 0.009035037
v -0.022064339 0.03025 -0.009035037
v -0.022064339 0.03025 0.009035037
v -0.02068709 0.01445 -0.008464562
v -0.02068709 0.01445 0.008464562
v -0.02068709 0.03025 -0.008464562
v -0.02068709 0.03025 0.008464562
v -0.01941604 0.01445 -0.007685661
v -0.01941604 0.01445 0.007685661
v -0.01941604 0.03025 -0.007685661
v -0.01941604 0.03025 0.007685661
v -0.018282486 0.01445 -0.006717514
v -0.018282486 0.01445 0.006717514
v -0.018282486 0.03025 -0.006717514
v -0.018282486 0.03025 0.006717514
v -0.017314339 0.01445 -0.00558396
v -0.017314339 0.01445 0.00558396
v -0.017314339 0.03025 -0.00558396
v -0.017314339 0.03025 0.00558396
v -0.016535439 0.01445 -0.00431291
v -0.016535439 0.01445 0.00431291
v -0.016535439 0.03025 -0.00431291
v -0.016535439 0.03025 0.00431291
v -0.015964963 0.01445 -0.002935661
v -0.015964963 0.01445 0.002935661
v -0.015964963 0.03025 -0.002935661
v -0.015964963 0.03025 0.002935661
v -0.015616961 0.01445 -0.001486127
v -0.015616961 0.01445 0.001486127
v -0.015616961 0.03025 -0.001486127
v -0.015616961 0.03025 0.001486127
v -0.015500001 0.01445 0
v -0.015500001 0.03025 0
v -0.003200239 0.004729754 -0.0133
v -0.003200239 0.004729754 -0.0116
v -0.003200239 0.008221609 -0.0133
v -0.003200239 0.008221609 -0.0116
v -0.0012 0.004729754 -0.0133
v -0.0012 0.004729754 -0.0116
v -0.0012 0.008221609 -0.0133
v -0.0012 0.008221609 -0.0116
v 0.02502026 0.006499397 -0.0116
v 0.02502026 0.006499397 -0.0096
v 0.02502026 0.006499397 0.009624236
v 0.02502026 0.006499397 0.011624237
v 0.02504384 0.006305192 -0.0116
v 0.02504384 0.006305192 -0.0096
v 0.02504384 0.006305192 0.009624236
v 0.02504384 0.006305192 0.011624237
v 0.02504384 0.006693602 -0.0116
v 0.02504384 0.006693602 -0.0096
v 0.02504384 0.006693602 0.009624236
v 0.02504384 0.006693602 0.011624237
v 0.025113212 0.006122274 -0.0116
v 0.025113212 0.006122274 -0.0096
v 0.025113212 0.006122274 0.009624236
v 0.025113212 0.006122274 0.011624237
v 0.025113212 0.00687652 -0.0116
v 0.025113212 0.00687652 -0.0096
v 0.025113212 0.00687652 0.009624236
v 0.025113212 0.00687652 0.011624237
v 0.025224343 0.005961273 -0.0116
v 0.025224343 0.005961273 -0.0096
v 0.025224343 0.005961273 0.009624236
v 0.025224343 0.005961273 0.011624237
v 0.025224343 0.007037521 -0.0116
v 0.025224343 0.007037521 -0.0096
v 0.025224343 0.007037521 0.009624236
v 0.025224343 0.007037521 0.011624237
v 0.025370775 0.005831545 -0.0116
v 0.025370775 0.005831545 -0.0096
v 0.025370775 0.005831545 0.009624236
v 0.025370775 0.005831545 0.011624237
v 0.025370775 0.007167248 -0.0116
v 0.025370775 0.007167248 -0.0096
v 0.025370775 0.007167248 0.009624236
v 0.025370775 0.007167248 0.011624237
v 0.0255 0.004729754 -0.0133
v 0.0255 0.004729754 -0.0116
v 0.0255 0.004729754 0.011624237
v 0.0255 0.004729754 0.013324236
v 0.0255 0.008221609 -0.0133
v 0.0255 0.008221609 -0.0116
v 0.0255 0.008221609 0.011624237
v 0.0255 0.008221609 0.013324236
v 0.025543997 0.005740631 -0.0116
v 0.025543997 0.005740631 -0.0096
v 0.025543997 0.005740631 0.009624236
v 0.025543997 0.005740631 0.011624237
v 0.025543997 0.007258162 -0.0116
v 0.025543997 0.007258162 -0.0096
v 0.025543997 0.007258162 0.009624236
v 0.025543997 0.007258162 0.011624237
v 0.025733944 0.005693813 -0.0116
v 0.025733944 0.005693813 -0.0096
v 0.025733944 0.005693813 0.009624236
v 0.025733944 0.005693813 0.011624237
v 0.025733944 0.00730498 -0.0116
v 0.025733944 0.00730498 -0.0096
v 0.025733944 0.00730498 0.009624236
v 0.025733944 0.00730498 0.011624237
v 0.025917828 0.004780487 -0.0133
v 0.025917828 0.004780487 -0.0116
v 0.025917828 0.004780487 0.011624237
v 0.025917828 0.004780487 0.013324236
v 0.025917828 0.008170875 -0.0133
v 0.025917828 0.008170875 -0.0116
v 0.025917828 0.008170875 0.011624237
v 0.025917828 0.008170875 0.013324236
v 0.025929576 0.005693813 -0.0116
v 0.025929576 0.005693813 -0.0096
v 0.025929576 0.005693813 0.009624236
v 0.025929576 0.005693813 0.011624237
v 0.025929576 0.00730498 -0.0116
v 0.025929576 0.00730498 -0.0096
v 0.025929576 0.00730498 0.009624236
v 0.025929576 0.00730498 0.011624237
v 0.026119521 0.005740631 -0.0116
v 0.026119521 0.005740631 -0.0096
v 0.026119521 0.005740631 0.009624236
v 0.026119521 0.005740631 0.011624237
v 0.026119521 0.007258162 -0.0116
v 0.026119521 0.007258162 -0.0096
v 0.026119521 0.007258162 0.009624236
v 0.026119521 0.007258162 0.011624237
v 0.026292743 0.005831545 -0.0116
v 0.026292743 0.005831545 -0.0096
v 0.026292743 0.005831545 0.009624236
v 0.026292743 0.005831545 0.011624237
v 0.026292743 0.007167248 -0.0116
v 0.026292743 0.007167248 -0.0096
v 0.026292743 0.007167248 0.009624236
v 0.026292743 0.007167248 0.011624237
v 0.026311373 0.004929739 -0.0133
v 0.026311373 0.004929739 -0.0116
v 0.026311373 0.004929739 0.011624237
v 0.026311373 0.004929739 0.013324236
v 0.026311373 0.008021623 -0.0133
v 0.026311373 0.008021623 -0.0116
v 0.026311373 0.008021623 0.011624237
v 0.026311373 0.008021623 0.013324236
v 0.026439177 0.005961273 -0.0116
v 0.026439177 0.005961273 -0.0096
v 0.026439177 0.005961273 0.009624236
v 0.026439177 0.005961273 0.011624237
v 0.026439177 0.007037521 -0.0116
v 0.026439177 0.007037521 -0.0096
v 0.026439177 0.007037521 0.009624236
v 0.026439177 0.007037521 0.011624237
v 0.026550308 0.006122274 -0.0116
v 0.026550308 0.006122274 -0.0096
v 0.026550308 0.006122274 0.009624236
v 0.026550308 0.006122274 0.011624237
v 0.026550308 0.00687652 -0.0116
v 0.026550308 0.00687652 -0.0096
v 0.026550308 0.00687652 0.009624236
v 0.026550308 0.00687652 0.011624237
v 0.026619678 0.006305192 -0.0116
v 0.026619678 0.006305192 -0.0096
v 0.026619678 0.006305192 0.009624236
v 0.026619678 0.006305192 0.011624237
v 0.026619678 0.006693602 -0.0116
v 0.026619678 0.006693602 -0.0096
v 0.026619678 0.006693602 0.009624236
v 0.026619678 0.006693602 0.011624237
v 0.026643259 0.006499397 -0.0116
v 0.026643259 0.006499397 -0.0096
v 0.026643259 0.006499397 0.009624236
v 0.026643259 0.006499397 0.011624237
v 0.026657764 0.005168836 -0.0133
v 0.026657764 0.005168836 -0.0116
v 0.026657764 0.005168836 0.011624237
v 0.026657764 0.005168836 0.013324236
v 0.026657764 0.007782527 -0.0133
v 0.026657764 0.007782527 -0.0116
v 0.026657764 0.007782527 0.011624237
v 0.026657764 0.007782527 0.013324236
v 0.02693687 0.005483882 -0.0133
v 0.02693687 0.005483882 -0.0116
v 0.02693687 0.005483882 0.011624237
v 0.02693687 0.005483882 0.013324236
v 0.02693687 0.007467481 -0.0133
v 0.02693687 0.007467481 -0.0116
v 0.02693687 0.007467481 0.011624237
v 0.02693687 0.007467481 0.013324236
v 0.02713247 0.005856567 -0.0133
v 0.02713247 0.005856567 -0.0116
v 0.02713247 0.005856567 0.011624237
v 0.02713247 0.005856567 0.013324236
v 0.02713247 0.007094796 -0.0133
v 0.02713247 0.007094796 -0.0116
v 0.02713247 0.007094796 0.011624237
v 0.02713247 0.007094796 0.013324236
v 0.027233198 0.006265233 -0.0133
v 0.027233198 0.006265233 -0.0116
v 0.027233198 0.006265233 0.011624237
v 0.027233198 0.006265233 0.013324236
v 0.027233198 0.00668613 -0.0133
v 0.027233198 0.00668613 -0.0116
v 0.027233198 0.00668613 0.011624237
v 0.027233198 0.00668613 0.013324236
v 0.0285 0.01445 0
v 0.0285 0.03025 0
v 0.028616961 0.01445 -0.001486127
v 0.028616961 0.01445 0.001486127
v 0.028616961 0.03025 -0.001486127
v 0.028616961 0.03025 0.001486127
v 0.028964963 0.01445 -0.002935661
v 0.028964963 0.01445 0.002935661
v 0.028964963 0.03025 -0.002935661
v 0.028964963 0.03025 0.002935661
v 0.029535439 0.01445 -0.00431291
v 0.029535439 0.01445 0.00431291
v 0.029535439 0.03025 -0.00431291
v 0.029535439 0.03025 0.00431291
v 0.030314339 0.01445 -0.00558396
v 0.030314339 0.01445 0.00558396
v 0.030314339 0.03025 -0.00558396
v 0.030314339 0.03025 0.00558396
v 0.031282485 0.01445 -0.006717514
v 0.031282485 0.01445 0.006717514
v 0.031282485 0.03025 -0.006717514
v 0.031282485 0.03025 0.006717514
v 0.032416042 0.01445 -0.007685661
v 0.032416042 0.01445 0.007685661
v 0.032416042 0.03025 -0.007685661
v 0.032416042 0.03025 0.007685661
v 0.033687092 0.01445 -0.008464562
v 0.033687092 0.01445 0.008464562
v 0.033687092 0.03025 -0.008464562
v 0.033687092 0.03025 0.008464562
v 0.03506434 0.01445 -0.009035037
v 0.03506434 0.01445 0.009035037
v 0.03506434 0.03025 -0.009035037
v 0.03506434 0.03025 0.009035037
v 0.036513872 0.01445 -0.00938304
v 0.036513872 0.01445 0.00938304
v 0.036513872 0.03025 -0.00938304
v 0.036513872 0.03025 0.00938304
v 0.037999999 0.01445 -0.0095
v 0.037999999 0.01445 0.0095
v 0.037999999 0.03025 -0.0095
v 0.037999999 0.03025 0.0095
v 0.039486129 0.01445 -0.00938304
v 0.039486129 0.01445 0.00938304
v 0.039486129 0.03025 -0.00938304
v 0.039486129 0.03025 0.00938304
v 0.040935662 0.01445 -0.009035037
v 0.040935662 0.01445 0.009035037
v 0.040935662 0.03025 -0.009035037
v 0.040935662 0.03025 0.009035037
v 0.042312909 0.01445 -0.008464562
v 0.042312909 0.01445 0.008464562
v 0.042312909 0.03025 -0.008464562
v 0.042312909 0.03025 0.008464562
v 0.043583959 0.01445 -0.007685661
v 0.043583959 0.01445 0.007685661
v 0.043583959 0.03025 -0.007685661
v 0.043583959 0.03025 0.007685661
v 0.044717517 0.01445 -0.006717514
v 0.044717517 0.01445 0.006717514
v 0.044717517 0.03025 -0.006717514
v 0.044717517 0.03025 0.006717514
v 0.045685664 0.01445 -0.00558396
v 0.045685664 0.01445 0.00558396
v 0.045685664 0.03025 -0.00558396
v 0.045685664 0.03025 0.00558396
v 0.046464562 0.01445 -0.00431291
v 0.046464562 0.01445 0.00431291
v 0.046464562 0.03025 -0.00431291
v 0.046464562 0.03025 0.00431291
v 0.047035038 0.01445 -0.002935661
v 0.047035038 0.01445 0.002935661
v 0.047035038 0.03025 -0.002935661
v 0.047035038 0.03025 0.002935661
v 0.04738304 0.01445 -0.001486127
v 0.04738304 0.01445 0.001486127
v 0.04738304 0.03025 -0.001486127
v 0.04738304 0.03025 0.001486127
v 0.047499999 0.01445 0
v 0.047499999 0.03025 0
v 0.055349998 0 -0.012999999
v 0.055349998 0 -0.0118
v 0.055349998 0 -0.011
v 0.055349998 0 0.011024236
v 0.055349998 0 0.011824236
v 0.055349998 0 0.013024236
v 0.055349998 7.522e-06 -0.013066756
v 0.055349998 7.522e-06 0.013090992
v 0.055349998 2.9709e-05 -0.013130165
v 0.055349998 2.9709e-05 0.013154401
v 0.055349998 6.5451e-05 -0.013187047
v 0.055349998 6.5451e-05 0.013211283
v 0.055349998 0.000112953 -0.013234549
v 0.055349998 0.000112953 0.013258786
v 0.055349998 0.000169835 -0.013270291
v 0.055349998 0.000169835 0.013294526
v 0.055349998 0.000233244 -0.013292478
v 0.055349998 0.000233244 0.013316714
v 0.055349998 0.0003 -0.0133
v 0.055349998 0.0003 0.013324236
v 0.055349998 0.0005 -0.0118
v 0.055349998 0.0005 -0.011
v 0.055349998 0.0005 0.011024236
v 0.055349998 0.0005 0.011824236
v 0.055349998 0.01301 -0.0133
v 0.055349998 0.01301 0.013324236
v 0.055349998 0.01445 -0.011583875
v 0.055349998 0.01445 0.011608111
v 0.055950806 0 -0.010932305
v 0.055950806 0 0.010956542
v 0.055950806 0.0005 -0.010932305
v 0.055950806 0.0005 0.010956542
v 0.056080729 0.01445 -0.011501541
v 0.056080729 0.01445 0.011525777
v 0.056128822 0 -0.011712248
v 0.056128822 0 0.011736484
v 0.056128822 0.0005 -0.011712248
v 0.056128822 0.0005 0.011736484
v 0.056279946 7.522e-06 0.0129994
v 0.056292318 2.9709e-05 0.013061591
v 0.056303415 6.5451e-05 0.01311738
v 0.05631268 0.000112953 0.01316397
v 0.056319654 0.000169835 0.013199024
v 0.056323983 0.000233244 0.013220785
v 0.056325451 0.0003 -0.013203926
v 0.056325451 0.0003 0.013228162
v 0.056325451 0.01301 -0.013203926
v 0.056325451 0.01301 0.013228162
v 0.056395847 0 -0.012882161
v 0.056395847 0 0.012906398
v 0.0564107 7.522e-06 -0.012947244
v 0.05642201 0.01373 -0.012300804
v 0.05642201 0.01373 0.01232504
v 0.056424811 2.9709e-05 -0.013009062
v 0.05643747 6.5451e-05 -0.013064519
v 0.056448039 0.000112953 -0.01311083
v 0.056455992 0.000169835 -0.013145675
v 0.056460928 0.000233244 -0.013167306
v 0.056521486 0 -0.010732615
v 0.056521486 0 0.010756852
v 0.056521486 0.0005 -0.010732615
v 0.056521486 0.0005 0.010756852
v 0.056774817 0.01445 -0.011258668
v 0.056774817 0.01445 0.011282905
v 0.05686859 0 -0.011453391
v 0.05686859 0 0.011477627
v 0.05686859 0.0005 -0.011453391
v 0.05686859 0.0005 0.011477627
v 0.05703342 0 -0.010410945
v 0.05703342 0 0.010435181
v 0.05703342 0.0005 -0.010410945
v 0.05703342 0.0005 0.010435181
v 0.057220191 6.5451e-05 0.012839279
v 0.05723837 0.000112953 0.012883166
v 0.057252046 0.000169835 0.012916186
v 0.057260536 0.000233244 0.012936684
v 0.057263415 0.0003 -0.012919397
v 0.057263415 0.0003 0.012943634
v 0.057263415 0.01301 -0.012919397
v 0.057263415 0.01301 0.012943634
v 0.057389252 0 -0.012534553
v 0.057389252 0 0.01255879
v 0.057397462 0.01445 -0.010867436
v 0.057397462 0.01445 0.010891673
v 0.057418216 7.522e-06 -0.012594699
v 0.057418216 7.522e-06 0.012618935
v 0.057420969 0.01373 -0.011887022
v 0.057420969 0.01373 0.011911259
v 0.057445727 2.9709e-05 -0.012651828
v 0.057445727 2.9709e-05 0.012676065
v 0.057460945 0 -0.009983422
v 0.057460945 0 0.010007659
v 0.057460945 0.0005 -0.009983422
v 0.057460945 0.0005 0.010007659
v 0.057470407 6.5451e-05 -0.012703077
v 0.057470407 6.5451e-05 0.012727314
v 0.057491019 0.000112953 -0.012745875
v 0.057491019 0.000112953 0.012770112
v 0.057506528 0.000169835 -0.012778077
v 0.057506528 0.000169835 0.012802313
v 0.057516154 0.000233244 -0.012798067
v 0.057516154 0.000233244 0.012822304
v 0.057532214 0 -0.01103641
v 0.057532214 0 0.011060647
v 0.057532214 0.0005 -0.01103641
v 0.057532214 0.0005 0.011060647
v 0.057782613 0 -0.009471485
v 0.057782613 0 0.009495722
v 0.057782613 0.0005 -0.009471485
v 0.057782613 0.0005 0.009495722
v 0.057917435 0.01445 -0.010347462
v 0.057917435 0.01445 0.010371699
v 0.057982303 0 -0.008900806
v 0.057982303 0 0.008925043
v 0.057982303 0.0005 -0.008900806
v 0.057982303 0.0005 0.008925043
v 0.058049999 0 -0.0083
v 0.058049999 0 0.008324237
v 0.058049999 0.0005 -0.0083
v 0.058049999 0.0005 0.008324237
v 0.058065098 6.5451e-05 -0.012363431
v 0.058065098 6.5451e-05 0.012387667
v 0.05808641 0 -0.010482214
v 0.05808641 0 0.01050645
v 0.05808641 0.0005 -0.010482214
v 0.05808641 0.0005 0.01050645
v 0.058091488 0.000112953 -0.012402928
v 0.058091488 0.000112953 0.012427164
v 0.058111344 0.000169835 -0.012432645
v 0.058111344 0.000169835 0.012456882
v 0.058123671 0.000233244 -0.012451094
v 0.058123671 0.000233244 0.01247533
v 0.05812785 0.0003 -0.012457347
v 0.05812785 0.0003 0.012481584
v 0.05812785 0.01301 -0.012457347
v 0.05812785 0.01301 0.012481584
v 0.058278792 0.01373 -0.011228791
v 0.058278792 0.01373 0.011253028
v 0.058280401 0 -0.011974608
v 0.058280401 0 0.011998844
v 0.058308668 0.01445 -0.00972482
v 0.058308668 0.01445 0.009749056
v 0.058322024 7.522e-06 -0.0120268
v 0.058322024 7.522e-06 0.012051037
v 0.058361556 2.9709e-05 -0.012076375
v 0.058361556 2.9709e-05 0.012100611
v 0.058397021 6.5451e-05 -0.012120847
v 0.058397021 6.5451e-05 0.012145083
v 0.058426641 0.000112953 -0.012157986
v 0.058426641 0.000112953 0.012182223
v 0.058448926 0.000169835 -0.012185929
v 0.058448926 0.000169835 0.012210166
v 0.058462758 0.000233244 -0.012203276
v 0.058462758 0.000233244 0.012227513
v 0.058503389 0 -0.009818593
v 0.058503389 0 0.009842829
v 0.058503389 0.0005 -0.009818593
v 0.058503389 0.0005 0.009842829
v 0.058551539 0.01445 -0.00903073
v 0.058551539 0.01445 0.009054967
v 0.058633875 0.01445 -0.0083
v 0.058633875 0.01445 0.008324237
v 0.058762245 0 -0.009078823
v 0.058762245 0 0.00910306
v 0.058762245 0.0005 -0.009078823
v 0.058762245 0.0005 0.00910306
v 0.05883925 0.000112953 -0.011789253
v 0.05883925 0.000112953 0.01181349
v 0.058849998 0 -0.0083
v 0.058849998 0 0.008324237
v 0.058849998 0.0005 -0.0083
v 0.058849998 0.0005 0.008324237
v 0.058864526 0.000169835 -0.011814526
v 0.058864526 0.000169835 0.011838762
v 0.058880214 0.000233244 -0.011830215
v 0.058880214 0.000233244 0.011854451
v 0.058885533 0.0003 -0.011835533
v 0.058885533 0.0003 0.01185977
v 0.058885533 0.01301 -0.011835533
v 0.058885533 0.01301 0.01185977
v 0.058937021 0.01373 -0.010370969
v 0.058937021 0.01373 0.010395205
v 0.059024606 0 -0.011230402
v 0.059024606 0 0.011254638
v 0.059076797 7.522e-06 -0.011272023
v 0.059076797 7.522e-06 0.01129626
v 0.059126373 2.9709e-05 -0.011311558
v 0.059126373 2.9709e-05 0.011335795
v 0.059170846 6.5451e-05 -0.011347024
v 0.059170846 6.5451e-05 0.011371261
v 0.059207983 0.000112953 -0.011376641
v 0.059207983 0.000112953 0.011400877
v 0.059235927 0.000169835 -0.011398925
v 0.059235927 0.000169835 0.011423161
v 0.059253275 0.000233244 -0.011412759
v 0.059253275 0.000233244 0.011436995
v 0.059350803 0.01373 -0.009372012
v 0.059350803 0.01373 0.009396248
v 0.059413429 6.5451e-05 -0.011015098
v 0.059413429 6.5451e-05 0.011039334
v 0.059452925 0.000112953 -0.011041488
v 0.059452925 0.000112953 0.011065725
v 0.059482645 0.000169835 -0.011061345
v 0.059482645 0.000169835 0.011085582
v 0.059501093 0.000233244 -0.011073672
v 0.059501093 0.000233244 0.011097909
v 0.059507348 0.0003 -0.011077851
v 0.059507348 0.0003 0.011102088
v 0.059507348 0.01301 -0.011077851
v 0.059507348 0.01301 0.011102088
v 0.059584551 0 -0.010339254
v 0.059584551 0 0.010363489
v 0.059644699 7.522e-06 -0.010368218
v 0.059644699 7.522e-06 0.010392454
v 0.059701826 2.9709e-05 -0.01039573
v 0.059701826 2.9709e-05 0.010419967
v 0.059753075 6.5451e-05 -0.01042041
v 0.059753075 6.5451e-05 0.010444647
v 0.059795875 0.000112953 -0.01044102
v 0.059795875 0.000112953 0.010465257
v 0.059828077 0.000169835 -0.010456528
v 0.059828077 0.000169835 0.010480764
v 0.059848066 0.000233244 -0.010466155
v 0.059848066 0.000233244 0.010490391
v 0.059865043 6.5451e-05 -0.010170192
v 0.059908926 0.000112953 -0.01018837
v 0.059932161 0 -0.009345848
v 0.059932161 0 0.009370085
v 0.059941947 0.000169835 -0.010202047
v 0.059962448 0.000233244 -0.010210538
v 0.059969395 0.0003 -0.010213417
v 0.059969395 0.0003 0.010237654
v 0.059969395 0.01301 -0.010213417
v 0.059969395 0.01301 0.010237654
v 0.059997242 7.522e-06 0.009384939
v 0.060025163 7.522e-06 -0.009229948
v 0.06005 0 -0.0083
v 0.06005 0 0.008324237
v 0.060059063 2.9709e-05 0.009399049
v 0.060087353 2.9709e-05 -0.009242319
v 0.060114518 6.5451e-05 0.009411707
v 0.060116757 7.522e-06 -0.0083
v 0.060116757 7.522e-06 0.008324237
v 0.060143143 6.5451e-05 -0.009253415
v 0.060160827 0.000112953 0.009422277
v 0.060180165 2.9709e-05 -0.0083
v 0.060180165 2.9709e-05 0.008324237
v 0.060189731 0.000112953 -0.009262683
v 0.060195673 0.000169835 0.00943023
v 0.060217306 0.000233244 0.009435168
v 0.060224786 0.000169835 -0.009269656
v 0.060237046 6.5451e-05 -0.0083
v 0.060237046 6.5451e-05 0.008324237
v 0.06024655 0.000233244 -0.009273984
v 0.060253926 0.0003 -0.009275451
v 0.060253926 0.0003 0.009299688
v 0.060253926 0.01301 -0.009275451
v 0.060253926 0.01301 0.009299688
v 0.060284548 0.000112953 -0.0083
v 0.060284548 0.000112953 0.008324237
v 0.060320288 0.000169835 -0.0083
v 0.060320288 0.000169835 0.008324237
v 0.060342476 0.000233244 -0.0083
v 0.060342476 0.000233244 0.008324237
v 0.060349997 0.0003 -0.0083
v 0.060349997 0.0003 0.008324237
v 0.060349997 0.01301 -0.0083
v 0.060349997 0.01301 0.008324237

f 874 901 869
f 874 869 847
f 874 847 849
f 874 849 855
f 874 855 885
f 909 957 901
f 909 885 905
f 909 874 885
f 909 901 874
f 959 1031 1001
f 959 1001 957
f 959 905 933
f 959 957 909
f 959 909 905
f 1003 1055 1031
f 1003 933 963
f 1003 1031 959
f 1003 959 933
f 1019 983 1089
f 1019 1089 1079
f 1019 1079 1055
f 1019 963 981
f 1019 981 983
f 1019 1003 963
f 1019 1055 1003
f 983 984 1090
f 983 1090 1089
f 1020 1056 1080
f 1020 1080 1090
f 1020 1090 984
f 1020 984 982
f 1020 982 964
f 1004 1032 1056
f 1004 964 934
f 1004 1020 964
f 1004 1056 1020
f 960 958 1002
f 960 1002 1032
f 960 934 906
f 960 1032 1004
f 960 1004 934
f 910 902 958
f 910 906 886
f 910 958 960
f 910 960 906
f 875 850 848
f 875 848 870
f 875 870 902
f 875 886 856
f 875 856 850
f 875 910 886
f 875 902 910
f 850 334 332
f 850 332 848
f 283 258 290
f 283 290 332
f 283 332 334
f 283 334 302
f 283 302 272
f 248 202 258
f 248 272 252
f 248 283 272
f 248 258 283
f 198 95 125
f 198 125 202
f 198 252 224
f 198 202 248
f 198 248 252
f 121 71 95
f 121 224 194
f 121 95 198
f 121 198 224
f 105 141 37
f 105 37 47
f 105 47 71
f 105 194 143
f 105 143 141
f 105 121 194
f 105 71 121
f 141 140 36
f 141 36 37
f 104 70 46
f 104 46 36
f 104 36 140
f 104 140 142
f 104 142 193
f 120 94 70
f 120 193 223
f 120 104 193
f 120 70 104
f 197 201 124
f 197 124 94
f 197 223 251
f 197 94 120
f 197 120 223
f 247 257 201
f 247 251 271
f 247 201 197
f 247 197 251
f 282 333 331
f 282 331 289
f 282 289 257
f 282 271 301
f 282 301 333
f 282 247 271
f 282 257 247
f 333 849 847
f 333 847 331
f 12 1 10
f 9 10 1
f 13 1 12
f 7 9 1
f 15 1 13
f 17 1 15
f 19 1 17
f 3 7 1
f 36 19 21
f 36 21 23
f 36 23 25
f 36 25 27
f 36 27 30
f 36 1 19
f 32 36 30
f 33 36 32
f 34 36 33
f 2 6 5
f 2 5 4
f 2 4 3
f 2 3 1
f 8 6 2
f 11 8 2
f 14 11 2
f 16 14 2
f 18 16 2
f 37 34 35
f 37 35 31
f 37 31 29
f 37 29 28
f 37 28 26
f 37 26 24
f 37 24 22
f 37 22 20
f 37 20 18
f 37 36 34
f 37 18 2
f 289 331 325
f 289 325 287
f 257 287 255
f 257 289 287
f 201 255 199
f 201 257 255
f 124 199 122
f 124 201 199
f 94 122 92
f 94 124 122
f 70 92 68
f 70 94 92
f 46 68 44
f 46 70 68
f 36 44 1
f 36 46 44
f 719 841 711
f 675 711 841
f 727 841 719
f 643 675 841
f 735 841 727
f 619 643 841
f 739 847 841
f 739 841 735
f 731 847 739
f 723 847 731
f 715 847 723
f 679 847 715
f 647 847 679
f 623 847 647
f 579 619 841
f 575 579 841
f 577 581 579
f 577 579 575
f 325 469 575
f 325 353 365
f 325 365 373
f 325 373 381
f 325 381 409
f 325 409 445
f 325 445 469
f 325 575 841
f 331 459 423
f 331 423 387
f 331 387 379
f 331 379 371
f 331 371 359
f 331 359 353
f 331 353 325
f 331 847 623
f 331 623 581
f 331 581 577
f 331 577 483
f 331 483 459
f 1079 1089 1087
f 1079 1087 1077
f 1055 1077 1053
f 1055 1079 1077
f 1031 1053 1029
f 1031 1055 1053
f 1001 1029 999
f 1001 1031 1029
f 957 999 955
f 957 1001 999
f 901 955 899
f 901 957 955
f 869 899 867
f 869 901 899
f 847 867 841
f 847 869 867
f 333 142 140
f 333 193 142
f 333 223 193
f 333 251 223
f 333 271 251
f 333 301 271
f 334 140 141
f 334 272 302
f 334 252 272
f 334 224 252
f 334 194 224
f 334 143 194
f 334 141 143
f 334 333 140
f 433 333 361
f 349 361 333
f 521 333 433
f 345 349 333
f 341 345 333
f 525 333 521
f 529 333 525
f 337 341 333
f 335 333 334
f 335 337 333
f 338 335 334
f 342 338 334
f 346 342 334
f 350 346 334
f 362 350 334
f 434 362 334
f 522 434 334
f 526 522 334
f 530 526 334
f 765 549 553
f 765 553 761
f 757 553 557
f 757 761 553
f 769 549 765
f 769 545 549
f 753 557 561
f 753 757 557
f 773 545 769
f 773 541 545
f 749 753 561
f 749 561 565
f 745 565 569
f 745 749 565
f 743 745 569
f 743 569 573
f 746 743 573
f 746 573 570
f 750 570 566
f 750 746 570
f 754 566 562
f 754 750 566
f 758 562 558
f 758 754 562
f 762 558 554
f 762 758 558
f 766 554 550
f 766 762 554
f 770 550 546
f 770 766 550
f 849 781 785
f 849 785 789
f 849 789 793
f 849 793 797
f 849 797 801
f 849 801 805
f 849 805 809
f 774 546 542
f 774 770 546
f 813 849 809
f 905 855 849
f 905 885 855
f 983 933 905
f 983 963 933
f 983 981 963
f 983 813 817
f 983 817 821
f 983 849 813
f 983 905 849
f 984 983 821
f 984 821 818
f 984 818 814
f 850 984 814
f 850 814 810
f 850 810 806
f 850 806 802
f 850 802 798
f 850 798 794
f 850 794 790
f 850 790 786
f 850 786 782
f 886 850 856
f 934 984 850
f 934 982 984
f 934 964 982
f 934 886 906
f 934 850 886
f 849 333 533
f 533 333 529
f 849 533 537
f 849 537 541
f 849 541 781
f 781 541 777
f 777 541 773
f 334 850 534
f 534 850 538
f 538 850 542
f 542 850 782
f 542 782 778
f 542 778 774
f 334 534 530
f 376 326 384
f 420 384 326
f 368 326 376
f 448 420 326
f 356 326 368
f 472 448 326
f 358 332 326
f 358 326 356
f 370 332 358
f 378 332 370
f 386 332 378
f 422 332 386
f 450 332 422
f 474 332 450
f 622 472 326
f 842 742 738
f 842 738 730
f 842 730 722
f 842 722 714
f 842 714 678
f 842 678 646
f 842 646 622
f 842 622 326
f 848 626 650
f 848 650 682
f 848 682 718
f 848 718 726
f 848 726 734
f 848 734 742
f 848 742 842
f 848 332 626
f 626 332 474
f 39 1 38
f 39 2 1
f 41 38 40
f 41 39 38
f 43 40 42
f 43 41 40
f 50 42 49
f 50 43 42
f 56 49 55
f 56 50 49
f 60 55 59
f 60 56 55
f 65 59 64
f 65 60 59
f 286 256 254
f 318 288 316
f 320 288 318
f 322 288 320
f 324 288 322
f 326 288 324
f 66 60 65
f 66 65 75
f 62 56 60
f 62 60 66
f 62 66 75
f 58 50 56
f 58 62 75
f 58 56 62
f 54 43 50
f 54 58 75
f 54 50 58
f 51 41 43
f 51 54 75
f 51 43 54
f 48 45 2
f 48 39 41
f 48 2 39
f 48 41 51
f 77 75 91
f 76 75 77
f 73 51 75
f 73 75 76
f 89 77 91
f 72 69 45
f 72 51 73
f 72 45 48
f 72 48 51
f 87 77 89
f 85 77 87
f 83 76 77
f 83 77 85
f 81 73 76
f 81 76 83
f 79 93 69
f 79 69 72
f 79 72 73
f 79 73 81
f 103 91 119
f 103 87 89
f 103 89 91
f 103 85 87
f 101 85 103
f 101 83 85
f 99 83 101
f 99 81 83
f 97 79 81
f 97 81 99
f 97 93 79
f 117 103 119
f 115 103 117
f 113 103 115
f 111 103 113
f 111 101 103
f 109 99 101
f 109 101 111
f 107 97 99
f 107 123 93
f 107 93 97
f 107 99 109
f 135 117 119
f 135 111 113
f 135 113 115
f 135 119 196
f 135 115 117
f 129 111 135
f 129 109 111
f 127 123 107
f 127 107 109
f 127 109 129
f 192 135 196
f 157 135 192
f 155 135 157
f 153 135 155
f 151 129 135
f 151 135 153
f 149 200 123
f 149 123 127
f 149 127 129
f 149 129 151
f 214 196 254
f 214 192 196
f 214 157 192
f 214 155 157
f 208 153 155
f 208 155 214
f 206 151 153
f 206 153 208
f 204 200 149
f 204 149 151
f 204 151 206
f 250 214 254
f 250 254 256
f 246 250 256
f 246 214 250
f 240 246 256
f 240 214 246
f 238 208 214
f 238 240 256
f 238 214 240
f 236 206 208
f 236 238 256
f 236 208 238
f 234 256 200
f 234 200 204
f 234 236 256
f 234 204 206
f 234 206 236
f 284 312 314
f 284 286 312
f 284 256 286
f 281 314 316
f 281 284 314
f 281 316 288
f 281 256 284
f 280 281 288
f 280 256 281
f 279 280 288
f 279 256 280
f 278 279 288
f 278 256 279
f 277 278 288
f 277 256 278
f 277 288 256
f 840 842 326
f 840 326 324
f 838 324 322
f 838 840 324
f 836 322 320
f 836 838 322
f 834 320 318
f 834 836 320
f 832 318 316
f 832 834 318
f 830 316 314
f 830 832 316
f 828 314 312
f 828 830 314
f 1050 1054 1034
f 1075 1078 1069
f 1082 1078 1075
f 1084 1078 1082
f 1086 1078 1084
f 1088 1078 1086
f 861 830 828
f 861 828 872
f 862 832 830
f 862 830 861
f 862 861 872
f 863 834 832
f 863 862 872
f 863 832 862
f 864 836 834
f 864 863 872
f 864 834 863
f 865 838 836
f 865 864 872
f 865 836 864
f 866 868 842
f 866 840 838
f 866 842 840
f 866 838 865
f 895 872 904
f 896 872 895
f 897 865 872
f 897 872 896
f 908 895 904
f 898 900 868
f 898 865 897
f 898 868 866
f 898 866 865
f 912 895 908
f 918 895 912
f 920 896 895
f 920 895 918
f 922 897 896
f 922 896 920
f 924 956 900
f 924 900 898
f 924 898 897
f 924 897 922
f 944 904 962
f 944 912 908
f 944 908 904
f 944 918 912
f 950 918 944
f 950 920 918
f 952 920 950
f 952 922 920
f 954 924 922
f 954 922 952
f 954 956 924
f 966 944 962
f 968 944 966
f 970 944 968
f 972 944 970
f 972 950 944
f 974 952 950
f 974 950 972
f 976 954 952
f 976 1000 956
f 976 956 954
f 976 952 974
f 990 966 962
f 990 972 970
f 990 970 968
f 990 962 1006
f 990 968 966
f 996 972 990
f 996 974 972
f 998 1000 976
f 998 976 974
f 998 974 996
f 1008 990 1006
f 1010 990 1008
f 1012 990 1010
f 1014 990 1012
f 1016 996 990
f 1016 990 1014
f 1018 1030 1000
f 1018 1000 998
f 1018 998 996
f 1018 996 1016
f 1022 1006 1034
f 1022 1008 1006
f 1022 1010 1008
f 1022 1012 1010
f 1024 1014 1012
f 1024 1012 1022
f 1026 1016 1014
f 1026 1014 1024
f 1028 1030 1018
f 1028 1018 1016
f 1028 1016 1026
f 1036 1022 1034
f 1036 1034 1054
f 1038 1036 1054
f 1038 1022 1036
f 1040 1038 1054
f 1040 1022 1038
f 1042 1024 1022
f 1042 1040 1054
f 1042 1022 1040
f 1044 1026 1024
f 1044 1042 1054
f 1044 1024 1042
f 1046 1054 1030
f 1046 1030 1028
f 1046 1044 1054
f 1046 1028 1026
f 1046 1026 1044
f 1057 1060 1065
f 1057 1050 1060
f 1057 1054 1050
f 1061 1065 1069
f 1061 1057 1065
f 1061 1069 1078
f 1061 1054 1057
f 1063 1061 1078
f 1063 1054 1061
f 1067 1063 1078
f 1067 1054 1063
f 1071 1067 1078
f 1071 1054 1067
f 1072 1071 1078
f 1072 1054 1071
f 1072 1078 1054
f 1085 1087 1088
f 1085 1088 1086
f 1083 1086 1084
f 1083 1085 1086
f 1081 1084 1082
f 1081 1083 1084
f 1074 1082 1075
f 1074 1081 1082
f 1068 1075 1069
f 1068 1074 1075
f 1064 1069 1065
f 1064 1068 1069
f 1059 1065 1060
f 1059 1064 1065
f 871 899 903
f 833 867 831
f 835 867 833
f 837 867 835
f 839 867 837
f 841 867 839
f 1058 1064 1059
f 1058 1059 1049
f 1062 1068 1064
f 1062 1064 1058
f 1062 1058 1049
f 1066 1074 1068
f 1066 1062 1049
f 1066 1068 1062
f 1070 1081 1074
f 1070 1066 1049
f 1070 1074 1066
f 1073 1083 1081
f 1073 1070 1049
f 1073 1081 1070
f 1076 1077 1087
f 1076 1085 1083
f 1076 1087 1085
f 1076 1083 1073
f 1047 1049 1033
f 1048 1049 1047
f 1051 1073 1049
f 1051 1049 1048
f 1035 1047 1033
f 1052 1053 1077
f 1052 1073 1051
f 1052 1077 1076
f 1052 1076 1073
f 1037 1047 1035
f 1039 1047 1037
f 1041 1048 1047
f 1041 1047 1039
f 1043 1051 1048
f 1043 1048 1041
f 1045 1029 1053
f 1045 1053 1052
f 1045 1052 1051
f 1045 1051 1043
f 1021 1033 1005
f 1021 1037 1035
f 1021 1035 1033
f 1021 1039 1037
f 1023 1039 1021
f 1023 1041 1039
f 1025 1041 1023
f 1025 1043 1041
f 1027 1045 1043
f 1027 1043 1025
f 1027 1029 1045
f 1007 1021 1005
f 1009 1021 1007
f 1011 1021 1009
f 1013 1021 1011
f 1013 1023 1021
f 1015 1025 1023
f 1015 1023 1013
f 1017 1027 1025
f 1017 999 1029
f 1017 1029 1027
f 1017 1025 1015
f 989 1007 1005
f 989 1013 1011
f 989 1011 1009
f 989 1005 961
f 989 1009 1007
f 995 1013 989
f 995 1015 1013
f 997 999 1017
f 997 1017 1015
f 997 1015 995
f 965 989 961
f 967 989 965
f 969 989 967
f 971 989 969
f 973 995 989
f 973 989 971
f 975 955 999
f 975 999 997
f 975 997 995
f 975 995 973
f 943 961 903
f 943 965 961
f 943 967 965
f 943 969 967
f 949 971 969
f 949 969 943
f 951 973 971
f 951 971 949
f 953 955 975
f 953 975 973
f 953 973 951
f 907 943 903
f 907 903 899
f 911 907 899
f 911 943 907
f 917 911 899
f 917 943 911
f 919 949 943
f 919 917 899
f 919 943 917
f 921 951 949
f 921 919 899
f 921 949 919
f 923 899 955
f 923 955 953
f 923 921 899
f 923 953 951
f 923 951 921
f 873 823 829
f 873 871 823
f 873 899 871
f 876 829 831
f 876 873 829
f 876 831 867
f 876 899 873
f 877 876 867
f 877 899 876
f 878 877 867
f 878 899 877
f 879 878 867
f 879 899 878
f 880 879 867
f 880 899 879
f 880 867 899
f 323 325 841
f 323 841 839
f 321 839 837
f 321 323 839
f 319 837 835
f 319 321 837
f 317 835 833
f 317 319 835
f 315 833 831
f 315 317 833
f 313 831 829
f 313 315 831
f 307 829 823
f 307 313 829
f 74 68 90
f 49 44 55
f 42 44 49
f 40 44 42
f 38 44 40
f 1 44 38
f 296 313 307
f 296 307 285
f 295 315 313
f 295 296 285
f 295 313 296
f 294 317 315
f 294 295 285
f 294 315 295
f 293 319 317
f 293 294 285
f 293 317 294
f 292 321 319
f 292 293 285
f 292 319 293
f 291 287 325
f 291 323 321
f 291 325 323
f 291 321 292
f 262 285 253
f 261 285 262
f 260 292 285
f 260 285 261
f 249 262 253
f 259 255 287
f 259 292 260
f 259 287 291
f 259 291 292
f 245 262 249
f 239 262 245
f 237 261 262
f 237 262 239
f 235 260 261
f 235 261 237
f 233 199 255
f 233 255 259
f 233 259 260
f 233 260 235
f 213 253 195
f 213 245 249
f 213 249 253
f 213 239 245
f 207 239 213
f 207 237 239
f 205 237 207
f 205 235 237
f 203 233 235
f 203 235 205
f 203 199 233
f 191 213 195
f 156 213 191
f 154 213 156
f 152 213 154
f 152 207 213
f 150 205 207
f 150 207 152
f 148 203 205
f 148 122 199
f 148 199 203
f 148 205 150
f 134 191 195
f 134 152 154
f 134 154 156
f 134 195 118
f 134 156 191
f 128 152 134
f 128 150 152
f 126 122 148
f 126 148 150
f 126 150 128
f 116 134 118
f 114 134 116
f 112 134 114
f 110 134 112
f 108 128 134
f 108 134 110
f 106 92 122
f 106 122 126
f 106 126 128
f 106 128 108
f 102 118 90
f 102 116 118
f 102 114 116
f 102 112 114
f 100 110 112
f 100 112 102
f 98 108 110
f 98 110 100
f 96 92 106
f 96 106 108
f 96 108 98
f 88 102 90
f 88 90 68
f 86 88 68
f 86 102 88
f 84 86 68
f 84 102 86
f 82 100 102
f 82 84 68
f 82 102 84
f 80 98 100
f 80 82 68
f 80 100 82
f 78 68 92
f 78 92 96
f 78 80 68
f 78 96 98
f 78 98 80
f 67 64 59
f 67 74 64
f 67 68 74
f 63 59 55
f 63 67 59
f 63 55 44
f 63 68 67
f 61 63 44
f 61 68 63
f 57 61 44
f 57 68 61
f 53 57 44
f 53 68 57
f 52 53 44
f 52 68 53
f 52 44 68
f 210 196 119
f 210 230 196
f 145 119 91
f 145 210 119
f 268 254 196
f 268 196 230
f 137 91 75
f 137 145 91
f 298 286 254
f 298 254 268
f 131 75 65
f 131 137 75
f 311 312 286
f 311 286 298
f 130 65 64
f 130 131 65
f 136 130 64
f 136 64 74
f 144 136 74
f 144 74 90
f 209 144 90
f 209 90 118
f 195 209 118
f 195 229 209
f 253 229 195
f 253 267 229
f 285 267 253
f 285 297 267
f 307 297 285
f 307 308 297
f 827 828 312
f 827 312 311
f 858 872 828
f 858 828 827
f 888 904 872
f 888 872 858
f 926 962 904
f 926 904 888
f 946 962 926
f 1006 962 946
f 1034 946 978
f 1034 1006 946
f 1050 978 986
f 1050 1034 978
f 1060 986 992
f 1060 1050 986
f 823 308 307
f 823 824 308
f 1059 1060 992
f 1059 992 991
f 871 824 823
f 871 857 824
f 1049 991 985
f 1049 1059 991
f 903 887 857
f 903 857 871
f 1033 985 977
f 1033 1049 985
f 961 925 887
f 961 887 903
f 1005 977 945
f 1005 945 925
f 1005 1033 977
f 1005 925 961
f 162 3 158
f 162 7 3
f 164 9 7
f 164 7 162
f 165 10 9
f 165 9 164
f 167 12 10
f 167 10 165
f 168 13 12
f 168 12 167
f 170 15 13
f 170 13 168
f 172 17 15
f 172 15 170
f 174 19 17
f 174 17 172
f 176 21 19
f 176 19 174
f 178 23 21
f 178 21 176
f 180 25 23
f 180 23 178
f 182 27 25
f 182 25 180
f 185 30 27
f 185 27 182
f 187 32 30
f 187 30 185
f 188 33 32
f 188 32 187
f 189 34 33
f 189 33 188
f 158 4 159
f 158 3 4
f 186 35 190
f 186 31 35
f 184 29 31
f 184 31 186
f 183 28 29
f 183 29 184
f 181 26 28
f 181 28 183
f 179 24 26
f 179 26 181
f 177 22 24
f 177 24 179
f 175 20 22
f 175 22 177
f 173 18 20
f 173 20 175
f 171 16 18
f 171 18 173
f 169 14 16
f 169 16 171
f 166 11 14
f 166 14 169
f 163 8 11
f 163 11 166
f 161 6 8
f 161 8 163
f 160 5 6
f 160 6 161
f 159 4 5
f 159 5 160
f 190 34 189
f 190 35 34
f 164 167 165
f 168 167 164
f 170 164 162
f 170 168 164
f 172 170 162
f 158 174 172
f 158 172 162
f 182 178 176
f 182 180 178
f 185 182 176
f 187 185 176
f 188 176 174
f 188 187 176
f 189 174 158
f 189 188 174
f 171 166 169
f 171 163 166
f 171 161 163
f 173 160 161
f 173 159 160
f 173 161 171
f 190 158 159
f 190 189 158
f 190 159 173
f 175 190 173
f 186 175 177
f 186 190 175
f 179 186 177
f 184 179 181
f 184 186 179
f 183 184 181
f 217 216 218
f 217 215 216
f 222 216 220
f 222 218 216
f 228 220 226
f 228 222 220
f 244 226 242
f 244 228 226
f 266 242 264
f 266 244 242
f 276 264 274
f 276 266 264
f 306 274 304
f 306 276 274
f 329 304 310
f 329 306 304
f 329 826 845
f 329 310 826
f 854 826 852
f 854 845 826
f 884 852 882
f 884 854 852
f 894 882 892
f 894 884 882
f 916 892 914
f 916 894 892
f 932 914 930
f 932 916 914
f 938 930 936
f 938 932 930
f 942 936 940
f 942 938 936
f 942 939 941
f 942 940 939
f 937 939 935
f 937 941 939
f 931 935 929
f 931 937 935
f 915 929 913
f 915 931 929
f 893 913 891
f 893 915 913
f 883 891 881
f 883 893 891
f 853 881 851
f 853 883 881
f 844 851 825
f 844 853 851
f 844 309 328
f 844 825 309
f 305 309 303
f 305 328 309
f 275 303 273
f 275 305 303
f 265 273 263
f 265 275 273
f 243 263 241
f 243 265 263
f 227 241 225
f 227 243 241
f 221 225 219
f 221 227 225
f 217 219 215
f 217 221 219
f 993 992 994
f 993 991 992
f 860 827 846
f 860 858 827
f 890 888 858
f 890 858 860
f 928 926 888
f 928 888 890
f 948 946 926
f 948 926 928
f 980 978 946
f 980 946 948
f 988 986 978
f 988 978 980
f 994 992 986
f 994 986 988
f 846 311 330
f 846 827 311
f 139 131 133
f 139 137 131
f 147 145 137
f 147 137 139
f 212 210 145
f 212 145 147
f 232 230 210
f 232 210 212
f 270 268 230
f 270 230 232
f 300 298 268
f 300 268 270
f 330 311 298
f 330 298 300
f 133 130 132
f 133 131 130
f 299 308 327
f 299 297 308
f 269 267 297
f 269 297 299
f 231 229 267
f 231 267 269
f 211 209 229
f 211 229 231
f 146 144 209
f 146 209 211
f 138 136 144
f 138 144 146
f 132 130 136
f 132 136 138
f 327 824 843
f 327 308 824
f 987 991 993
f 987 985 991
f 979 977 985
f 979 985 987
f 947 945 977
f 947 977 979
f 927 925 945
f 927 945 947
f 889 887 925
f 889 925 927
f 859 857 887
f 859 887 889
f 843 824 857
f 843 857 859
f 266 232 212
f 266 212 244
f 228 212 147
f 228 244 212
f 276 270 232
f 276 232 266
f 222 147 139
f 222 228 147
f 306 300 270
f 306 270 276
f 329 330 300
f 329 300 306
f 218 139 133
f 218 222 139
f 217 133 132
f 217 218 133
f 221 217 132
f 221 132 138
f 227 221 138
f 227 138 146
f 243 227 146
f 243 146 211
f 231 265 243
f 231 243 211
f 269 265 231
f 269 275 265
f 299 275 269
f 299 305 275
f 327 305 299
f 327 328 305
f 845 846 330
f 845 330 329
f 854 860 846
f 854 846 845
f 890 860 854
f 884 890 854
f 894 928 890
f 894 890 884
f 916 928 894
f 948 928 916
f 980 916 932
f 980 948 916
f 988 932 938
f 988 980 932
f 994 938 942
f 994 988 938
f 843 328 327
f 843 844 328
f 843 853 844
f 993 942 941
f 993 994 942
f 987 941 937
f 987 993 941
f 859 853 843
f 889 883 853
f 889 853 859
f 979 937 931
f 979 987 937
f 927 893 883
f 927 915 893
f 927 883 889
f 947 931 915
f 947 979 931
f 947 915 927
f 593 586 585
f 593 594 586
f 601 602 594
f 601 594 593
f 609 610 602
f 609 602 601
f 617 618 610
f 617 610 609
f 633 634 618
f 633 618 617
f 641 642 634
f 641 634 633
f 657 658 642
f 657 642 641
f 665 666 658
f 665 658 657
f 673 674 666
f 673 666 665
f 689 690 674
f 689 674 673
f 697 698 690
f 697 690 689
f 705 698 697
f 705 706 698
f 709 706 705
f 709 710 706
f 701 710 709
f 701 702 710
f 693 702 701
f 693 694 702
f 685 694 693
f 685 686 694
f 669 686 685
f 669 670 686
f 661 670 669
f 661 662 670
f 653 662 661
f 653 654 662
f 637 654 653
f 637 638 654
f 629 638 637
f 629 630 638
f 613 630 629
f 613 614 630
f 605 614 613
f 605 606 614
f 597 598 606
f 597 606 605
f 589 590 598
f 589 598 597
f 585 590 589
f 585 586 590
f 689 593 585
f 689 601 593
f 689 609 601
f 689 617 609
f 689 633 617
f 689 641 633
f 689 657 641
f 689 665 657
f 689 673 665
f 689 705 697
f 689 709 705
f 689 701 709
f 689 693 701
f 689 685 693
f 689 669 685
f 689 661 669
f 689 653 661
f 689 637 653
f 689 629 637
f 689 613 629
f 689 605 613
f 689 597 605
f 689 589 597
f 689 585 589
f 399 392 391
f 399 400 392
f 407 408 400
f 407 400 399
f 417 418 408
f 417 408 407
f 431 432 418
f 431 418 417
f 443 444 432
f 443 432 431
f 457 458 444
f 457 444 443
f 467 468 458
f 467 458 457
f 481 482 468
f 481 468 467
f 491 492 482
f 491 482 481
f 499 500 492
f 499 492 491
f 507 508 500
f 507 500 499
f 515 508 507
f 515 516 508
f 519 516 515
f 519 520 516
f 511 520 519
f 511 512 520
f 503 512 511
f 503 504 512
f 495 504 503
f 495 496 504
f 487 496 495
f 487 488 496
f 477 488 487
f 477 478 488
f 463 478 477
f 463 464 478
f 453 464 463
f 453 454 464
f 439 454 453
f 439 440 454
f 427 440 439
f 427 428 440
f 413 428 427
f 413 414 428
f 403 404 414
f 403 414 413
f 395 396 404
f 395 404 403
f 391 396 395
f 391 392 396
f 499 399 391
f 499 407 399
f 499 417 407
f 499 431 417
f 499 443 431
f 499 457 443
f 499 467 457
f 499 481 467
f 499 491 481
f 499 515 507
f 499 519 515
f 499 511 519
f 499 503 511
f 499 495 503
f 499 487 495
f 499 477 487
f 499 463 477
f 499 453 463
f 499 439 453
f 499 427 439
f 499 413 427
f 499 403 413
f 499 395 403
f 499 391 395
f 649 626 625
f 649 650 626
f 681 682 650
f 681 650 649
f 717 718 682
f 717 682 681
f 725 726 718
f 725 718 717
f 733 734 726
f 733 726 725
f 741 742 734
f 741 734 733
f 737 738 742
f 737 742 741
f 729 730 738
f 729 738 737
f 721 722 730
f 721 730 729
f 713 714 722
f 713 722 721
f 677 678 714
f 677 714 713
f 645 646 678
f 645 678 677
f 621 622 646
f 621 646 645
f 625 474 473
f 625 626 474
f 471 622 621
f 471 472 622
f 428 375 383
f 428 414 375
f 404 367 375
f 404 375 414
f 440 428 383
f 440 383 419
f 396 367 404
f 396 355 367
f 454 440 419
f 454 419 447
f 392 357 355
f 392 355 396
f 464 454 447
f 464 447 471
f 400 357 392
f 400 369 357
f 478 464 471
f 408 369 400
f 377 369 408
f 488 478 471
f 418 377 408
f 496 488 471
f 504 496 471
f 385 377 418
f 385 418 432
f 444 385 432
f 421 444 458
f 421 385 444
f 449 458 468
f 449 421 458
f 473 449 468
f 473 468 482
f 473 482 492
f 473 492 500
f 473 500 508
f 621 504 471
f 621 512 504
f 614 606 621
f 598 621 606
f 630 614 621
f 590 621 598
f 590 512 621
f 638 621 645
f 638 630 621
f 586 520 512
f 586 512 590
f 654 645 677
f 654 638 645
f 594 516 520
f 594 520 586
f 662 677 713
f 662 654 677
f 670 662 713
f 721 686 670
f 721 670 713
f 729 702 694
f 729 694 686
f 729 686 721
f 737 710 702
f 737 702 729
f 625 508 516
f 625 473 508
f 625 594 602
f 625 602 610
f 625 610 618
f 625 618 634
f 625 634 642
f 625 516 594
f 741 710 737
f 741 706 710
f 649 642 658
f 649 625 642
f 733 706 741
f 733 698 706
f 681 658 666
f 681 649 658
f 725 698 733
f 725 674 690
f 725 690 698
f 717 674 725
f 717 681 666
f 717 666 674
f 447 472 471
f 447 448 472
f 419 420 448
f 419 448 447
f 383 384 420
f 383 420 419
f 375 376 384
f 375 384 383
f 367 368 376
f 367 376 375
f 355 356 368
f 355 368 367
f 357 358 356
f 357 356 355
f 369 370 358
f 369 358 357
f 377 378 370
f 377 370 369
f 385 386 378
f 385 378 377
f 421 422 386
f 421 386 385
f 449 450 422
f 449 422 421
f 473 474 450
f 473 450 449
f 514 517 518
f 514 513 517
f 506 505 513
f 506 513 514
f 498 497 505
f 498 505 506
f 490 489 497
f 490 497 498
f 480 479 489
f 480 489 490
f 466 465 479
f 466 479 480
f 456 455 465
f 456 465 466
f 442 441 455
f 442 455 456
f 430 429 441
f 430 441 442
f 416 415 429
f 416 429 430
f 406 405 415
f 406 415 416
f 398 405 406
f 398 397 405
f 390 397 398
f 390 389 397
f 394 389 390
f 394 393 389
f 402 393 394
f 402 401 393
f 412 401 402
f 412 411 401
f 426 411 412
f 426 425 411
f 438 425 426
f 438 437 425
f 452 437 438
f 452 451 437
f 462 451 452
f 462 461 451
f 476 461 462
f 476 475 461
f 486 475 476
f 486 485 475
f 494 485 486
f 494 493 485
f 502 501 493
f 502 493 494
f 510 509 501
f 510 501 502
f 518 509 510
f 518 517 509
f 416 514 518
f 416 506 514
f 416 498 506
f 416 490 498
f 416 480 490
f 416 466 480
f 416 456 466
f 416 442 456
f 416 430 442
f 416 398 406
f 416 390 398
f 416 394 390
f 416 402 394
f 416 412 402
f 416 426 412
f 416 438 426
f 416 452 438
f 416 462 452
f 416 476 462
f 416 486 476
f 416 494 486
f 416 502 494
f 416 510 502
f 416 518 510
f 704 707 708
f 704 703 707
f 696 695 703
f 696 703 704
f 688 687 695
f 688 695 696
f 672 671 687
f 672 687 688
f 664 663 671
f 664 671 672
f 656 655 663
f 656 663 664
f 640 639 655
f 640 655 656
f 632 631 639
f 632 639 640
f 616 615 631
f 616 631 632
f 608 607 615
f 608 615 616
f 600 599 607
f 600 607 608
f 592 599 600
f 592 591 599
f 584 591 592
f 584 583 591
f 588 583 584
f 588 587 583
f 596 587 588
f 596 595 587
f 604 595 596
f 604 603 595
f 612 603 604
f 612 611 603
f 628 611 612
f 628 627 611
f 636 627 628
f 636 635 627
f 652 635 636
f 652 651 635
f 660 651 652
f 660 659 651
f 668 659 660
f 668 667 659
f 684 667 668
f 684 683 667
f 692 691 683
f 692 683 684
f 700 699 691
f 700 691 692
f 708 699 700
f 708 707 699
f 608 704 708
f 608 696 704
f 608 688 696
f 608 672 688
f 608 664 672
f 608 656 664
f 608 640 656
f 608 632 640
f 608 616 632
f 608 592 600
f 608 584 592
f 608 588 584
f 608 596 588
f 608 604 596
f 608 612 604
f 608 628 612
f 608 636 628
f 608 652 636
f 608 660 652
f 608 668 660
f 608 684 668
f 608 692 684
f 608 700 692
f 608 708 700
f 644 619 620
f 644 643 619
f 676 675 643
f 676 643 644
f 712 711 675
f 712 675 676
f 720 719 711
f 720 711 712
f 728 727 719
f 728 719 720
f 736 735 727
f 736 727 728
f 740 739 735
f 740 735 736
f 732 731 739
f 732 739 740
f 724 723 731
f 724 731 732
f 716 715 723
f 716 723 724
f 680 679 715
f 680 715 716
f 648 647 679
f 648 679 680
f 624 623 647
f 624 647 648
f 620 579 580
f 620 619 579
f 580 581 582
f 580 579 581
f 582 623 624
f 582 581 623
f 683 728 720
f 667 720 712
f 667 683 720
f 691 728 683
f 659 712 676
f 659 667 712
f 699 736 728
f 699 728 691
f 651 676 644
f 651 659 676
f 707 740 736
f 707 736 699
f 635 644 620
f 635 651 644
f 703 732 740
f 703 740 707
f 627 635 620
f 695 732 703
f 611 627 620
f 724 732 695
f 687 724 695
f 603 611 620
f 671 724 687
f 595 603 620
f 716 724 671
f 663 716 671
f 587 595 620
f 680 716 663
f 680 663 655
f 648 680 655
f 648 655 639
f 624 639 631
f 624 631 615
f 624 615 607
f 624 607 599
f 624 599 591
f 624 648 639
f 580 587 620
f 580 583 587
f 582 624 591
f 582 583 580
f 582 591 583
f 576 469 470
f 576 575 469
f 460 483 484
f 460 459 483
f 424 423 459
f 424 459 460
f 388 387 423
f 388 423 424
f 380 379 387
f 380 387 388
f 372 371 379
f 372 379 380
f 360 359 371
f 360 371 372
f 354 353 359
f 354 359 360
f 366 365 353
f 366 353 354
f 374 373 365
f 374 365 366
f 382 381 373
f 382 373 374
f 410 409 381
f 410 381 382
f 446 445 409
f 446 409 410
f 470 469 445
f 470 445 446
f 484 577 578
f 484 483 577
f 578 575 576
f 578 577 575
f 485 493 470
f 501 576 470
f 501 470 493
f 475 485 470
f 509 576 501
f 461 470 446
f 461 475 470
f 517 578 576
f 517 576 509
f 451 446 410
f 451 461 446
f 513 578 517
f 437 451 410
f 382 437 410
f 425 437 382
f 411 425 382
f 374 411 382
f 401 411 374
f 366 393 401
f 366 401 374
f 354 393 366
f 354 389 393
f 484 513 505
f 484 505 497
f 484 497 489
f 484 489 479
f 484 479 465
f 484 578 513
f 360 389 354
f 360 397 389
f 460 465 455
f 460 484 465
f 372 397 360
f 372 405 397
f 424 460 455
f 424 455 441
f 380 429 415
f 380 415 405
f 380 405 372
f 388 424 441
f 388 441 429
f 388 429 380
f 819 822 821
f 819 821 817
f 815 817 813
f 815 819 817
f 811 813 809
f 811 815 813
f 807 811 809
f 807 809 805
f 803 807 805
f 803 805 801
f 799 803 801
f 799 801 797
f 795 799 797
f 795 797 793
f 791 795 793
f 791 793 789
f 787 791 789
f 787 789 785
f 783 787 785
f 783 785 781
f 779 783 781
f 779 781 777
f 775 779 777
f 775 777 773
f 771 775 773
f 771 773 769
f 767 771 769
f 767 769 765
f 763 767 765
f 763 765 761
f 759 763 761
f 759 761 757
f 755 759 757
f 755 757 753
f 751 755 753
f 751 753 749
f 747 749 745
f 747 751 749
f 744 745 743
f 744 747 745
f 748 744 743
f 748 743 746
f 752 746 750
f 752 748 746
f 756 750 754
f 756 752 750
f 760 758 762
f 760 754 758
f 760 756 754
f 764 760 762
f 768 762 766
f 768 764 762
f 772 766 770
f 772 768 766
f 776 770 774
f 776 772 770
f 780 776 774
f 780 778 782
f 780 774 778
f 784 780 782
f 788 784 782
f 788 782 786
f 792 788 786
f 792 786 790
f 796 792 790
f 796 790 794
f 800 796 794
f 800 794 798
f 804 800 798
f 804 802 806
f 804 798 802
f 808 804 806
f 808 806 810
f 812 808 810
f 816 812 810
f 816 810 814
f 820 816 814
f 820 814 818
f 822 820 818
f 822 818 821
f 764 822 819
f 764 819 815
f 764 815 811
f 764 811 807
f 764 807 803
f 764 803 799
f 764 799 795
f 764 795 791
f 764 791 787
f 764 787 783
f 764 783 779
f 764 779 775
f 764 775 771
f 764 771 767
f 764 767 763
f 764 763 759
f 764 759 755
f 764 755 751
f 764 751 747
f 764 747 744
f 764 744 748
f 764 748 752
f 764 752 756
f 764 756 760
f 764 768 772
f 764 772 776
f 764 776 780
f 764 780 784
f 764 784 788
f 764 788 792
f 764 792 796
f 764 796 800
f 764 800 804
f 764 804 808
f 764 808 812
f 764 812 816
f 764 816 820
f 764 820 822
f 571 574 573
f 571 573 569
f 567 569 565
f 567 571 569
f 563 565 561
f 563 567 565
f 559 563 561
f 559 561 557
f 555 559 557
f 555 557 553
f 551 555 553
f 551 553 549
f 547 551 549
f 547 549 545
f 543 547 545
f 543 545 541
f 539 543 541
f 539 541 537
f 535 539 537
f 535 537 533
f 531 535 533
f 531 533 529
f 527 531 529
f 527 529 525
f 523 527 525
f 523 525 521
f 435 523 521
f 435 521 433
f 363 435 433
f 363 433 361
f 351 363 361
f 351 361 349
f 347 351 349
f 347 349 345
f 343 347 345
f 343 345 341
f 339 341 337
f 339 343 341
f 336 337 335
f 336 339 337
f 340 336 335
f 340 335 338
f 344 338 342
f 344 340 338
f 348 342 346
f 348 344 342
f 352 350 362
f 352 346 350
f 352 348 346
f 364 352 362
f 436 362 434
f 436 364 362
f 524 434 522
f 524 436 434
f 528 522 526
f 528 524 522
f 532 528 526
f 532 530 534
f 532 526 530
f 536 532 534
f 540 536 534
f 540 534 538
f 544 540 538
f 544 538 542
f 548 544 542
f 548 542 546
f 552 548 546
f 552 546 550
f 556 552 550
f 556 554 558
f 556 550 554
f 560 556 558
f 560 558 562
f 564 560 562
f 568 564 562
f 568 562 566
f 572 568 566
f 572 566 570
f 574 572 570
f 574 570 573
f 364 574 571
f 364 571 567
f 364 567 563
f 364 563 559
f 364 559 555
f 364 555 551
f 364 551 547
f 364 547 543
f 364 543 539
f 364 539 535
f 364 535 531
f 364 531 527
f 364 527 523
f 364 523 435
f 364 435 363
f 364 363 351
f 364 351 347
f 364 347 343
f 364 343 339
f 364 339 336
f 364 336 340
f 364 340 344
f 364 344 348
f 364 348 352
f 364 436 524
f 364 524 528
f 364 528 532
f 364 532 536
f 364 536 540
f 364 540 544
f 364 544 548
f 364 548 552
f 364 552 556
f 364 556 560
f 364 560 564
f 364 564 568
f 364 568 572
f 364 572 574
f 47 37 2
f 47 2 45
f 71 45 69
f 71 47 45
f 95 69 93
f 95 71 69
f 125 93 123
f 125 95 93
f 202 123 200
f 202 125 123
f 258 200 256
f 258 202 200
f 290 256 288
f 290 258 256
f 332 288 326
f 332 290 288
f 1089 1090 1088
f 1089 1088 1087
f 870 848 842
f 870 842 868
f 902 868 900
f 902 870 868
f 958 900 956
f 958 902 900
f 1002 956 1000
f 1002 958 956
f 1032 1000 1030
f 1032 1002 1000
f 1056 1030 1054
f 1056 1032 1030
f 1080 1054 1078
f 1080 1056 1054
f 1090 1078 1088
f 1090 1080 1078
f 216 310 304
f 216 304 274
f 216 274 264
f 216 264 242
f 216 242 226
f 216 226 220
f 309 215 219
f 309 219 225
f 309 225 241
f 309 241 263
f 309 263 273
f 309 273 303
f 309 216 215
f 309 310 216
f 914 892 882
f 940 936 930
f 940 930 914
f 940 882 852
f 940 852 826
f 940 914 882
f 825 826 310
f 825 310 309
f 939 940 826
f 939 826 825
f 929 935 939
f 891 825 851
f 891 851 881
f 891 913 929
f 891 929 939
f 891 939 825
