# generated by parts/common.py
s off
v 0.000000000 0.044000000 0.000000000
v 0.011372189 0.044000000 0.035000000
v 0.038627811 0.044000000 0.035000000
v 0.050000000 0.044000000 0.000000000
v 0.038627811 0.044000000 -0.035000000
v 0.011372189 0.044000000 -0.035000000
v 0.000000000 -0.044000000 0.000000000
v 0.011372189 -0.044000000 0.035000000
v 0.038627811 -0.044000000 0.035000000
v 0.050000000 -0.044000000 0.000000000
v 0.038627811 -0.044000000 -0.035000000
v 0.011372189 -0.044000000 -0.035000000
vn 0.000000000 1.000000000 0.000000000
vn 0.000000000 1.000000000 0.000000000
vn -0.000000000 1.000000000 0.000000000
vn 0.000000000 1.000000000 0.000000000
vn 0.000000000 -1.000000000 0.000000000
vn 0.000000000 -1.000000000 0.000000000
vn 0.000000000 -1.000000000 0.000000000
vn 0.000000000 -1.000000000 0.000000000
vn -0.951056516 0.000000000 0.309016994
vn 0.000000000 0.000000000 1.000000000
vn 0.951056516 0.000000000 0.309016994
vn 0.951056516 0.000000000 -0.309016994
vn 0.000000000 0.000000000 -1.000000000
vn -0.951056516 0.000000000 -0.309016994
vn -0.951056516 0.000000000 0.309016994
vn 0.000000000 0.000000000 1.000000000
vn 0.951056516 -0.000000000 0.309016994
vn 0.951056516 0.000000000 -0.309016994
vn 0.000000000 0.000000000 -1.000000000
vn -0.951056516 0.000000000 -0.309016994
f 1//1 2//1 3//1
f 1//2 3//2 4//2
f 1//3 4//3 5//3
f 1//4 5//4 6//4
f 7//5 9//5 8//5
f 7//6 10//6 9//6
f 7//7 11//7 10//7
f 7//8 12//8 11//8
f 7//9 8//9 2//9
f 8//10 9//10 3//10
f 9//11 10//11 4//11
f 10//12 11//12 5//12
f 11//13 12//13 6//13
f 12//14 7//14 1//14
f 7//15 2//15 1//15
f 8//16 3//16 2//16
f 9//17 4//17 3//17
f 10//18 5//18 4//18
f 11//19 6//19 5//19
f 12//20 1//20 6//20
