# WaveFront *.obj file (generated by Autodesk ATF)


g 본체1

v -0.025000 -0.070000 0.004000
v 0.025000 -0.070000 0.004000
v 0.025000 -0.070000 0.009000
v -0.025000 -0.070000 0.009000
v -0.025000 -0.015000 0.009000
v 0.025000 -0.015000 0.009000
v -0.025000 -0.015000 0.004000
v 0.025000 -0.015000 0.004000
v -0.025000 -0.015000 0.000000
v 0.025000 -0.015000 0.000000
v -0.004000 -0.010000 0.000000
v -0.004000 -0.002000 0.000000
v -0.004000 -0.002000 0.013000
v -0.004000 -0.010000 0.013000
v 0.004000 -0.010000 0.000000
v 0.004000 -0.010000 0.013000
v 0.004000 -0.002000 0.000000
v 0.004000 -0.002000 0.013000
v -0.014000 0.000000 0.000000
v -0.016000 -0.002000 0.000000
v -0.016000 -0.002000 0.013000
v -0.014000 0.000000 0.013000
v 0.014000 0.000000 0.000000
v 0.014000 0.000000 0.013000
v 0.016000 -0.002000 0.000000
v 0.016000 -0.002000 0.013000
v 0.020000 -0.002000 0.000000
v 0.020000 -0.002000 0.013000
v 0.020000 -0.010000 0.000000
v 0.020000 -0.010000 0.013000
v 0.025000 -0.010000 0.000000
v 0.025000 -0.010000 0.013000
v 0.025000 -0.015000 0.013000
v -0.025000 -0.015000 0.013000
v -0.025000 -0.010000 0.000000
v -0.025000 -0.010000 0.013000
v -0.020000 -0.010000 0.000000
v -0.020000 -0.010000 0.013000
v -0.020000 -0.002000 0.000000
v -0.020000 -0.002000 0.013000
vt 0.000000 0.000000 0.000000
vt 5.000000 0.000000 0.000000
vt 0.000000 0.500000 0.000000
vt 5.000000 0.500000 0.000000
vt -2.500000 -2.750000 0.000000
vt 2.500000 -2.750000 0.000000
vt -2.500000 2.750000 0.000000
vt 2.500000 2.750000 0.000000
vt 2.500000 2.750000 0.000000
vt -2.500000 2.750000 0.000000
vt 2.500000 -2.750000 0.000000
vt -2.500000 -2.750000 0.000000
vt 5.000000 0.400000 0.000000
vt 0.000000 0.400000 0.000000
vt 5.000000 0.000000 0.000000
vt 0.000000 0.000000 0.000000
vt 0.000000 0.000000 0.000000
vt 0.800000 0.000000 0.000000
vt 0.000000 1.300000 0.000000
vt 0.800000 1.300000 0.000000
vt 0.000000 0.000000 0.000000
vt 0.800000 0.000000 0.000000
vt 0.000000 1.300000 0.000000
vt 0.800000 1.300000 0.000000
vt 0.000000 0.000000 0.000000
vt 0.800000 0.000000 0.000000
vt 0.000000 1.300000 0.000000
vt 0.800000 1.300000 0.000000
vt 0.000000 0.000000 0.000000
vt 0.800000 0.000000 0.000000
vt 0.000000 1.300000 0.000000
vt 0.800000 1.300000 0.000000
vt -0.000000 0.000000 0.000000
vt 0.282843 0.000000 0.000000
vt -0.000000 1.300000 0.000000
vt 0.282843 1.300000 0.000000
vt -0.000000 0.000000 0.000000
vt 2.800000 0.000000 0.000000
vt -0.000000 1.300000 0.000000
vt 2.800000 1.300000 0.000000
vt 0.000000 0.000000 0.000000
vt 0.282843 0.000000 0.000000
vt 0.000000 1.300000 0.000000
vt 0.282843 1.300000 0.000000
vt 0.000000 0.000000 0.000000
vt 0.400000 0.000000 0.000000
vt 0.000000 1.300000 0.000000
vt 0.400000 1.300000 0.000000
vt 0.000000 0.000000 0.000000
vt 0.800000 0.000000 0.000000
vt 0.000000 1.300000 0.000000
vt 0.800000 1.300000 0.000000
vt 0.000000 0.000000 0.000000
vt 0.500000 0.000000 0.000000
vt 0.000000 1.300000 0.000000
vt 0.500000 1.300000 0.000000
vt 0.000000 0.000000 0.000000
vt 0.500000 0.000000 0.000000
vt 0.000000 0.400000 0.000000
vt 0.000000 0.900000 0.000000
vt -5.500000 0.900000 0.000000
vt 0.500000 1.300000 0.000000
vt 0.000000 1.300000 0.000000
vt -5.500000 0.400000 0.000000
vt 0.000000 0.900000 0.000000
vt 5.000000 0.900000 0.000000
vt 0.000000 1.300000 0.000000
vt 5.000000 1.300000 0.000000
vt 0.500000 0.000000 0.000000
vt 0.500000 0.400000 0.000000
vt 0.000000 0.000000 0.000000
vt 0.500000 0.900000 0.000000
vt 0.000000 1.300000 0.000000
vt 0.500000 1.300000 0.000000
vt 6.000000 0.400000 0.000000
vt 6.000000 0.900000 0.000000
vt 0.000000 0.000000 0.000000
vt 0.500000 0.000000 0.000000
vt 0.000000 1.300000 0.000000
vt 0.500000 1.300000 0.000000
vt 0.000000 0.000000 0.000000
vt 0.800000 0.000000 0.000000
vt 0.000000 1.300000 0.000000
vt 0.800000 1.300000 0.000000
vt 0.000000 0.000000 0.000000
vt 0.400000 0.000000 0.000000
vt 0.000000 1.300000 0.000000
vt 0.400000 1.300000 0.000000
vt 0.400000 0.550000 0.000000
vt -1.400000 0.750000 0.000000
vt -0.400000 0.550000 0.000000
vt -1.600000 0.550000 0.000000
vt -0.400000 -0.250000 0.000000
vt -2.000000 -0.250000 0.000000
vt -2.500000 -0.750000 0.000000
vt -2.500000 -0.250000 0.000000
vt 0.400000 -0.250000 0.000000
vt 1.600000 0.550000 0.000000
vt 1.400000 0.750000 0.000000
vt 2.500000 -0.750000 0.000000
vt 2.000000 -0.250000 0.000000
vt 2.000000 0.550000 0.000000
vt -2.000000 0.550000 0.000000
vt 2.500000 -0.250000 0.000000
vt 0.400000 0.550000 0.000000
vt -1.400000 0.750000 0.000000
vt -0.400000 0.550000 0.000000
vt -1.600000 0.550000 0.000000
vt -0.400000 -0.250000 0.000000
vt -2.000000 -0.250000 0.000000
vt -2.500000 -0.750000 0.000000
vt -2.500000 -0.250000 0.000000
vt 0.400000 -0.250000 0.000000
vt 1.600000 0.550000 0.000000
vt 1.400000 0.750000 0.000000
vt 2.500000 -0.750000 0.000000
vt 2.000000 -0.250000 0.000000
vt 2.000000 0.550000 0.000000
vt -2.000000 0.550000 0.000000
vt 2.500000 -0.250000 0.000000
vn 0.000000 -100.000000 0.000000
vn 0.000000 -100.000000 0.000000
vn 0.000000 -100.000000 0.000000
vn 0.000000 -100.000000 0.000000
vn 0.000000 0.000000 100.000000
vn 0.000000 0.000000 100.000000
vn 0.000000 0.000000 100.000000
vn 0.000000 0.000000 100.000000
vn 0.000000 0.000000 -100.000000
vn 0.000000 0.000000 -100.000000
vn 0.000000 0.000000 -100.000000
vn 0.000000 0.000000 -100.000000
vn 0.000000 -100.000000 0.000000
vn 0.000000 -100.000000 0.000000
vn 0.000000 -100.000000 0.000000
vn 0.000000 -100.000000 0.000000
vn 100.000000 0.000000 0.000000
vn 100.000000 0.000000 0.000000
vn 100.000000 0.000000 0.000000
vn 100.000000 0.000000 0.000000
vn 0.000000 100.000000 0.000000
vn 0.000000 100.000000 0.000000
vn 0.000000 100.000000 0.000000
vn 0.000000 100.000000 0.000000
vn -100.000000 0.000000 0.000000
vn -100.000000 0.000000 0.000000
vn -100.000000 0.000000 0.000000
vn -100.000000 0.000000 0.000000
vn 0.000000 -100.000000 0.000000
vn 0.000000 -100.000000 0.000000
vn 0.000000 -100.000000 0.000000
vn 0.000000 -100.000000 0.000000
vn -70.710678 70.710678 0.000000
vn -70.710678 70.710678 0.000000
vn -70.710678 70.710678 0.000000
vn -70.710678 70.710678 0.000000
vn 0.000000 100.000000 0.000000
vn 0.000000 100.000000 0.000000
vn 0.000000 100.000000 0.000000
vn 0.000000 100.000000 0.000000
vn 70.710678 70.710678 0.000000
vn 70.710678 70.710678 0.000000
vn 70.710678 70.710678 0.000000
vn 70.710678 70.710678 0.000000
vn 0.000000 100.000000 0.000000
vn 0.000000 100.000000 0.000000
vn 0.000000 100.000000 0.000000
vn 0.000000 100.000000 0.000000
vn 100.000000 0.000000 0.000000
vn 100.000000 0.000000 0.000000
vn 100.000000 0.000000 0.000000
vn 100.000000 0.000000 0.000000
vn 0.000000 100.000000 0.000000
vn 0.000000 100.000000 0.000000
vn 0.000000 100.000000 0.000000
vn 0.000000 100.000000 0.000000
vn 100.000000 0.000000 0.000000
vn 100.000000 0.000000 0.000000
vn 100.000000 0.000000 0.000000
vn 100.000000 0.000000 0.000000
vn 100.000000 0.000000 0.000000
vn 100.000000 0.000000 0.000000
vn 100.000000 0.000000 0.000000
vn 100.000000 0.000000 0.000000
vn 0.000000 -100.000000 0.000000
vn 0.000000 -100.000000 0.000000
vn 0.000000 -100.000000 0.000000
vn 0.000000 -100.000000 0.000000
vn -100.000000 0.000000 0.000000
vn -100.000000 0.000000 0.000000
vn -100.000000 0.000000 0.000000
vn -100.000000 0.000000 0.000000
vn -100.000000 0.000000 0.000000
vn -100.000000 0.000000 0.000000
vn -100.000000 0.000000 0.000000
vn -100.000000 0.000000 0.000000
vn 0.000000 100.000000 0.000000
vn 0.000000 100.000000 0.000000
vn 0.000000 100.000000 0.000000
vn 0.000000 100.000000 0.000000
vn -100.000000 0.000000 0.000000
vn -100.000000 0.000000 0.000000
vn -100.000000 0.000000 0.000000
vn -100.000000 0.000000 0.000000
vn 0.000000 100.000000 0.000000
vn 0.000000 100.000000 0.000000
vn 0.000000 100.000000 0.000000
vn 0.000000 100.000000 0.000000
vn 0.000000 0.000000 100.000000
vn 0.000000 0.000000 100.000000
vn 0.000000 0.000000 100.000000
vn 0.000000 0.000000 100.000000
vn 0.000000 0.000000 100.000000
vn 0.000000 0.000000 100.000000
vn 0.000000 0.000000 100.000000
vn 0.000000 0.000000 100.000000
vn 0.000000 0.000000 100.000000
vn 0.000000 0.000000 100.000000
vn 0.000000 0.000000 100.000000
vn 0.000000 0.000000 100.000000
vn 0.000000 0.000000 100.000000
vn 0.000000 0.000000 100.000000
vn 0.000000 0.000000 100.000000
vn 0.000000 0.000000 100.000000
vn 0.000000 0.000000 -100.000000
vn 0.000000 0.000000 -100.000000
vn 0.000000 0.000000 -100.000000
vn 0.000000 0.000000 -100.000000
vn 0.000000 0.000000 -100.000000
vn 0.000000 0.000000 -100.000000
vn 0.000000 0.000000 -100.000000
vn 0.000000 0.000000 -100.000000
vn 0.000000 0.000000 -100.000000
vn 0.000000 0.000000 -100.000000
vn 0.000000 0.000000 -100.000000
vn 0.000000 0.000000 -100.000000
vn 0.000000 0.000000 -100.000000
vn 0.000000 0.000000 -100.000000
vn 0.000000 0.000000 -100.000000
vn 0.000000 0.000000 -100.000000
f 1/1/1 2/2/2 4/3/3
f 4/3/3 2/2/2 3/4/4
f 4/5/5 3/6/6 5/7/7
f 5/7/7 3/6/6 6/8/8
f 7/9/9 8/10/10 1/11/11
f 1/11/11 8/10/10 2/12/12
f 8/13/13 7/14/14 10/15/15
f 10/15/15 7/14/14 9/16/16
f 11/17/17 12/18/18 14/19/19
f 14/19/19 12/18/18 13/20/20
f 15/21/21 11/22/22 16/23/23
f 16/23/23 11/22/22 14/24/24
f 17/25/25 15/26/26 18/27/27
f 18/27/27 15/26/26 16/28/28
f 12/29/29 17/30/30 13/31/31
f 13/31/31 17/30/30 18/32/32
f 19/33/33 20/34/34 22/35/35
f 22/35/35 20/34/34 21/36/36
f 23/37/37 19/38/38 24/39/39
f 24/39/39 19/38/38 22/40/40
f 25/41/41 23/42/42 26/43/43
f 26/43/43 23/42/42 24/44/44
f 27/45/45 25/46/46 28/47/47
f 28/47/47 25/46/46 26/48/48
f 29/49/49 27/50/50 30/51/51
f 30/51/51 27/50/50 28/52/52
f 31/53/53 29/54/54 32/55/55
f 32/55/55 29/54/54 30/56/56
f 10/57/57 31/58/58 8/59/59
f 8/59/59 31/58/58 6/60/60
f 8/59/59 6/60/60 3/61/61
f 31/58/58 32/62/62 6/60/60
f 6/60/60 32/62/62 33/63/63
f 3/61/61 2/64/64 8/59/59
f 5/65/65 6/66/66 34/67/67
f 34/67/67 6/66/66 33/68/68
f 9/69/69 7/70/70 35/71/71
f 35/71/71 7/70/70 5/72/72
f 35/71/71 5/72/72 36/73/73
f 36/73/73 5/72/72 34/74/74
f 7/70/70 1/75/75 5/72/72
f 5/72/72 1/75/75 4/76/76
f 37/77/77 35/78/78 38/79/79
f 38/79/79 35/78/78 36/80/80
f 39/81/81 37/82/82 40/83/83
f 40/83/83 37/82/82 38/84/84
f 20/85/85 39/86/86 21/87/87
f 21/87/87 39/86/86 40/88/88
f 18/89/89 22/90/90 13/91/91
f 13/91/91 22/90/90 21/92/92
f 13/91/91 21/92/92 14/93/93
f 14/93/93 21/92/92 38/94/94
f 14/93/93 38/94/94 34/95/95
f 34/95/95 38/94/94 36/96/96
f 16/97/97 26/98/98 18/89/89
f 18/89/89 26/98/98 24/99/99
f 18/89/89 24/99/99 22/90/90
f 14/93/93 33/100/100 16/97/97
f 16/97/97 33/100/100 30/101/101
f 16/97/97 30/101/101 26/98/98
f 26/98/98 30/101/101 28/102/102
f 21/92/92 40/103/103 38/94/94
f 34/95/95 33/100/100 14/93/93
f 33/100/100 32/104/104 30/101/101
f 12/105/105 23/106/106 17/107/107
f 17/107/107 23/106/106 25/108/108
f 17/107/107 25/108/108 15/109/109
f 15/109/109 25/108/108 29/110/110
f 15/109/109 29/110/110 10/111/111
f 10/111/111 29/110/110 31/112/112
f 11/113/113 20/114/114 12/105/105
f 12/105/105 20/114/114 19/115/115
f 12/105/105 19/115/115 23/106/106
f 15/109/109 9/116/116 11/113/113
f 11/113/113 9/116/116 37/117/117
f 11/113/113 37/117/117 20/114/114
f 20/114/114 37/117/117 39/118/118
f 25/108/108 27/119/119 29/110/110
f 10/111/111 9/116/116 15/109/109
f 9/116/116 35/120/120 37/117/117
# 40 vertices
# 120 texture params
# 120 normals
# 80 facets

# 1 groups
